SplineFontDB: 3.0
FontName: Cantarell-Regular
FullName: Cantarell Regular
FamilyName: Cantarell
Weight: Regular
Copyright: Copyright (c) 2009-2011, Understanding Limited (dave@understandinglimited.com),\nCopyright (c) 2010-2012, Jakub Steiner (jimmac@gmail.com).\n\nThis Font Software is licensed under the SIL Open Font License, Version 1.1.\nThis license is copied below, and is also available with a FAQ at:\nhttp://scripts.sil.org/OFL
UComments: "Cantarell was originally designed by Dave Crossland and is developed by the GNOME community+AA0ACgAA-dave@understandinglimited.com+AA0ACgAA-http://live.gnome.org/CantarellFonts"

StartChar: a
Encoding: 97 97 0
Width: 500
Flags: MW
AnchorPoint: "cedilla" 246 0 basechar 0
AnchorPoint: "below" 246 0 basechar 0
AnchorPoint: "above" 246 482 basechar 0
LayerCount: 4
Back
SplineSet
367.678 273.926 m 1
 367.189 213.867 l 1
 327.789 212.969 288.299 213.725 249.025 210.449 c 0
 232.652 209.084 216.262 206.742 200.631 201.684 c 0
 184.998 196.625 170.031 188.649 158.693 176.758 c 0
 145.972 163.415 138.285 144.807 140.139 126.465 c 0
 141.225 115.73 145.476 105.434 151.658 96.5908 c 0
 157.841 87.749 165.909 80.3213 174.807 74.2188 c 0
 196.106 59.6094 222.263 52.5742 248.083 53.2227 c 0
 273.903 53.8711 299.372 62.0215 321.291 75.6836 c 0
 358.992 99.1836 385.908 139.037 394.533 182.617 c 1
 425.295 169.434 l 1
 418.467 123.127 395.85 79.2656 361.975 46.9639 c 0
 328.099 14.6621 283.021 -5.96289 236.33 -9.27734 c 0
 198.299 -11.9775 159.305 -3.08789 126.955 17.0898 c 0
 108.452 28.6309 92.123 43.8545 80.2129 62.123 c 0
 68.3047 80.3926 60.916 101.744 60.0605 123.535 c 0
 58.6367 159.803 75.8281 195.696 103.029 219.727 c 0
 126.895 240.811 157.425 253.094 188.459 260.229 c 0
 219.494 267.364 251.402 269.859 283.205 271.484 c 0
 311.34 272.922 339.508 273.6 367.678 273.926 c 1
  Spiro
    367.678 273.926 v
    367.189 213.867 v
    249.025 210.449 o
    158.693 176.758 c
    140.139 126.465 c
    174.807 74.2188 c
    321.291 75.6836 o
    394.533 182.617 v
    425.295 169.434 v
    236.33 -9.27734 o
    126.955 17.0898 c
    60.0605 123.535 c
    103.029 219.727 c
    283.205 271.484 o
    0 0 z
  EndSpiro
90.8223 461.914 m 1
 109.002 468.749 127.604 474.463 146.486 479.004 c 0
 179.166 486.863 212.712 491.338 246.322 491.46 c 0
 279.934 491.582 313.959 487.451 345.217 475.098 c 0
 374.278 463.611 400.645 443.71 416.018 416.504 c 0
 424.145 402.121 429.148 386.092 431.639 369.76 c 0
 434.129 353.428 434.16 336.833 434.084 320.312 c 2
 432.619 0 l 1
 377.443 0 l 1
 353.518 56.1523 l 1
 353.518 299.316 l 2
 353.518 318.965 354.369 338.975 349.123 357.91 c 0
 346.327 368.003 341.683 377.601 335.307 385.909 c 0
 328.931 394.217 320.91 401.213 312.014 406.738 c 0
 289.891 420.48 263.189 425.183 237.146 425.415 c 0
 211.105 425.646 185.186 421.723 159.67 416.504 c 0
 141.604 412.809 123.693 408.369 105.959 403.32 c 1
 90.8223 461.914 l 1
  Spiro
    90.8223 461.914 v
    146.486 479.004 o
    345.217 475.098 o
    416.018 416.504 o
    434.084 320.312 [
    432.619 0 v
    377.443 0 v
    353.518 56.1523 v
    353.518 299.316 ]
    349.123 357.91 o
    312.014 406.738 o
    159.67 416.504 o
    105.959 403.32 v
    0 0 z
  EndSpiro
EndSplineSet
Fore
SplineSet
229 424 m 0
 188 424 121 408 80 394 c 1
 80 459 l 1
 132 479 186 494 242 494 c 0
 298 494 340 480 367 462 c 0
 418 428 435 392 435 313 c 2
 435 0 l 1
 373 0 l 1
 355 45 l 1
 310 8 261 -10 207 -10 c 0
 123 -10 52 42 52 120 c 0
 52 200 107 246 170 263 c 0
 218 275 278 282 352 284 c 1
 352 288 l 2
 352 323 349 347 343 363 c 0
 329 401 289 424 229 424 c 0
219 53 m 0
 277 53 317 75 352 109 c 1
 352 224 l 1
 286 222 244 219 224 215 c 0
 187 207 160 191 144 165 c 0
 137 153 133 142 133 130 c 0
 133 96 158 72 186 59 c 0
 195 55 207 53 219 53 c 0
EndSplineSet
Validated: 1
Layer: 2
SplineSet
355.469 111.377 m 5
 345.166 100.033 333.445 89.9648 320.662 81.5127 c 4
 307.539 72.8369 293.274 65.8643 278.297 61.0566 c 4
 262.492 55.9844 245.891 53.3301 229.293 53.5137 c 4
 214.197 53.6816 199.041 56.0977 184.958 61.5391 c 4
 171.838 66.6074 159.645 74.6836 151.248 85.9668 c 4
 142.515 97.7012 138.234 112.415 137.939 127.039 c 4
 137.723 137.758 139.538 148.54 143.512 158.497 c 4
 147.035 167.326 152.301 175.451 158.897 182.296 c 4
 165.531 189.178 173.441 194.752 181.871 199.259 c 4
 199.99 208.945 220.196 214.165 240.477 217.457 c 4
 261.5 220.868 282.82 222.035 304.104 222.818 c 4
 327.076 223.664 350.062 224.11 373.047 224.609 c 5
 373.047 284.647 l 5
 343.852 284.583 314.65 283.748 285.523 281.764 c 4
 260.025 280.027 234.549 277.385 209.463 272.495 c 4
 185.335 267.793 161.49 261.039 139.236 250.596 c 4
 123.539 243.229 108.65 233.927 95.9609 222.109 c 4
 83.4844 210.492 73.2793 196.393 66.5117 180.745 c 4
 58.9844 163.34 55.6465 144.262 55.7051 125.299 c 4
 55.7871 98.4707 62.6738 71.29 77.8184 49.1445 c 4
 91.8428 28.6357 112.67 13.3164 135.568 3.67773 c 4
 160.682 -6.89258 188.125 -11.4854 215.371 -11.3096 c 4
 234.035 -11.1885 252.709 -8.67188 270.637 -3.47754 c 4
 287.578 1.43066 303.805 8.7207 318.895 17.8506 c 4
 333.522 26.6992 347.115 37.248 359.375 49.1641 c 5
 355.469 111.377 l 5
375.908 0 m 5
 436.816 0 l 5
 436.816 320.641 l 6
 436.816 437.236 373.298 489.009 244.955 489.009 c 4
 193.184 489.009 136.191 479.002 82.6777 459.424 c 5
 82.6777 393.295 l 5
 146.632 413.743 197.099 419.398 235.818 419.398 c 4
 316.305 419.398 355.025 388.074 355.025 306.283 c 6
 355.025 51.3398 l 5
 375.908 0 l 5
EndSplineSet
Layer: 3
SplineSet
373.291 284.424 m 1
 373.047 224.609 l 1
 341.135 224.013 309.2 223.666 277.344 221.68 c 0
 260.002 220.598 242.646 218.909 225.678 215.17 c 0
 208.709 211.43 192.049 205.53 177.49 196.045 c 0
 166.137 188.647 156.131 179.021 149.045 167.473 c 0
 141.958 155.922 137.908 142.457 137.939 128.906 c 0
 137.973 114.537 142.643 100.248 150.928 88.5078 c 0
 159.214 76.7676 170.963 67.6299 184.082 61.7676 c 0
 206.045 51.9531 231.25 51.1738 254.883 55.6641 c 0
 281.143 60.6543 306.094 71.7793 328.125 86.9141 c 0
 340.137 95.166 351.283 104.676 361.328 115.234 c 1
 363.281 49.8047 l 1
 344.652 32.8906 323.297 18.9844 300.293 8.78906 c 0
 267.145 -5.90137 230.518 -13.0967 194.336 -10.7422 c 0
 161.436 -8.60156 128.563 2.09375 103.027 22.9492 c 0
 72.6445 47.7637 54.4844 86.748 54.6875 125.977 c 0
 54.8604 159.416 68.2529 192.576 91.3086 216.797 c 0
 114.757 241.43 146.853 256.277 179.688 265.137 c 0
 242.449 282.07 308.287 283.871 373.291 284.424 c 1
  Spiro
    373.291 284.424 v
    373.047 224.609 v
    341.163 224.027 o
    309.19 223.188 o
    277.344 221.68 o
    260.029 220.344 o
    242.743 218.276 o
    225.677 215.169 o
    208.895 210.663 o
    192.667 204.381 o
    177.49 196.045 o
    166.655 187.925 o
    157.037 178.359 o
    149.044 167.472 o
    143.014 155.364 o
    139.227 142.347 o
    137.939 128.906 o
    139.478 114.669 o
    143.892 100.993 o
    150.928 88.5073 o
    160.28 77.6694 o
    171.509 68.6885 o
    184.082 61.7676 o
    206.924 54.8296 o
    230.928 53.0703 o
    254.883 55.6641 o
    280.622 62.6113 o
    305.204 73.2065 o
    328.125 86.9141 o
    339.828 95.5684 o
    350.936 105.043 o
    361.328 115.234 v
    363.281 49.8047 v
    343.804 33.9338 o
    322.686 20.1825 o
    300.293 8.78906 o
    266.165 -3.31766 o
    230.485 -9.99346 o
    194.336 -10.7422 o
    161.748 -5.69839 o
    130.708 5.43525 o
    103.027 22.9492 o
    76.9678 51.9385 o
    60.3667 87.3828 o
    54.6875 125.977 o
    59.1265 158.97 o
    71.6221 189.946 o
    91.3086 216.797 o
    117.318 238.291 o
    147.423 254.154 o
    179.688 265.137 o
    243.266 277.532 o
    308.219 282.944 o
    0 0 z
  EndSpiro
83.0078 458.984 m 1
 97.0781 464.289 111.43 468.848 125.977 472.656 c 0
 166.09 483.157 207.561 488.369 249.023 488.77 c 0
 270.926 488.979 292.926 487.684 314.379 483.267 c 0
 335.832 478.85 356.768 471.121 375 458.984 c 0
 398.006 443.67 416.074 421.065 425.788 395.191 c 0
 435.502 369.316 436.523 341.114 436.523 313.477 c 2
 436.523 0 l 1
 375.977 0 l 1
 355.469 50.7812 l 1
 354.98 287.598 l 2
 354.955 299.782 355.062 311.98 354.235 324.137 c 0
 353.408 336.293 351.488 348.471 347.168 359.863 c 0
 340.842 376.544 329.034 391.057 314.019 400.689 c 0
 299.003 410.322 281.373 415.26 263.672 417.48 c 0
 219.076 423.074 173.742 416.07 129.883 406.25 c 0
 114.08 402.712 98.4336 398.479 83.0078 393.555 c 1
 83.0078 458.984 l 1
  Spiro
    83.0078 458.984 v
    97.1548 464.036 o
    111.513 468.603 o
    125.977 472.656 o
    166.451 481.405 o
    207.649 486.751 o
    249.023 488.77 o
    270.913 488.418 o
    292.789 486.701 o
    314.379 483.267 o
    335.558 477.712 o
    355.967 469.683 o
    375 458.984 o
    396.214 441.408 o
    413.431 419.803 o
    425.788 395.191 o
    432.884 368.675 o
    435.9 341.167 o
    436.523 313.477 [
    436.523 0 v
    375.977 0 v
    355.469 50.7812 v
    354.98 287.598 ]
    354.96 299.772 o
    354.791 311.981 o
    354.235 324.137 o
    352.998 336.258 o
    350.734 348.251 o
    347.168 359.863 o
    339.109 375.706 o
    327.868 389.543 o
    314.019 400.689 o
    298.242 408.823 o
    281.238 414.285 o
    263.672 417.48 o
    218.957 419.239 o
    174.107 414.762 o
    129.883 406.25 o
    114.15 402.484 o
    98.4897 398.244 o
    83.0078 393.555 v
    0 0 z
  EndSpiro
EndSplineSet
EndChar

StartChar: d
Encoding: 100 100 1
Width: 551
Flags: MW
AnchorPoint: "aboveright" 548 669.265 basechar 0
AnchorPoint: "cedilla" 290 0 basechar 0
AnchorPoint: "below" 290 0 basechar 0
AnchorPoint: "above" 290 670 basechar 0
LayerCount: 4
Back
SplineSet
401.227 737.793 m 5
 481.305 737.793 l 5
 481.305 0 l 5
 425.641 0 l 5
 401.227 56.1523 l 5
 401.227 737.793 l 5
  Spiro
    401.227 737.793 v
    481.305 737.793 v
    481.305 0 v
    425.641 0 v
    401.227 56.1523 v
    0 0 z
  EndSpiro
311.871 490.723 m 4
 339.368 487.835 366.386 480.747 391.949 470.215 c 4
 406.635 464.164 420.85 456.971 434.43 448.73 c 5
 408.062 402.832 l 5
 392.656 410.052 376.633 415.962 360.211 420.41 c 4
 329.111 428.834 296.273 432.145 264.508 426.758 c 4
 243.643 423.219 223.355 415.787 205.623 404.235 c 4
 187.891 392.684 172.89 377.015 161.969 358.887 c 4
 141.717 325.27 135.606 284.852 135.602 245.605 c 4
 135.597 207.99 141.029 169.516 158.551 136.23 c 4
 172.215 110.273 193.643 88.3984 219.586 74.707 c 4
 248.09 59.6641 281.219 54.4414 313.336 57.1289 c 4
 362.223 61.2188 409.162 82.5176 446.148 114.746 c 5
 464.703 69.3359 l 5
 415.938 23.8525 351.593 -5.4873 285.016 -9.27734 c 4
 249.725 -11.2861 213.805 -5.85742 181.435 8.34277 c 4
 149.064 22.5439 120.682 45.7246 100.445 74.707 c 4
 68.2988 120.746 57.1855 178.712 57.4766 234.863 c 4
 57.6445 267.123 61.4551 299.472 70.3281 330.487 c 4
 79.2002 361.503 93.5508 391.162 114.117 416.016 c 4
 135.887 442.324 164.469 462.843 196.148 475.586 c 4
 232.6 490.249 272.796 494.824 311.871 490.723 c 4
  Spiro
    311.871 490.723 o
    391.949 470.215 o
    434.43 448.73 v
    408.062 402.832 v
    360.211 420.41 o
    264.508 426.758 o
    161.969 358.887 o
    135.602 245.605 o
    158.551 136.23 o
    219.586 74.707 o
    313.336 57.1289 o
    446.148 114.746 v
    464.703 69.3359 v
    285.016 -9.27734 o
    100.445 74.707 o
    57.4766 234.863 o
    114.117 416.016 o
    196.148 475.586 o
    0 0 z
  EndSpiro
EndSplineSet
Fore
SplineSet
289 59 m 0
 338 59 364 70 398 89 c 1
 398 407 l 1
 363 422 328 428 290 428 c 0
 183 428 133 347 133 240 c 0
 133 132 183 59 289 59 c 0
271 -10 m 0
 123 -10 48 96 48 240 c 0
 48 323 71 384 117 430 c 0
 161 473 216 494 282 494 c 0
 321 494 360 487 398 471 c 1
 398 671 l 1
 481 671 l 1
 481 0 l 1
 422 0 l 1
 408 34 l 1
 365 6 319 -10 271 -10 c 0
EndSplineSet
Validated: 1
Layer: 3
SplineSet
400.055 54.6387 m 1
 423.785 0.585938 l 1
 482.672 0.585938 l 1
 482.672 670.752 l 1
 400.055 670.752 l 1
 400.055 54.6387 l 1
406.207 468.164 m 1
 366.217 485.742 328.863 494.531 284.039 494.531 c 0
 155.719 494.531 49.8105 406.201 49.8105 236.572 c 0
 49.8105 92.8711 130.23 -9.08203 269.098 -9.08203 c 0
 329.303 -9.08203 376.764 10.2539 416.314 38.3789 c 1
 416.314 38.3789 406.646 92.4316 406.207 92.8711 c 1
 372.369 73.5352 342.047 58.5938 291.07 58.5938 c 0
 187.799 58.5938 134.625 131.982 134.625 243.164 c 0
 134.625 355.664 191.754 429.932 291.949 429.932 c 0
 342.047 429.932 370.611 420.703 406.207 404.443 c 1
 406.207 468.164 l 1
EndSplineSet
EndChar

StartChar: e
Encoding: 101 101 2
Width: 511
Flags: MW
AnchorPoint: "above" 265 482 basechar 0
AnchorPoint: "below" 289 0 basechar 0
AnchorPoint: "cedilla" 289 0 basechar 0
LayerCount: 4
Back
SplineSet
284.574 421.875 m 4
 257.783 423.777 230.129 418.16 207.426 403.809 c 4
 188.4 391.783 173.476 373.921 162.992 354.004 c 4
 148.503 326.477 141.485 295.265 141.02 264.16 c 5
 392.973 264.16 l 5
 393.535 284.588 392.349 305.111 388.578 325.195 c 4
 384.662 346.055 377.426 366.729 364.164 383.301 c 4
 354.681 395.15 342.299 404.597 328.524 410.971 c 4
 314.751 417.344 299.713 420.8 284.574 421.875 c 4
  Spiro
    284.574 421.875 o
    207.426 403.809 o
    162.992 354.004 o
    141.02 264.16 v
    392.973 264.16 v
    388.578 325.195 o
    364.164 383.301 o
    0 0 z
  EndSpiro
287.992 491.699 m 4
 311.915 492.065 336.012 488.857 358.574 480.9 c 4
 381.139 472.943 402.02 459.999 418.59 442.74 c 4
 444.426 415.83 458.568 379.48 464.949 342.727 c 4
 470.198 312.496 470.609 281.659 470.609 250.977 c 6
 470.609 203.613 l 5
 139.066 203.613 l 5
 141.374 171.953 153.877 141.154 174.111 116.696 c 4
 192.351 94.6514 216.659 77.8633 243.364 67.5928 c 4
 267.318 58.3809 293.09 54.3496 318.754 54.1992 c 4
 331.284 54.125 343.812 54.9346 356.26 56.3652 c 4
 368.777 57.8037 381.221 59.8652 393.553 62.4531 c 4
 405.855 65.0352 418.046 68.1504 430.082 71.7773 c 5
 444.242 17.0898 l 5
 427.678 11.3887 410.824 6.52441 393.766 2.54395 c 4
 376.708 -1.43652 359.44 -4.52734 342.049 -6.60742 c 4
 324.762 -8.6748 307.355 -9.75781 289.945 -9.76562 c 4
 248.619 -9.78418 206.517 -3.76758 169.533 14.6719 c 4
 135.367 31.7051 106.91 59.6895 88.7891 93.291 c 4
 67.8252 132.164 59.9551 177.027 59.4766 221.191 c 4
 58.8623 277.83 69.5664 335.74 98.3594 384.519 c 4
 119.482 420.303 150.949 449.998 188.268 468.275 c 4
 219.178 483.416 253.577 491.172 287.992 491.699 c 4
  Spiro
    287.992 491.699 o
    418.589 442.74 o
    464.95 342.726 o
    470.609 250.977 [
    470.609 203.613 v
    139.066 203.613 v
    174.112 116.696 o
    243.364 67.5928 o
    318.754 54.1992 o
    356.26 56.3652 o
    393.552 62.4536 o
    430.082 71.7773 v
    444.242 17.0898 v
    393.765 2.54377 o
    342.049 -6.60708 o
    289.945 -9.76562 o
    169.533 14.6714 o
    88.7891 93.2905 o
    59.4766 221.191 o
    98.359 384.519 o
    188.268 468.276 o
    0 0 z
  EndSpiro
EndSplineSet
Fore
SplineSet
265 494 m 0
 392 494 463 409 463 270 c 2
 463 226 l 1
 458 218 l 1
 127 218 l 1
 128 172 146 133 174 103 c 0
 202 73 250 58 311 58 c 0
 353 58 397 67 444 82 c 1
 444 17 l 1
 395 0 343 -10 289 -10 c 0
 132 -10 48 77 48 233 c 0
 48 305 65 365 102 415 c 1
 141 465 195 494 265 494 c 0
381 281 m 1
 381 360 347 426 272 426 c 0
 179 426 138 358 129 281 c 1
 381 281 l 1
EndSplineSet
Validated: 1
Layer: 3
SplineSet
469.373 217.604 m 1
 473.68 226.218 l 1
 473.68 270.146 l 2
 473.68 396.33 415.109 490.215 276.005 490.215 c 0
 133.025 490.215 56.7969 375.229 56.7969 233.108 c 0
 56.7969 81.9453 137.331 -9.35547 300.123 -9.35547 c 0
 355.247 -9.35547 405.635 -0.742188 455.162 16.4844 c 1
 455.162 81.9453 l 1
 415.971 69.4561 371.612 59.5508 321.655 59.5508 c 0
 195.471 59.5508 140.346 130.61 140.346 237.416 c 0
 140.346 339.482 185.135 424.754 274.713 424.754 c 0
 356.971 424.754 391.854 364.892 391.854 280.912 c 1
 133.025 280.912 l 1
 133.025 217.604 l 1
 469.373 217.604 l 1
EndSplineSet
EndChar

StartChar: h
Encoding: 104 104 3
Width: 542
Flags: MW
AnchorPoint: "cedilla" 267 0 basechar 0
AnchorPoint: "below" 267 0 basechar 0
AnchorPoint: "above" 267 670 basechar 0
LayerCount: 4
Back
SplineSet
116.328 407.715 m 5
 168.195 444.5 226.329 473.907 288.691 486.328 c 4
 326.136 493.784 365.896 494.004 401.565 480.388 c 4
 437.234 466.77 466.886 438.359 482.051 403.32 c 4
 491.854 380.672 496.05 355.958 497.7 331.335 c 4
 499.346 306.712 498.838 282.002 498.652 257.324 c 6
 496.699 0 l 5
 416.621 0 l 5
 416.133 290.527 l 6
 416.109 304.671 415.988 318.881 413.688 332.836 c 4
 411.387 346.791 406.864 360.465 399.531 372.559 c 4
 387.554 392.312 368 407.104 346.021 414.221 c 4
 324.045 421.338 300.245 421.293 277.461 417.48 c 4
 226.074 408.882 178.324 384.945 134.395 356.934 c 5
 116.328 407.715 l 5
  Spiro
    116.328 407.715 v
    288.691 486.328 o
    482.051 403.32 o
    498.652 257.324 [
    496.699 0 v
    416.621 0 v
    416.133 290.527 ]
    399.531 372.559 o
    277.461 417.48 o
    134.395 356.934 v
    0 0 z
  EndSpiro
97.7734 737.793 m 5
 177.852 737.793 l 5
 177.852 0 l 5
 97.7734 0 l 5
 97.7734 737.793 l 5
  Spiro
    97.7734 737.793 v
    177.852 737.793 v
    177.852 0 v
    97.7734 0 v
    0 0 z
  EndSpiro
EndSplineSet
Fore
SplineSet
394 310 m 2
 394 390 367 427 288 427 c 0
 250 427 207 415 158 391 c 1
 158 0 l 1
 75 0 l 1
 75 671 l 1
 158 671 l 1
 158 452 l 1
 216 481 269 494 319 494 c 0
 420 494 477 431 477 329 c 2
 477 0 l 1
 394 0 l 1
 394 310 l 2
EndSplineSet
Validated: 1
Layer: 3
SplineSet
95.4492 670.522 m 1
 95.4492 0.423828 l 1
 178.059 0.423828 l 1
 178.059 670.522 l 1
 95.4492 670.522 l 1
172.347 388.422 m 1
 220.682 412.59 272.971 426.651 310.32 426.651 c 0
 384.141 426.651 413.582 391.938 413.582 309.328 c 2
 413.582 0.423828 l 1
 495.312 0.423828 l 1
 495.312 329.103 l 2
 495.312 431.484 443.021 496.079 333.609 496.079 c 0
 283.078 496.079 228.151 478.94 166.195 445.984 c 1
 172.347 388.422 l 1
EndSplineSet
EndChar

StartChar: i
Encoding: 105 105 4
Width: 223
Flags: MW
AnchorPoint: "cedilla" 106 0 basechar 0
AnchorPoint: "above" 106 670 basechar 0
AnchorPoint: "below" 106 0 basechar 0
LayerCount: 4
Back
SplineSet
85.5664 693.848 m 5xf0
 180.293 693.848 l 5
 180.293 601.562 l 5
 85.5664 601.562 l 5
 85.5664 693.848 l 5xf0
  Spiro
    85.5664 693.848 v
    180.293 693.848 v
    180.293 601.562 v
    85.5664 601.562 v
    0 0 z
  EndSpiro
92.8906 482.422 m 5xe8
 172.969 482.422 l 5
 172.969 0 l 5
 92.8906 0 l 5
 92.8906 482.422 l 5xe8
  Spiro
    92.8906 482.422 v
    172.969 482.422 v
    172.969 0 v
    92.8906 0 v
    0 0 z
  EndSpiro
EndSplineSet
Fore
SplineSet
70 482 m 5
 153 482 l 5
 153 0 l 1
 70 0 l 1
 70 482 l 5
70 671 m 1
 153 671 l 1
 153 587 l 1
 70 587 l 1
 70 671 l 1
EndSplineSet
Validated: 1
Layer: 3
SplineSet
89.8057 669.595 m 1
 172.4 669.595 l 1
 172.4 586.562 l 1
 89.8057 586.562 l 1
 89.8057 669.595 l 1
89.8057 482.88 m 1
 172.4 482.88 l 1
 172.4 -0.387695 l 1
 89.8057 -0.387695 l 1
 89.8057 482.88 l 1
EndSplineSet
EndChar

StartChar: n
Encoding: 110 110 5
Width: 538
Flags: MW
AnchorPoint: "cedilla" 267 0 basechar 0
AnchorPoint: "below" 267 0 basechar 0
AnchorPoint: "above" 267 482 basechar 0
LayerCount: 4
Back
SplineSet
111.445 407.715 m 5
 163.312 444.5 221.446 473.907 283.809 486.328 c 4
 321.253 493.784 361.014 494.004 396.683 480.388 c 4
 432.352 466.77 462.003 438.359 477.168 403.32 c 4
 486.973 380.672 491.167 355.958 492.817 331.335 c 4
 494.463 306.712 493.955 282.002 493.77 257.324 c 6
 491.816 0 l 5
 411.738 0 l 5
 411.25 290.527 l 6
 411.227 304.671 411.105 318.881 408.805 332.836 c 4
 406.504 346.791 401.981 360.465 394.648 372.559 c 4
 382.671 392.312 363.117 407.104 341.139 414.221 c 4
 319.162 421.338 295.362 421.293 272.578 417.48 c 4
 221.191 408.882 173.441 384.945 129.512 356.934 c 5
 111.445 407.715 l 5
  Spiro
    111.445 407.715 v
    283.809 486.328 o
    477.168 403.32 o
    493.77 257.324 [
    491.816 0 v
    411.738 0 v
    411.25 290.527 ]
    394.648 372.559 o
    272.578 417.48 o
    129.512 356.934 v
    0 0 z
  EndSpiro
92.8906 482.422 m 5
 149.043 482.422 l 5
 172.969 426.27 l 5
 172.969 0 l 5
 92.8906 0 l 5
 92.8906 482.422 l 5
  Spiro
    92.8906 482.422 v
    149.043 482.422 v
    172.969 426.27 v
    172.969 0 v
    92.8906 0 v
    0 0 z
  EndSpiro
EndSplineSet
Fore
SplineSet
390 307 m 2
 390 387 364 423 286 423 c 0
 248 423 202 411 153 388 c 1
 153 0 l 1
 70 0 l 1
 70 482 l 1
 128 482 l 1
 144 444 l 1
 205 476 264 494 315 494 c 0
 419 494 473 429 473 327 c 2
 473 0 l 1
 390 0 l 1
 390 307 l 2
EndSplineSet
Validated: 1
Layer: 3
SplineSet
170.725 385.342 m 1
 218.729 409.344 270.661 423.309 307.756 423.309 c 0
 381.07 423.309 410.31 388.832 410.31 306.79 c 2
 410.31 0 l 1
 491.48 0 l 1
 491.48 326.428 l 2
 491.48 428.109 439.548 492.261 330.885 492.261 c 0
 280.698 492.261 226.148 475.24 164.615 442.51 c 1
 170.725 385.342 l 1
151.088 480.041 m 1
 94.3555 480.041 l 1
 94.3555 0 l 1
 176.398 0 l 1
 176.398 423.744 l 1
 151.088 480.041 l 1
EndSplineSet
EndChar

StartChar: o
Encoding: 111 111 6
Width: 564
Flags: MW
AnchorPoint: "cedilla" 280 0 basechar 0
AnchorPoint: "below" 280 -3 basechar 0
AnchorPoint: "above" 280 482 basechar 0
LayerCount: 4
Back
SplineSet
300.504 423.34 m 0
 226.773 423.34 150.602 364.258 150.602 249.512 c 0
 150.602 144.531 213.59 58.5938 308.316 58.5938 c 0
 392.301 58.5938 458.707 128.418 458.707 234.863 c 0
 458.707 358.887 377.164 423.34 300.504 423.34 c 0
307.34 491.699 m 0
 435.758 491.699 536.832 406.25 536.832 250.977 c 0
 536.832 89.3555 437.223 -9.76562 299.527 -9.76562 c 0
 168.668 -9.76562 72.4766 81.543 72.4766 235.84 c 0
 72.4766 393.066 168.18 491.699 307.34 491.699 c 0
EndSplineSet
Fore
SplineSet
280 426 m 0
 183 426 133 342 133 240 c 0
 133 138 182 56 280 56 c 0
 379 56 431 137 431 240 c 0
 431 343 378 426 280 426 c 0
280 -10 m 0
 132 -10 48 90 48 240 c 0
 48 391 132 494 280 494 c 0
 429 494 516 391 516 240 c 0
 516 90 428 -10 280 -10 c 0
EndSplineSet
Validated: 1
Layer: 3
SplineSet
70.5176 240.408 m 0
 70.5176 84.2227 155.943 -9.83301 302.207 -9.83301 c 0
 445.879 -9.83301 535.191 86.3809 535.191 240.408 c 0
 535.191 396.162 449.763 490.22 303.932 490.22 c 0
 159.828 490.22 70.5176 394.006 70.5176 240.408 c 0
153.787 240.408 m 0
 153.787 352.154 212.465 425.934 303.068 425.934 c 0
 394.105 425.934 451.92 352.154 451.92 240.408 c 0
 451.92 128.231 394.105 54.4531 303.068 54.4531 c 0
 212.465 54.4531 153.787 128.231 153.787 240.408 c 0
EndSplineSet
EndChar

StartChar: s
Encoding: 115 115 7
Width: 465
Flags: MW
LayerCount: 4
Back
SplineSet
409.0859375 491.69921875 m 0
 471.5859375 491.69921875 496.9765625 482.421875 531.64453125 472.16796875 c 1
 511.13671875 411.1328125 l 1
 479.3984375 419.921875 444.73046875 429.19921875 395.90234375 429.19921875 c 0
 294.33984375 429.19921875 279.203125 375.9765625 279.203125 354.4921875 c 0
 279.203125 268.06640625 558.5 288.57421875 558.5 138.18359375 c 0
 558.5 77.63671875 519.92578125 -9.765625 348.5390625 -9.765625 c 0
 312.40625 -9.765625 254.7890625 -1.953125 184.4765625 26.85546875 c 1
 206.9375 87.40234375 l 1
 271.390625 63.4765625 309.96484375 53.22265625 351.95703125 53.22265625 c 0
 410.061523438 53.22265625 471.09765625 65.91796875 471.09765625 128.90625 c 0
 471.09765625 221.19140625 196.1953125 184.5703125 196.1953125 346.19140625 c 0
 196.1953125 400.390625 240.62890625 491.69921875 409.0859375 491.69921875 c 0
EndSplineSet
Fore
SplineSet
57 350 m 0
 61 452 151 494 253 494 c 0
 314 494 344 480 388 459 c 1
 388 386 l 1
 388 386 338 430 260 430 c 0
 216 430 182 423 156 399 c 0
 145 389 140 371 140 361 c 0
 140 332 152 324 169 313 c 0
 176 308 191 300 213 292 c 2
 287 265 l 2
 353 241 369 225 387 205 c 0
 406 185 415 158 415 130 c 0
 415 103 406 76 390 54 c 0
 357 12 304 -10 230 -10 c 0
 156 -10 97 -1 53 18 c 1
 53 91 l 1
 107 70 164 58 223 58 c 0
 276 58 329 77 329 125 c 0
 326 171 276 188 236 203 c 2
 161 232 l 1
 122 250 57 274 57 350 c 0
EndSplineSet
Validated: 1
Layer: 3
SplineSet
391.70703125 491.176757812 m 0
 441.392578125 491.176757812 488.462890625 482.458984375 528.123046875 471.127929688 c 1
 528.123046875 404.4453125 l 1
 491.513671875 414.470703125 433.547851562 424.05859375 389.09375 424.05859375 c 0
 333.7421875 424.05859375 279.69921875 404.880859375 279.69921875 359.5546875 c 0
 279.69921875 318.5859375 333.7421875 302.896484375 395.630859375 280.233398438 c 0
 474.515625 251.46875 554.708984375 222.267578125 554.708984375 130.307617188 c 0
 554.708984375 39.21875 474.515625 -9.5947265625 362.943359375 -9.5947265625 c 0
 308.463867188 -9.5947265625 240.91015625 -1.75 193.404296875 18.2978515625 c 1
 193.404296875 90.646484375 l 1
 247.447265625 69.291015625 306.720703125 58.3955078125 363.37890625 58.3955078125 c 0
 426.138671875 58.3955078125 468.4140625 82.365234375 468.4140625 124.642578125 c 0
 468.4140625 174.326171875 405.21875 194.375 336.79296875 219.653320312 c 0
 258.779296875 248.41796875 196.890625 272.82421875 196.890625 353.453125 c 0
 196.890625 460.66796875 308.463867188 491.176757812 391.70703125 491.176757812 c 0
EndSplineSet
EndChar

StartChar: bar
Encoding: 124 124 8
Width: 431
VWidth: 1023
Flags: MW
LayerCount: 4
Fore
SplineSet
176 730 m 1
 256 730 l 1
 256 -202 l 1
 176 -202 l 1
 176 730 l 1
EndSplineSet
Validated: 1
Layer: 3
SplineSet
175.781 781.738 m 5
 255.859 781.738 l 5
 255.859 -150.391 l 5
 175.781 -150.391 l 5
 175.781 781.738 l 5
255.859 781.738 m 5
 255.859 -150.391 l 1029
EndSplineSet
EndChar

StartChar: b
Encoding: 98 98 9
Width: 556
Flags: HMW
AnchorPoint: "cedilla" 262 0 basechar 0
AnchorPoint: "below" 262 0 basechar 0
AnchorPoint: "above" 262 670 basechar 0
LayerCount: 4
Back
SplineSet
92.7734 737.793 m 1
 172.852 737.793 l 1
 172.852 56.1523 l 1
 148.438 0 l 1
 92.7734 0 l 1
 92.7734 737.793 l 1
  Spiro
    172.852 737.793 v
    172.852 56.1523 v
    148.438 0 v
    92.7734 0 v
    92.7734 737.793 v
    0 0 z
  EndSpiro
287.109 491.699 m 0
 322.421 493.809 358.394 488.486 390.795 474.289 c 0
 423.195 460.093 451.554 436.807 471.68 407.715 c 0
 499.995 366.788 511.777 316.311 514.16 266.602 c 0
 515.854 231.195 513.115 195.452 504.463 161.078 c 0
 495.806 126.703 480.646 93.6836 458.008 66.4062 c 0
 436.202 40.1318 407.646 19.5957 375.977 6.83594 c 0
 339.532 -7.84766 299.33 -12.4111 260.254 -8.30078 c 0
 232.758 -5.4082 205.74 1.67676 180.176 12.207 c 0
 165.489 18.2568 151.273 25.4502 137.695 33.6914 c 1
 164.062 79.5898 l 1
 179.473 72.3799 195.494 66.4688 211.914 62.0117 c 0
 243.012 53.5703 275.857 50.2266 307.617 55.6641 c 0
 328.467 59.2334 348.721 66.7168 366.436 78.2764 c 0
 384.15 89.8359 399.168 105.461 410.156 123.535 c 0
 423.744 145.887 431.102 171.624 434.242 197.594 c 0
 437.383 223.562 436.848 249.924 433.594 275.879 c 0
 430.547 300.183 424.756 324.398 413.574 346.191 c 0
 400.171 372.314 378.576 394.146 352.539 407.715 c 0
 323.973 422.604 290.901 427.854 258.789 425.293 c 0
 209.857 421.393 162.78 400.156 125.977 367.676 c 1
 107.422 413.086 l 1
 156.338 458.37 220.569 487.724 287.109 491.699 c 0
  Spiro
    287.109 491.699 o
    471.68 407.715 o
    514.16 266.602 o
    458.008 66.4062 o
    375.977 6.83594 o
    260.254 -8.30078 o
    180.176 12.207 o
    137.695 33.6914 v
    164.062 79.5898 v
    211.914 62.0117 o
    307.617 55.6641 o
    410.156 123.535 o
    433.594 275.879 o
    413.574 346.191 o
    352.539 407.715 o
    258.789 425.293 o
    125.977 367.676 v
    107.422 413.086 v
    0 0 z
  EndSpiro
EndSplineSet
Fore
SplineSet
267 59 m 0
 373 59 423 132 423 240 c 0
 423 348 371 423 266 423 c 0
 228 423 193 416 158 401 c 1
 158 89 l 1
 192 70 218 59 267 59 c 0
285 -10 m 0
 237 -10 191 6 148 34 c 1
 134 0 l 1
 75 0 l 1
 75 671 l 1
 158 671 l 1
 158 471 l 1
 196 487 235 494 274 494 c 0
 340 494 395 473 439 430 c 0
 485 384 508 323 508 240 c 0
 508 96 433 -10 285 -10 c 0
EndSplineSet
Validated: 1
Layer: 3
Refer: 1 100 S -1 0 0 1 579.15 0 2
EndChar

StartChar: l
Encoding: 108 108 10
Width: 281
Flags: MW
LayerCount: 4
Fore
SplineSet
214 65 m 0
 233 65 249 69 271 76 c 1
 271 14 l 1
 254 8 221 -10 174 -10 c 0
 111 -10 71 37 70 105 c 1
 70 671 l 1
 150 671 l 1
 150 134 l 2
 150 97 152 65 214 65 c 0
EndSplineSet
Validated: 1
Layer: 3
SplineSet
97.6562 670.898 m 5
 177.734 670.898 l 5
 177.734 0 l 1
 97.6562 0 l 1
 97.6562 670.898 l 5
EndSplineSet
EndChar

StartChar: w
Encoding: 119 119 11
Width: 812
Flags: MW
AnchorPoint: "cedilla" 404 0 basechar 0
AnchorPoint: "below" 404 0 basechar 0
AnchorPoint: "above" 404 482 basechar 0
LayerCount: 4
Fore
SplineSet
27 482 m 1
 111 482 l 1
 237 96 l 1
 240 78 l 1
 243 96 l 1
 369 482 l 1
 449 482 l 1
 569 96 l 1
 572 78 l 1
 575 96 l 1
 701 482 l 1
 785 482 l 1
 619 0 l 1
 526 0 l 1
 405 374 l 1
 281 0 l 1
 191 0 l 1
 27 482 l 1
EndSplineSet
Validated: 1
Layer: 3
SplineSet
20.8555 482.422 m 21
 106.305 482.422 l 13
 254.254 24.9023 l 21
 220.562 24.9023 l 5
 366.07 482.422 l 13
 444.684 482.422 l 21
 585.309 24.9023 l 5
 551.617 24.9023 l 13
 699.566 482.422 l 29
 785.016 482.422 l 29
 608.746 0 l 29
 528.18 0 l 29
 386.09 441.895 l 21
 419.293 441.895 l 5
 272.809 0 l 13
 197.125 0 l 29
 20.8555 482.422 l 21
EndSplineSet
EndChar

StartChar: exclam
Encoding: 33 33 12
Width: 300
VWidth: 1023
Flags: HMWO
LayerCount: 4
Fore
SplineSet
108 694 m 1
 191 694 l 1
 191 224 l 1
 108 224 l 5
 108 694 l 1
100 100 m 1
 200 100 l 1
 200 0 l 1
 100 0 l 1
 100 100 l 1
EndSplineSet
Layer: 3
SplineSet
100.86328125 97.65625 m 1
 198.51953125 97.65625 l 1
 198.51953125 0 l 1
 100.86328125 0 l 1
 100.86328125 97.65625 l 1
108.188476562 693.84765625 m 1
 191.1953125 693.84765625 l 1
 191.1953125 223.6328125 l 1
 108.188476562 223.6328125 l 1
 108.188476562 693.84765625 l 1
EndSplineSet
EndChar

StartChar: u
Encoding: 117 117 14
Width: 543
Flags: MW
AnchorPoint: "cedilla" 262 0 basechar 0
AnchorPoint: "below" 262 0 basechar 0
AnchorPoint: "above" 262 484 basechar 0
LayerCount: 4
Back
SplineSet
89.8438 482.422 m 5
 169.922 482.422 l 5
 170.41 191.406 l 6
 170.434 177.263 170.555 163.053 172.855 149.098 c 4
 175.156 135.143 179.679 121.469 187.012 109.375 c 4
 198.989 89.6211 218.543 74.8301 240.521 67.7129 c 4
 262.498 60.5957 286.298 60.6406 309.082 64.4531 c 4
 360.469 73.0518 408.219 96.9883 452.148 125 c 5
 470.215 74.2188 l 5
 418.348 37.4346 360.214 8.02637 297.852 -4.39453 c 4
 260.406 -11.8525 220.646 -12.0723 184.977 1.54492 c 4
 149.309 15.1631 119.656 43.5742 104.492 78.6133 c 4
 94.6904 101.262 90.4922 125.976 88.8438 150.599 c 4
 87.1963 175.222 87.7031 199.932 87.8906 224.609 c 6
 89.8438 482.422 l 5
  Spiro
    89.8438 482.422 v
    169.922 482.422 v
    170.41 191.406 ]
    187.012 109.375 o
    309.082 64.4531 o
    452.148 125 v
    470.215 74.2188 v
    297.852 -4.39453 o
    104.492 78.6133 o
    87.8906 224.609 [
    0 0 z
  EndSpiro
408.691 482.422 m 5
 488.77 482.422 l 5
 488.77 0 l 5
 432.617 0 l 5
 408.691 56.1523 l 5
 408.691 482.422 l 5
  Spiro
    408.691 482.422 v
    488.77 482.422 v
    488.77 0 v
    432.617 0 v
    408.691 56.1523 v
    0 0 z
  EndSpiro
EndSplineSet
Fore
SplineSet
153 173 m 2
 153 93 180 57 258 57 c 0
 296 57 341 69 390 92 c 1
 390 482 l 1
 473 482 l 1
 473 0 l 1
 415 0 l 1
 399 36 l 1
 338 4 280 -10 229 -10 c 0
 125 -10 70 51 70 153 c 2
 70 482 l 1
 153 482 l 1
 153 173 l 2
EndSplineSet
Validated: 1
Layer: 3
Refer: 5 110 S -1 0 -0 -1 577.3 480.541 2
EndChar

StartChar: p
Encoding: 112 112 15
Width: 552
Flags: MW
AnchorPoint: "cedilla" 274 -261 basechar 0
AnchorPoint: "below" 274 -261 basechar 0
AnchorPoint: "above" 274 482 basechar 0
LayerCount: 4
Back
SplineSet
65.8906 482.422 m 5x60
 121.555 482.422 l 5
 145.969 426.27 l 5
 145.969 -259.277 l 5
 65.8906 -259.277 l 5
 65.8906 482.422 l 5x60
  Spiro
    65.8906 482.422 v
    121.555 482.422 v
    145.969 426.27 v
    145.969 -259.277 v
    65.8906 -259.277 v
    0 0 z
  EndSpiro
262.18 491.211 m 4xa0
 297.49 493.315 333.461 487.986 365.859 473.791 c 4
 398.26 459.594 426.619 436.312 446.75 407.227 c 4
 475.075 366.305 486.877 315.825 489.23 266.113 c 4
 490.905 230.787 488.142 195.127 479.479 160.839 c 4
 470.812 126.55 455.666 93.6201 433.078 66.4062 c 4
 411.271 40.1328 382.717 19.5967 351.047 6.83594 c 4
 314.603 -7.84863 274.4 -12.4121 235.324 -8.30078 c 4
 207.828 -5.4082 180.811 1.67676 155.246 12.207 c 4
 140.56 18.2568 126.344 25.4502 112.766 33.6914 c 5
 139.133 79.5898 l 5
 154.543 72.3799 170.564 66.4688 186.984 62.0117 c 4
 218.082 53.5703 250.928 50.2275 282.688 55.6641 c 4
 303.537 59.2324 323.791 66.7158 341.506 78.2754 c 4
 359.221 89.835 374.239 105.46 385.227 123.535 c 4
 398.771 145.817 406.123 171.467 409.272 197.352 c 4
 412.422 223.236 411.901 249.516 408.664 275.391 c 4
 405.623 299.695 399.828 323.911 388.645 345.703 c 4
 375.239 371.824 353.645 393.656 327.609 407.227 c 4
 299.043 422.116 265.972 427.365 233.859 424.805 c 4
 184.929 420.902 137.852 399.666 101.047 367.188 c 5
 82.4922 412.598 l 5
 131.4 457.892 195.638 487.244 262.18 491.211 c 4xa0
  Spiro
    262.18 491.211 o
    446.75 407.227 o
    489.23 266.113 o
    433.078 66.4062 o
    351.047 6.83594 o
    235.324 -8.30078 o
    155.246 12.207 o
    112.766 33.6914 v
    139.133 79.5898 v
    186.984 62.0117 o
    282.688 55.6641 o
    385.227 123.535 o
    408.664 275.391 o
    388.645 345.703 o
    327.609 407.227 o
    233.859 424.805 o
    101.047 367.188 v
    82.492 412.598 v
    0 0 z
  EndSpiro
EndSplineSet
Fore
SplineSet
262 423 m 0
 213 423 187 412 153 393 c 1
 153 75 l 1
 188 60 224 52 261 52 c 0
 364 52 419 133 419 240 c 0
 419 348 367 423 262 423 c 0
153 -261 m 1
 70 -261 l 1
 70 482 l 1
 129 482 l 1
 144 448 l 1
 187 476 232 494 280 494 c 0
 328 494 368 480 402 459 c 0
 469 416 504 340 504 240 c 0
 504 157 480 98 434 53 c 0
 390 10 335 -10 269 -10 c 0
 230 -10 191 -5 153 11 c 1
 153 -261 l 1
EndSplineSet
Validated: 1
Layer: 3
SplineSet
148.166 427.344 m 1
 124.436 481.396 l 1
 65.5488 481.396 l 1
 65.5488 -261.035 l 1
 148.166 -261.035 l 1
 148.166 427.344 l 1
142.014 13.8184 m 1
 182.004 -3.75977 219.357 -12.5488 264.182 -12.5488 c 0
 392.502 -12.5488 498.41 75.7812 498.41 245.41 c 0
 498.41 389.111 417.99 491.064 279.123 491.064 c 0
 218.918 491.064 171.457 471.729 131.906 443.604 c 1
 131.906 443.604 141.574 389.551 142.014 389.111 c 1
 175.852 408.447 206.174 423.389 257.15 423.389 c 0
 360.422 423.389 413.596 350 413.596 238.818 c 0
 413.596 126.318 356.467 52.0508 256.271 52.0508 c 0
 206.174 52.0508 177.609 61.2793 142.014 77.5391 c 1
 142.014 13.8184 l 1
EndSplineSet
EndChar

StartChar: q
Encoding: 113 113 16
Width: 557
Flags: MW
AnchorPoint: "cedilla" 300 -261 basechar 0
AnchorPoint: "below" 300 -261 basechar 0
AnchorPoint: "above" 300 482 basechar 0
LayerCount: 4
Back
SplineSet
323.383 489.746 m 0xa0
 351.157 485.537 377.869 475.941 403.461 464.355 c 0
 417.921 457.81 432.082 450.609 445.941 442.871 c 1
 419.574 396.973 l 1
 403.955 403.688 387.989 409.607 371.723 414.551 c 0
 340.756 423.963 308.109 429.994 276.02 425.781 c 0
 254.963 423.018 234.457 415.676 216.762 403.93 c 0
 199.068 392.185 184.323 376.172 173.48 357.91 c 0
 159.788 334.848 152.248 308.497 148.943 281.881 c 0
 145.638 255.266 146.15 228.197 150.043 201.66 c 0
 153.368 178.986 159.448 156.54 170.062 136.23 c 0
 183.653 110.225 205.123 88.3574 231.098 74.707 c 0
 259.623 59.7168 292.732 54.4854 324.848 57.1289 c 0
 373.75 61.1543 420.736 82.4316 457.66 114.746 c 1
 476.215 69.3359 l 1
 427.229 24.1465 363.05 -5.21484 296.527 -9.27734 c 0
 261.207 -11.4346 225.211 -6.15723 192.797 8.03906 c 0
 160.385 22.2363 132.045 45.5762 111.957 74.707 c 0
 84.627 114.342 72.6816 162.9 69.4766 210.938 c 0
 67.0684 247.029 69.2471 283.58 77.8457 318.716 c 0
 86.4434 353.852 102.172 387.504 125.629 415.039 c 0
 147.74 440.996 176.266 461.303 207.66 474.609 c 0
 243.945 489.99 284.418 495.649 323.383 489.746 c 0xa0
  Spiro
    323.383 489.746 o
    403.461 464.355 o
    445.941 442.871 v
    419.574 396.973 v
    371.723 414.551 o
    276.02 425.781 o
    173.48 357.91 o
    150.043 201.66 o
    170.062 136.23 o
    231.098 74.707 o
    324.848 57.1289 o
    457.66 114.746 v
    476.215 69.3359 v
    296.527 -9.27734 o
    111.957 74.707 o
    69.4766 210.938 o
    125.629 415.039 o
    207.66 474.609 o
    0 0 z
  EndSpiro
436.176 482.422 m 1x60
 492.328 482.422 l 1
 492.328 -259.277 l 1
 412.25 -259.277 l 1
 412.25 416.504 l 1
 436.176 482.422 l 1x60
  Spiro
    436.176 482.422 v
    492.328 482.422 v
    492.328 -259.277 v
    412.25 -259.277 v
    412.25 416.504 v
    0 0 z
  EndSpiro
EndSplineSet
Fore
SplineSet
399 393 m 1
 365 412 339 423 290 423 c 0
 185 423 133 348 133 240 c 0
 133 133 187 52 291 52 c 0
 328 52 364 60 399 75 c 1
 399 393 l 1
283 -10 m 0
 217 -10 162 10 118 53 c 0
 72 98 48 160 48 243 c 0
 48 343 83 416 150 459 c 0
 184 480 224 494 272 494 c 0
 320 494 365 476 408 448 c 1
 423 482 l 1
 482 482 l 1
 482 -261 l 1
 399 -261 l 1
 399 11 l 1
 361 -5 322 -10 283 -10 c 0
EndSplineSet
Validated: 1
Layer: 3
Refer: 15 112 S -1 0 0 1 582.221 0 2
EndChar

StartChar: m
Encoding: 109 109 17
Width: 797
Flags: HMW
AnchorPoint: "cedilla" 390 0 basechar 0
AnchorPoint: "below" 390 0 basechar 0
AnchorPoint: "above" 390 482 basechar 0
LayerCount: 4
Back
SplineSet
595.82 491.211 m 4xdc
 626.904 492.241 658.613 486.396 685.82 471.333 c 4
 713.032 456.27 734.8 431.849 747.188 403.32 c 4
 757.017 380.684 761.216 355.963 762.852 331.339 c 4
 764.492 306.715 763.975 282.003 763.789 257.324 c 6
 761.836 0 l 5
 681.758 0 l 5
 681.27 290.527 l 6
 681.245 304.672 681.128 318.883 678.828 332.839 c 4
 676.533 346.795 672.017 360.475 664.668 372.559 c 4
 656.147 386.563 643.838 398.232 629.385 405.969 c 4
 614.932 413.705 598.535 417.517 582.148 417.969 c 4
 550.303 418.848 519.326 407.777 490.352 394.531 c 4
 465.908 383.357 442.258 370.51 419.062 356.934 c 5
 386.348 407.715 l 5
 406.153 421.898 426.865 434.826 448.359 446.289 c 4
 494.087 470.676 544.023 489.497 595.82 491.211 c 4xdc
  Spiro
    595.82 491.211 o
    747.188 403.32 o
    763.789 257.324 [
    761.836 0 v
    681.758 0 v
    681.27 290.527 ]
    664.668 372.559 o
    582.148 417.969 o
    490.352 394.531 o
    419.062 356.934 v
    386.348 407.715 v
    448.359 446.289 o
    0 0 z
  EndSpiro
306.27 491.211 m 4
 336.676 492.837 367.805 486.654 394.068 471.247 c 4
 420.332 455.84 440.888 431.362 452.754 403.32 c 4
 462.367 380.6 466.576 355.92 468.287 331.309 c 4
 469.997 306.698 469.543 281.994 469.355 257.324 c 6
 467.402 0 l 5
 387.324 0 l 5
 386.836 290.527 l 6
 386.812 304.668 386.677 318.877 384.361 332.828 c 4
 382.047 346.777 377.532 360.446 370.234 372.559 c 4
 362.174 385.937 350.733 397.279 337.201 405.078 c 4
 323.668 412.877 308.192 417.097 292.598 417.969 c 4
 260.733 419.751 229.669 408.139 200.801 394.531 c 4
 176.495 383.074 152.9 370.162 129.512 356.934 c 5
 111.445 407.715 l 5
 131.508 421.518 152.168 434.465 173.457 446.289 c 4
 214.666 469.176 259.199 488.691 306.27 491.211 c 4
  Spiro
    306.27 491.211 o
    452.754 403.32 o
    469.355 257.324 [
    467.402 0 v
    387.324 0 v
    386.836 290.527 ]
    370.234 372.559 o
    292.598 417.969 o
    200.801 394.531 o
    129.512 356.934 v
    111.445 407.715 v
    173.457 446.289 o
    0 0 z
  EndSpiro
92.8906 482.422 m 5xbc
 149.043 482.422 l 5
 172.969 426.27 l 5
 172.969 0 l 5
 92.8906 0 l 5
 92.8906 482.422 l 5xbc
  Spiro
    92.8906 482.422 v
    149.043 482.422 v
    172.969 426.27 v
    172.969 0 v
    92.8906 0 v
    0 0 z
  EndSpiro
EndSplineSet
Fore
SplineSet
649 307 m 2
 649 381 621 426 554 426 c 0
 520 426 484 411 437 383 c 1
 441 369 442 350 442 327 c 2
 442 0 l 1
 360 0 l 1
 360 307 l 2
 360 381 333 426 265 426 c 0
 234 426 196 413 153 389 c 1
 153 0 l 1
 70 0 l 1
 70 482 l 1
 128 482 l 1
 144 444 l 1
 194 476 231 494 291 494 c 0
 348 494 391 466 416 430 c 1
 465 464 515 494 580 494 c 0
 681 494 732 424 732 327 c 2
 732 0 l 1
 649 0 l 1
 649 307 l 2
EndSplineSet
Validated: 1
Layer: 3
SplineSet
425.898 360.352 m 1
 445.133 374.965 465.754 387.759 487.422 398.438 c 0
 502.012 405.629 517.065 411.93 532.568 416.855 c 0
 552.358 423.142 573.257 427.123 593.887 424.773 c 0
 607.695 423.201 621.216 418.727 632.993 411.355 c 0
 647.441 402.319 659.062 388.906 666.147 373.41 c 0
 675.571 352.801 676.421 329.451 676.421 306.789 c 2
 676.421 0 l 1
 757.593 0 l 1
 757.593 326.428 l 2
 757.593 341.562 757.275 356.771 754.59 371.668 c 0
 751.904 386.563 747.041 401.066 740.142 414.539 c 0
 728.081 438.086 709.702 458.561 686.855 471.902 c 0
 659.995 487.59 628.096 493.047 596.997 492.261 c 0
 579.546 491.816 562.129 489.37 545.312 484.693 c 0
 526.729 479.523 509.009 471.611 491.988 462.535 c 0
 466.949 449.182 443.066 433.749 419.789 417.52 c 1
 425.898 360.352 l 1
132.93 360.352 m 1
 152.164 374.965 172.785 387.759 194.453 398.438 c 0
 209.045 405.629 224.096 411.93 239.6 416.855 c 0
 259.39 423.142 280.289 427.123 300.92 424.773 c 0
 314.727 423.201 328.245 418.727 340.027 411.355 c 0
 354.473 402.319 366.094 388.906 373.18 373.41 c 0
 382.602 352.801 383.454 329.451 383.454 306.789 c 2
 383.454 0 l 1
 464.625 0 l 1
 464.625 326.428 l 2
 464.625 341.562 464.307 356.771 461.621 371.668 c 0
 458.936 386.563 454.07 401.066 447.171 414.539 c 0
 435.113 438.086 416.732 458.561 393.889 471.902 c 0
 367.025 487.59 335.129 493.047 304.029 492.261 c 0
 286.579 491.816 269.162 489.37 252.345 484.693 c 0
 233.762 479.523 216.037 471.611 199.02 462.535 c 0
 173.98 449.182 150.098 433.749 126.82 417.52 c 1
 132.93 360.352 l 1
151.088 480.041 m 1
 94.3555 480.041 l 1
 94.3555 0 l 1
 176.398 0 l 1
 176.398 423.744 l 1
 151.088 480.041 l 1
EndSplineSet
EndChar

StartChar: c
Encoding: 99 99 18
Width: 456
Flags: MW
AnchorPoint: "cedilla" 278 0 basechar 0
AnchorPoint: "below" 260 0 basechar 0
AnchorPoint: "above" 260 482 basechar 0
LayerCount: 4
Fore
SplineSet
281 -10 m 2
 132 -10 48 80 48 233 c 0
 48 310 72 372 111 419 c 0
 152 468 214 494 298 494 c 0
 337 494 379 481 423 462 c 1
 403 404 l 1
 366 417 331 423 302 423 c 0
 187 423 131 360 131 247 c 0
 131 129 181 70 288 57 c 0
 295 56 302 56 310 56 c 0
 337 56 371 62 402 73 c 1
 421 18 l 1
 375 -1 332 -10 286 -10 c 2
 281 -10 l 2
EndSplineSet
Validated: 1
Layer: 3
SplineSet
290.969 491.211 m 0
 338.848 491.885 386.72 481.529 430.617 462.402 c 1
 411.086 403.809 l 1
 373.501 416.815 333.638 423.965 293.898 422.363 c 0
 271.515 421.461 249.098 417.523 228.396 408.96 c 0
 207.697 400.396 188.924 386.983 174.758 369.629 c 0
 158.768 350.039 148.963 325.914 143.975 301.123 c 0
 138.986 276.333 138.162 250.832 139.602 225.586 c 0
 141.393 194.197 147.071 162.4 162.062 134.766 c 0
 174.225 112.346 192.652 93.418 214.635 80.4814 c 0
 236.617 67.5449 261.707 60.3945 287.062 57.6172 c 0
 327 53.2422 367.806 58.9609 405.715 72.2656 c 1
 425.246 17.0898 l 1
 381.697 0.244141 335.219 -9.44043 288.527 -9.76562 c 0
 253.424 -10.0098 217.982 -4.67188 185.608 8.89941 c 0
 153.233 22.4697 124.4 44.7051 103.957 73.2422 c 0
 88.2686 95.1426 77.5254 120.365 70.9473 146.49 c 0
 64.3672 172.614 61.6914 199.623 61.4766 226.562 c 0
 61.209 260.012 64.584 293.61 73.2148 325.928 c 0
 81.8467 358.244 96.29 389.279 117.629 415.039 c 0
 138.42 440.137 165.572 459.795 195.631 472.389 c 0
 225.691 484.98 258.381 490.752 290.969 491.211 c 0
EndSplineSet
EndChar

StartChar: t
Encoding: 116 116 19
Width: 377
Flags: MW
AnchorPoint: "aboveright" 299 670 basechar 0
AnchorPoint: "cedilla" 230 0 basechar 0
AnchorPoint: "below" 230 0 basechar 0
AnchorPoint: "above" 195 619 basechar 0
LayerCount: 4
Back
SplineSet
80.0625 482.421875 m 5
 372.0546875 482.421875 l 5
 372.0546875 419.43359375 l 5
 80.0625 419.43359375 l 5
 80.0625 482.421875 l 5
  Spiro
    80.0625 482.422 v
    372.055 482.422 v
    372.055 419.434 v
    80.0625 419.434 v
    0 0 z
  EndSpiro
145.00390625 620.60546875 m 5
 225.08203125 620.60546875 l 5
 225.08203125 154.78515625 l 6
 225.08203125 133.482421875 225.767578125 111.390625 235.28515625 92.33203125 c 4
 240.044921875 82.802734375 246.865234375 74.275390625 255.310546875 67.78515625 c 4
 263.755859375 61.294921875 273.747070312 56.9091796875 284.1640625 54.6875 c 4
 302.9140625 50.6884765625 322.380859375 53.5 341.29296875 56.640625 c 4
 353.831054688 58.72265625 366.345703125 60.9501953125 378.890625 62.98828125 c 5
 390.12109375 8.30078125 l 5
 378.291992188 5.314453125 366.411132812 2.53125 354.4765625 0 c 4
 316.2109375 -8.1171875 276.188476562 -14.4755859375 238.265625 -4.8828125 c 4
 222.060546875 -0.783203125 206.560546875 6.3154296875 193.236328125 16.4072265625 c 4
 179.91015625 26.4990234375 168.859375 39.5400390625 160.935546875 54.2587890625 c 4
 153.013671875 68.9775390625 148.245117188 85.267578125 145.86328125 101.811523438 c 4
 143.482421875 118.357421875 143.45703125 135.140625 143.5390625 151.85546875 c 6
 145.00390625 452.1484375 l 5
 145.00390625 620.60546875 l 5
  Spiro
    145.004 620.605 v
    225.082 620.605 v
    225.082 154.785 ]
    284.164 54.6875 o
    341.293 56.6406 o
    378.891 62.9883 v
    390.121 8.30078 v
    354.477 0 o
    238.266 -4.88281 o
    143.539 151.855 [
    145.004 452.148 v
    0 0 z
  EndSpiro
EndSplineSet
Fore
SplineSet
236 -10 m 0
 136 -10 101 48 101 150 c 2
 101 414 l 1
 20 414 l 1
 20 482 l 1
 101 482 l 1
 101 603 l 1
 184 607 l 1
 184 482 l 1
 342 482 l 1
 342 414 l 1
 184 414 l 1
 184 156 l 2
 184 92 198 59 260 59 c 0
 289 59 316 63 342 70 c 1
 342 9 l 1
 305 -3 270 -10 236 -10 c 0
EndSplineSet
Validated: 1
Layer: 3
SplineSet
145.359375 602.65625 m 1
 225.916992188 607.01171875 l 1
 225.916992188 156.322265625 l 2
 225.916992188 91.005859375 244.205078125 59.2177734375 304.296875 59.2177734375 c 0
 336.0859375 59.2177734375 363.083007812 63.572265625 386.162109375 69.66796875 c 1
 386.162109375 8.7060546875 l 1
 356.551757812 -0.875 321.71484375 -9.1474609375 279.912109375 -9.1474609375 c 0
 178.453125 -9.1474609375 145.359375 50.5078125 145.359375 149.791015625 c 2
 145.359375 602.65625 l 1
63.9296875 414.544921875 m 1
 63.9296875 482.91015625 l 1
 385.7265625 482.91015625 l 1
 385.7265625 414.544921875 l 1
 63.9296875 414.544921875 l 1
EndSplineSet
EndChar

StartChar: r
Encoding: 114 114 20
Width: 371
Flags: MW
AnchorPoint: "cedilla" 107 0 basechar 0
AnchorPoint: "below" 107 0 basechar 0
AnchorPoint: "above" 196 482 basechar 0
LayerCount: 4
Back
SplineSet
262.645 491.699 m 0xd0
 297.077 493.013 331.791 486.271 363.23 472.168 c 1
 338.816 408.691 l 1
 313.673 418.455 286.688 423.453 259.715 423.34 c 0
 200.879 423.094 142.572 397.562 102.488 354.492 c 1
 82.957 389.975 l 1
 122.062 449.844 191.188 488.975 262.645 491.699 c 0xd0
  Spiro
    262.645 491.699 o
    363.23 472.168 v
    338.816 408.691 v
    259.715 423.34 o
    102.488 354.492 v
    82.957 389.974 v
    0 0 z
  EndSpiro
64.8906 482.422 m 1xb0
 121.043 482.422 l 1
 144.969 425.781 l 1
 144.969 0 l 1
 64.8906 0 l 1
 64.8906 482.422 l 1xb0
  Spiro
    64.8906 482.422 v
    121.043 482.422 v
    144.969 425.781 v
    144.969 0 v
    64.8906 0 v
    0 0 z
  EndSpiro
EndSplineSet
Fore
SplineSet
280 494 m 0
 303 494 325 488 346 482 c 1
 346 402 l 1
 336 402 l 1
 311 412 287 418 256 418 c 0
 224 418 188 406 153 383 c 1
 153 0 l 1
 70 0 l 1
 70 482 l 1
 130 482 l 1
 146 441 l 1
 189 474 233 494 280 494 c 0
EndSplineSet
Validated: 1
Layer: 3
SplineSet
143.553 380.42 m 1
 179.91 405.824 221.521 418.09 258.317 418.09 c 0
 283.724 418.09 306.501 412.834 331.469 402.32 c 1
 341.105 402.32 l 1
 341.105 480.729 l 1
 320.08 487.299 299.054 490.366 275.4 490.366 c 0
 228.093 490.366 180.348 472.844 134.791 436.487 c 1
 143.553 380.42 l 1
124.717 481.604 m 1
 65.583 481.604 l 1
 65.583 -0.232422 l 1
 147.933 -0.232422 l 1
 147.933 424.223 l 1
 124.717 481.604 l 1
EndSplineSet
EndChar

StartChar: v
Encoding: 118 118 21
Width: 504
Flags: MW
AnchorPoint: "cedilla" 245 0 basechar 0
AnchorPoint: "below" 245 0 basechar 0
AnchorPoint: "above" 245 482 basechar 0
LayerCount: 4
Back
SplineSet
448.242 482.422 m 1
 365.234 482.422 l 1
 219.238 5.85938 l 1
 265.137 5.85938 l 1
 114.746 482.422 l 1
 31.7383 482.422 l 1
 201.66 0 l 1
 279.785 0 l 1
 448.242 482.422 l 1
EndSplineSet
Fore
SplineSet
477 482 m 1
 297 0 l 1
 207 0 l 1
 27 482 l 1
 116 482 l 1
 249 105 l 1
 254 79 l 1
 258 105 l 1
 392 482 l 1
 477 482 l 1
EndSplineSet
Validated: 1
Layer: 3
SplineSet
470.039 484.109 m 1
 290.039 0 l 1
 202.019 0 l 1
 22.0186 484.109 l 1
 110.037 484.109 l 1
 242.948 105.623 l 1
 247.789 78.7773 l 1
 252.189 105.623 l 1
 385.541 484.109 l 1
 470.039 484.109 l 1
EndSplineSet
EndChar

StartChar: k
Encoding: 107 107 22
Width: 504
Flags: MW
AnchorPoint: "cedilla" 397 0 basechar 0
AnchorPoint: "below" 259 0 basechar 0
AnchorPoint: "above" 259 670 basechar 0
LayerCount: 4
Fore
SplineSet
75 671 m 1
 158 671 l 1
 158 0 l 1
 75 0 l 1
 75 671 l 1
379 482 m 1
 474 482 l 1
 264 267 l 1
 484 0 l 1
 384 0 l 1
 166 267 l 1
 379 482 l 1
EndSplineSet
Validated: 1
Layer: 3
SplineSet
385.672 492.188 m 1
 474.051 492.188 l 1
 242.117 252.441 l 1
 242.117 301.758 l 1
 486.746 0 l 1
 390.555 0 l 1
 172.781 266.602 l 1
 385.672 492.188 l 1
84.8906 737.793 m 1
 164.969 737.793 l 1
 164.969 0 l 1
 84.8906 0 l 1
 84.8906 737.793 l 1
EndSplineSet
EndChar

StartChar: j
Encoding: 106 106 23
Width: 219
Flags: MW
AnchorPoint: "cedilla" 48 -232 basechar 0
AnchorPoint: "below" 110 -261 basechar 0
AnchorPoint: "above" 110 670 basechar 0
LayerCount: 4
Fore
SplineSet
69 -78 m 2
 69 -68 l 1
 69 482 l 1
 152 482 l 1
 152 -64 l 2
 152 -132 148 -143 130 -180 c 0
 110 -221 68 -247 23 -263 c 1
 -10 -202 l 1
 43 -177 69 -136 69 -78 c 2
69 671 m 1
 152 671 l 1
 152 587 l 1
 69 587 l 1
 69 671 l 1
EndSplineSet
Validated: 1
Layer: 3
SplineSet
84.8057 669.595 m 5
 167.4 669.595 l 5
 167.4 586.562 l 5
 84.8057 586.562 l 5
 84.8057 669.595 l 5
167.969 -63.9648 m 2
 167.969 -116.699 169.434 -214.844 38.0859 -262.695 c 1
 7.8125 -202.148 l 1
 95.2148 -161.133 86.9141 -80.0781 86.9141 -68.3594 c 2
 85.9375 482.422 l 1
 166.016 482.422 l 1
 167.969 -63.9648 l 2
EndSplineSet
EndChar

StartChar: x
Encoding: 120 120 24
Width: 511
Flags: MW
AnchorPoint: "cedilla" 256 0 basechar 0
AnchorPoint: "below" 256 0 basechar 0
AnchorPoint: "above" 256 482 basechar 0
LayerCount: 4
Fore
SplineSet
128 482 m 1
 257 302 l 1
 386 482 l 1
 479 482 l 1
 304 241 l 1
 476 0 l 1
 377 0 l 1
 252 177 l 1
 128 0 l 1
 37 0 l 1
 206 239 l 1
 32 482 l 1
 128 482 l 1
EndSplineSet
Validated: 1
Layer: 3
SplineSet
31.7383 482.422 m 25
 124.512 482.422 l 25
 468.262 0 l 25
 375.488 0 l 25
 31.7383 482.422 l 25
392.09 482.422 m 9
 477.539 482.422 l 17
 294.434 228.516 l 1
 273.438 221.191 l 1
 123.047 0 l 1
 37.5977 0 l 1
 230.851 270.508 l 1
 251.162 276.855 l 1
 392.09 482.422 l 9
EndSplineSet
EndChar

StartChar: z
Encoding: 122 122 25
Width: 485
Flags: MW
AnchorPoint: "cedilla" 233 0 basechar 0
AnchorPoint: "below" 233 0 basechar 0
AnchorPoint: "above" 233 482 basechar 0
LayerCount: 4
Fore
SplineSet
55 482 m 1
 423 482 l 1
 423 440 l 1
 161 63 l 1
 435 63 l 1
 435 0 l 1
 55 0 l 1
 55 42 l 1
 316 419 l 1
 55 419 l 1
 55 482 l 1
EndSplineSet
Validated: 1
Layer: 3
SplineSet
50.2422 482.422 m 29
 417.918 482.422 l 21
 417.918 439.941 l 5
 154.246 62.9883 l 13
 430.125 62.9883 l 29
 430.125 0 l 29
 50.2422 0 l 21
 50.2422 42.4805 l 5
 312.938 419.434 l 13
 50.2422 419.434 l 29
 50.2422 482.422 l 29
EndSplineSet
EndChar

StartChar: y
Encoding: 121 121 26
Width: 517
Flags: MW
AnchorPoint: "cedilla" 256 -261 basechar 0
AnchorPoint: "below" 256 -261 basechar 0
AnchorPoint: "above" 256 482 basechar 0
LayerCount: 4
Fore
SplineSet
408 482 m 1
 487 482 l 1
 211 -259 l 1
 127 -259 l 1
 219 -25 l 1
 25 482 l 1
 112 482 l 1
 260 82 l 1
 408 482 l 1
EndSplineSet
Validated: 1
Layer: 3
SplineSet
102.539 482.422 m 1
 271.484 27.3438 l 1
 262.695 -48.8281 l 1
 241.211 -75.1953 l 1
 21.9727 482.422 l 1
 102.539 482.422 l 1
405.273 482.422 m 1
 480.957 482.422 l 1
 205.078 -259.277 l 1
 119.629 -259.277 l 1
 236.816 24.9023 l 1
 405.273 482.422 l 1
EndSplineSet
EndChar

StartChar: f
Encoding: 102 102 27
Width: 355
Flags: HMW
AnchorPoint: "cedilla" 137 0 basechar 0
AnchorPoint: "below" 245 0 basechar 0
AnchorPoint: "above" 245 679 basechar 0
LayerCount: 4
Fore
SplineSet
281 642 m 0
 208 642 178 601 178 537 c 2
 178 482 l 1
 337 482 l 1
 337 419 l 1
 179 419 l 1
 179 0 l 1
 96 0 l 1
 96 419 l 1
 25 419 l 1
 25 482 l 1
 95 482 l 1
 95 540 l 2
 95 655 153 706 256 706 c 0
 297 706 338 698 372 688 c 1
 359 628 l 1
 328 637 303 642 281 642 c 0
EndSplineSet
Validated: 1
Layer: 3
SplineSet
230.957 687.988 m 0
 269.694 700.742 311.797 699.424 352.051 692.871 c 0
 372.523 689.541 392.756 684.756 412.598 678.711 c 1
 400.391 619.141 l 1
 390.569 621.855 380.629 624.146 370.605 625.977 c 0
 339.207 631.714 306.098 633.809 275.879 623.535 c 0
 256.685 617.007 239.143 604.536 228.805 587.1 c 0
 223.635 578.379 220.302 568.628 218.586 558.638 c 0
 216.871 548.647 216.778 538.457 216.797 528.32 c 2
 217.773 0 l 1
 136.719 0 l 1
 135.742 531.25 l 2
 135.712 547.847 135.84 564.517 138.504 580.898 c 0
 141.167 597.28 146.365 613.315 154.57 627.739 c 0
 170.982 656.587 199.432 677.607 230.957 687.988 c 0
65.918 482.422 m 1
 378.418 482.422 l 1
 378.418 419.434 l 1
 65.918 419.434 l 1
 65.918 482.422 l 1
EndSplineSet
EndChar

StartChar: G
Encoding: 71 71 28
Width: 709
Flags: MW
LayerCount: 4
Back
SplineSet
592 581 m 5
 543 607 464 630 405 630 c 4
 354 630 307 616 266 589 c 4
 184 535 146 454 146 348 c 4
 146 233 202 145 278 101 c 4
 321 76 372 64 430 64 c 4
 483 64 537 83 576 115 c 5
 576 298 l 5
 379 298 l 5
 379 366 l 5
 654 366 l 5
 654 89 l 5
 610 45 538 -9 399 -9 c 4
 251 -9 154 62 99 164 c 4
 70 218 55 277 55 341 c 4
 55 487 127 600 222 656 c 4
 274 687 332 702 397 702 c 4
 489 702 558 680 625 643 c 5
 592 581 l 5
EndSplineSet
Fore
SplineSet
592 581 m 1
 543 607 464 630 405 630 c 0
 354 630 307 616 266 589 c 0
 184 535 146 454 146 348 c 0
 146 233 202 145 278 101 c 0
 321 76 362 64 420 64 c 0
 473 64 537 83 576 115 c 1
 576 298 l 1
 379 298 l 1
 379 366 l 1
 654 366 l 1
 654 89 l 1
 610 45 528 -10 389 -10 c 0
 261 -10 154 62 99 164 c 0
 70 218 55 277 55 341 c 0
 55 487 127 600 222 656 c 0
 274 687 332 706 397 706 c 0
 489 706 558 680 625 643 c 1
 592 581 l 1
EndSplineSet
Validated: 1
Layer: 3
SplineSet
453.73 699.219 m 0
 479.6 699.18 505.459 696.816 530.928 692.271 c 0
 556.519 687.7 581.714 680.918 606.182 672.139 c 0
 630.557 663.394 654.219 652.671 676.875 640.137 c 1
 644.16 578.125 l 1
 627.07 586.963 609.395 594.648 591.284 601.143 c 0
 570.317 608.657 548.789 614.604 526.938 618.901 c 0
 502.998 623.608 478.615 626.318 454.219 625.977 c 0
 404.34 625.283 354.637 610.664 312.824 583.457 c 0
 278.197 560.928 248.969 530.093 228.645 494.126 c 0
 205.316 452.842 193.889 405.32 192.988 357.91 c 0
 191.984 305.081 203.642 251.745 228.707 205.23 c 0
 252.04 161.933 287.533 125.195 330.345 100.984 c 0
 373.779 76.4199 423.851 64.126 473.75 63.9648 c 0
 508.403 63.8535 543.359 69.957 574.824 84.4727 c 0
 594.385 93.4961 612.471 105.725 628.047 120.605 c 1
 628.047 297.852 l 1
 430.781 297.852 l 1
 430.781 366.211 l 1
 708.613 366.211 l 1
 706.172 93.75 l 1
 678.872 62.7617 644.727 37.917 607.051 20.9961 c 0
 557.983 -1.04199 503.608 -9.91309 449.824 -9.27734 c 0
 387.889 -8.54492 325.252 5.03125 271.867 36.4424 c 0
 222.086 65.7344 182.038 110.319 155.039 161.381 c 0
 124.426 219.281 109.273 285.094 109.98 350.586 c 0
 110.635 411.207 125.051 471.839 153.227 525.518 c 0
 180.754 577.959 222.129 623.428 273.184 653.447 c 0
 327.346 685.293 390.898 699.312 453.73 699.219 c 0
EndSplineSet
EndChar

StartChar: H
Encoding: 72 72 29
Width: 721
Flags: MW
AnchorPoint: "below" 365 0 basechar 0
AnchorPoint: "cedilla" 365 0 basechar 0
AnchorPoint: "above" 365 670 basechar 0
LayerCount: 4
Back
SplineSet
553 692 m 5
 636 692 l 5
 636 0 l 5
 553 0 l 5
 553 311 l 5
 168 311 l 5
 168 0 l 5
 85 0 l 5
 85 692 l 5
 168 692 l 5
 168 386 l 5
 553 386 l 5
 553 692 l 5
169.316 394.531 m 5xea
 639.043 394.531 l 5
 639.043 321.289 l 5
 169.316 321.289 l 5
 169.316 394.531 l 5xea
590.703 693.848 m 5xe4
 673.711 693.848 l 5
 673.711 0 l 5
 590.703 0 l 5
 590.703 693.848 l 5xe4
136.602 693.848 m 5xf0
 219.609 693.848 l 5
 219.609 0 l 5
 136.602 0 l 5
 136.602 693.848 l 5xf0
EndSplineSet
Fore
SplineSet
553 694 m 1
 636 694 l 1
 636 0 l 1
 553 0 l 1
 553 310 l 1
 168 310 l 1
 168 0 l 1
 85 0 l 1
 85 694 l 1
 168 694 l 1
 168 384 l 1
 553 384 l 1
 553 694 l 1
EndSplineSet
Validated: 1
Layer: 3
SplineSet
591.191 692.505 m 5
 679.287 692.505 l 5
 679.287 0 l 5
 591.191 0 l 5
 591.191 311.06 l 5
 206.566 311.06 l 5
 206.566 0 l 5
 118.471 0 l 5
 118.471 692.505 l 5
 206.566 692.505 l 5
 206.566 385.986 l 5
 591.191 385.986 l 5
 591.191 692.505 l 5
EndSplineSet
EndChar

StartChar: g
Encoding: 103 103 30
Width: 555
Flags: MW
AnchorPoint: "above" 279 482 basechar 0
AnchorPoint: "below" 279 -261 basechar 0
AnchorPoint: "cedilla" 279 -261 basechar 0
LayerCount: 4
Fore
SplineSet
397 23 m 1
 356 1 317 -10 269 -10 c 0
 186 -10 129 26 92 80 c 0
 64 121 48 170 48 233 c 0
 48 356 105 438 193 475 c 0
 219 486 246 491 274 491 c 0
 310 491 348 482 388 464 c 2
 411 454 l 1
 421 482 l 1
 480 482 l 1
 480 -23 l 2
 480 -113 461 -159 413 -205 c 0
 374 -242 312 -265 238 -265 c 0
 191 -265 131 -251 91 -233 c 1
 113 -175 l 1
 155 -190 193 -200 228 -200 c 0
 329 -200 385 -147 395 -60 c 0
 397 -46 397 -22 397 9 c 2
 397 23 l 1
289 56 m 0
 331 56 366 66 397 83 c 1
 397 400 l 1
 355 417 318 425 285 425 c 0
 181 425 131 349 131 244 c 0
 131 166 162 103 215 74 c 0
 237 62 263 56 289 56 c 0
EndSplineSet
Validated: 1
Layer: 3
SplineSet
422.176 482.422 m 1
 478.328 482.422 l 1
 478.328 -23.4375 l 2
 478.328 -55.9824 477.205 -88.998 467.389 -120.027 c 0
 457.574 -151.057 439.588 -179.42 415.828 -201.66 c 0
 388.546 -227.197 354.27 -244.727 318.172 -254.395 c 0
 256.973 -270.787 191.247 -265.634 130.672 -247.07 c 0
 117.424 -243.011 104.382 -238.281 91.6094 -232.91 c 1
 114.07 -174.805 l 1
 126.232 -179.332 138.622 -183.25 151.18 -186.523 c 0
 176.986 -193.251 203.559 -197.364 230.229 -197.434 c 0
 256.896 -197.502 283.797 -193.383 308.406 -183.105 c 0
 337.494 -170.958 362.827 -149.354 377.742 -121.582 c 0
 388.265 -101.989 393.643 -79.9688 396.046 -57.8594 c 0
 398.45 -35.75 398.25 -13.4502 398.25 8.78906 c 2
 398.25 416.504 l 1
 422.176 482.422 l 1
309.383 489.746 m 0
 337.156 485.535 363.869 475.939 389.461 464.355 c 0
 403.922 457.81 418.083 450.609 431.941 442.871 c 1
 405.574 396.973 l 1
 389.951 403.679 373.986 409.599 357.723 414.551 c 0
 326.758 423.979 294.105 430.043 262.02 425.781 c 0
 240.978 422.986 220.504 415.594 202.829 403.84 c 0
 185.154 392.086 170.4 376.113 159.48 357.91 c 0
 145.924 335.312 138.203 309.52 134.809 283.385 c 0
 131.413 257.252 132.027 230.635 136.043 204.59 c 0
 139.533 181.956 145.763 159.615 156.062 139.16 c 0
 169.578 112.318 190.725 89.1172 217.098 74.707 c 0
 245.416 59.2344 278.717 54.1406 310.848 57.1289 c 0
 359.631 61.666 406.256 83.1035 443.66 114.746 c 1
 462.215 69.3359 l 1
 413.827 23.3477 349.205 -6.0459 282.527 -9.27734 c 0
 246.996 -10.999 210.898 -5.05566 178.535 9.70996 c 0
 146.171 24.4756 117.996 48.2441 97.957 77.6367 c 0
 70.8438 117.406 58.668 165.842 55.4766 213.867 c 0
 53.1104 249.48 55.4004 285.551 64.0791 320.172 c 0
 72.7578 354.792 88.4629 387.887 111.629 415.039 c 0
 133.76 440.979 162.271 461.295 193.66 474.609 c 0
 229.941 490 270.418 495.654 309.383 489.746 c 0
EndSplineSet
EndChar

StartChar: O
Encoding: 79 79 31
Width: 762
Flags: MW
AnchorPoint: "cedilla" 383 0 basechar 0
AnchorPoint: "below" 383 0 basechar 0
AnchorPoint: "above" 383 670 basechar 0
LayerCount: 4
Back
SplineSet
381 700 m 4
 523 700 617 630 667 532 c 4
 694 479 707 416 707 346 c 4
 707 276 694 213 667 160 c 4
 617 62 523 -8 381 -8 c 4
 239 -8 145 62 95 160 c 4
 68 213 55 276 55 346 c 4
 55 416 68 479 95 532 c 4
 145 630 239 700 381 700 c 4
381 65 m 4
 494 65 551 128 586 202 c 4
 606 244 616 292 616 346 c 4
 616 400 606 448 586 490 c 4
 551 564 494 627 381 627 c 4
 268 627 211 564 176 490 c 4
 156 448 146 400 146 346 c 4
 146 292 156 244 176 202 c 4
 211 128 268 65 381 65 c 4
430.781 628.418 m 4
 366.807 628.066 303.066 600.322 260.859 552.246 c 4
 236.48 524.478 219.299 490.771 208.924 455.305 c 4
 198.55 419.838 194.581 382.646 195.43 345.703 c 4
 196.991 277.713 215.051 208.352 256.953 154.785 c 4
 278.873 126.764 307.15 103.687 339.205 88.251 c 4
 371.258 72.8145 406.926 64.9824 442.5 65.4297 c 4
 477.126 65.8652 511.67 74.1562 542.563 89.8008 c 4
 573.457 105.445 600.518 128.484 621.211 156.25 c 4
 661.216 209.926 676.797 278.76 676.875 345.703 c 4
 676.943 404.287 665.132 463.989 634.883 514.16 c 4
 613.818 549.102 583.726 578.623 548.081 598.481 c 4
 512.441 618.345 471.58 628.643 430.781 628.418 c 4
  Spiro
    260.859 552.246 o
    195.43 345.703 o
    256.953 154.785 o
    442.5 65.4297 o
    621.211 156.25 o
    676.875 345.703 o
    634.883 514.16 o
    430.781 628.418 o
    0 0 z
  EndSpiro
440.059 701.172 m 4
 484.1 700.747 528.159 692.344 568.857 675.513 c 4
 609.556 658.682 646.724 633.14 676.387 600.586 c 4
 707.319 566.641 729.829 525.391 743.691 481.605 c 4
 757.554 437.822 763.208 391.62 762.324 345.703 c 4
 761.362 295.709 752.705 245.682 734.81 198.988 c 4
 716.919 152.295 689.214 109.1 652.461 75.1953 c 4
 593.594 20.8945 512.822 -7.39258 432.734 -7.32422 c 4
 350.117 -7.25391 266.688 23.2676 208.125 81.543 c 4
 173.952 115.549 148.703 158.05 132.832 203.572 c 4
 116.96 249.094 109.936 297.493 109.98 345.703 c 4
 110.028 396.167 117.801 446.833 135.207 494.199 c 4
 152.611 541.567 180.283 585.439 217.402 619.629 c 4
 276.945 674.473 359.111 701.958 440.059 701.172 c 4
  Spiro
    676.387 600.586 o
    762.324 345.703 o
    652.461 75.1953 o
    432.734 -7.32422 o
    208.125 81.543 o
    109.98 345.703 o
    217.402 619.629 o
    440.059 701.172 o
    0 0 z
  EndSpiro
EndSplineSet
Fore
SplineSet
381 706 m 0
 523 706 617 630 667 532 c 0
 694 479 707 416 707 346 c 0
 707 276 694 217 667 164 c 0
 617 66 523 -10 381 -10 c 0
 239 -10 145 66 95 164 c 0
 68 217 55 276 55 346 c 0
 55 416 68 479 95 532 c 0
 145 630 239 706 381 706 c 0
381 70 m 0
 494 70 551 132 586 206 c 0
 606 248 616 292 616 346 c 0
 616 400 606 448 586 490 c 0
 551 564 494 626 381 626 c 0
 268 626 211 564 176 490 c 0
 156 448 146 400 146 346 c 0
 146 292 156 248 176 206 c 0
 211 132 268 70 381 70 c 0
EndSplineSet
Validated: 1
Layer: 3
SplineSet
105.176 345.959 m 0
 105.176 132.955 234.186 -7.65625 434.197 -7.65625 c 0
 632.817 -7.65625 762.754 132.955 762.754 345.959 c 0
 762.754 558.965 632.817 700.039 434.197 700.039 c 0
 234.186 700.039 105.176 558.965 105.176 345.959 c 0
198.917 345.959 m 0
 198.917 508.848 295.442 625.791 434.197 625.791 c 0
 572.021 625.791 669.014 508.848 669.014 345.959 c 0
 669.014 183.537 572.021 66.5938 434.197 66.5938 c 0
 295.442 66.5938 198.917 183.537 198.917 345.959 c 0
EndSplineSet
EndChar

StartChar: A
Encoding: 65 65 32
Width: 609
Flags: MW
AnchorPoint: "cedilla" 304 0 basechar 0
AnchorPoint: "below" 304 0 basechar 0
AnchorPoint: "above" 304 670 basechar 0
LayerCount: 4
Back
SplineSet
585 0 m 5
 492 0 l 5
 426 202 l 5
 162 202 l 5
 96 0 l 5
 10 0 l 5
 246 694 l 5
 348 694 l 5
 585 0 l 5
294 606 m 5
 186 275 l 5
 402 275 l 5
 294 606 l 5
EndSplineSet
Fore
SplineSet
592 0 m 1
 499 0 l 1
 433 202 l 1
 169 202 l 1
 103 0 l 1
 17 0 l 1
 253 694 l 1
 355 694 l 1
 592 0 l 1
301 606 m 1
 193 276 l 1
 409 276 l 1
 301 606 l 1
EndSplineSet
Validated: 1
Layer: 3
SplineSet
343.298 612.891 m 1
 225.576 274.414 l 1
 461.26 274.414 l 1
 343.298 612.891 l 1
300.059 693.848 m 1
 394.297 693.848 l 1
 640.879 0 l 1
 556.895 0 l 1
 486.616 201.66 l 1
 200.273 201.66 l 1
 130.137 0 l 1
 53.4766 0 l 1
 300.059 693.848 l 1
EndSplineSet
EndChar

StartChar: L
Encoding: 76 76 33
Width: 504
Flags: MW
AnchorPoint: "aboveright" 359 670 basechar 0
AnchorPoint: "below" 255 0 basechar 0
AnchorPoint: "cedilla" 255 0 basechar 0
AnchorPoint: "above" 255 670 basechar 0
LayerCount: 4
Fore
SplineSet
85 694 m 1
 168 694 l 1
 168 73 l 1
 479 73 l 1
 479 0 l 1
 85 0 l 1
 85 694 l 1
EndSplineSet
Validated: 1
Layer: 3
SplineSet
179.316 72.7539 m 5
 541.133 72.7539 l 5
 541.133 0 l 5
 179.316 0 l 5
 179.316 72.7539 l 5
146.602 693.848 m 5
 229.609 693.848 l 5
 229.609 0 l 5
 146.602 0 l 5
 146.602 693.848 l 5
EndSplineSet
EndChar

StartChar: E
Encoding: 69 69 34
Width: 551
Flags: MW
AnchorPoint: "below" 289 0 basechar 0
AnchorPoint: "cedilla" 289 0 basechar 0
AnchorPoint: "above" 289 670 basechar 0
LayerCount: 4
Back
SplineSet
85 0 m 5
 85 694 l 5
 220.333 693.977 355.667 694.794 491 694 c 5
 491 621 l 5
 168 621 l 5
 168 394 l 5
 464 394 l 5
 464 321 l 5
 168 321 l 5
 168 73 l 5
 491 73 l 5
 491 0 l 5
 85 0 l 5
EndSplineSet
Fore
SplineSet
85 0 m 1
 85 694 l 1
 491 694 l 1
 491 620 l 1
 168 620 l 1
 168 395 l 1
 464 395 l 1
 464 321 l 1
 168 321 l 1
 168 74 l 1
 491 74 l 1
 491 0 l 1
 85 0 l 1
EndSplineSet
Validated: 1
Layer: 3
SplineSet
146.602 394.043 m 5
 526.484 394.043 l 5
 526.484 320.801 l 5
 146.602 320.801 l 5
 146.602 394.043 l 5
146.602 693.848 m 5
 553.34 693.848 l 5
 553.34 620.605 l 5
 146.602 620.605 l 5
 146.602 693.848 l 5
146.602 73.2422 m 5
 553.34 73.2422 l 5
 553.34 0 l 5
 146.602 0 l 5
 146.602 73.2422 l 5
146.602 693.848 m 5
 229.609 693.848 l 5
 229.609 0 l 5
 146.602 0 l 5
 146.602 693.848 l 5
EndSplineSet
EndChar

StartChar: F
Encoding: 70 70 35
Width: 531
Flags: MW
AnchorPoint: "cedilla" 127 0 basechar 0
AnchorPoint: "below" 289 0 basechar 0
AnchorPoint: "above" 289 670 basechar 0
LayerCount: 4
Back
SplineSet
168 621 m 5
 168 394 l 5
 457 394 l 5
 457 321 l 5
 168 321 l 5
 168 0 l 5
 85 0 l 5
 85 694 l 5
 486 694 l 5
 486 621 l 5
 168 621 l 5
EndSplineSet
Fore
SplineSet
168 621 m 1
 168 394 l 1
 457 394 l 1
 457 321 l 1
 168 321 l 1
 168 0 l 1
 85 0 l 1
 85 694 l 1
 486 694 l 1
 486 621 l 1
 168 621 l 1
EndSplineSet
Validated: 1
Layer: 3
SplineSet
179.316 394.043 m 1
 519.16 394.043 l 1
 519.16 320.801 l 1
 179.316 320.801 l 1
 179.316 394.043 l 1
179.316 693.848 m 1
 548.457 693.848 l 1
 548.457 620.605 l 1
 179.316 620.605 l 1
 179.316 693.848 l 1
146.602 693.848 m 1
 229.609 693.848 l 1
 229.609 0 l 1
 146.602 0 l 1
 146.602 693.848 l 1
EndSplineSet
EndChar

StartChar: N
Encoding: 78 78 36
Width: 736
Flags: MW
AnchorPoint: "below" 369 0 basechar 0
AnchorPoint: "cedilla" 369 0 basechar 0
AnchorPoint: "above" 369 670 basechar 0
LayerCount: 4
Back
SplineSet
85 694 m 5
 190 694 l 5
 568 113 l 5
 568 694 l 5
 651 694 l 5
 651 0 l 5
 546 0 l 5
 168 582 l 5
 168 0 l 5
 85 0 l 5
 85 694 l 5
EndSplineSet
Fore
SplineSet
85 694 m 1
 190 694 l 1
 568 113 l 1
 568 694 l 1
 651 694 l 1
 651 0 l 1
 546 0 l 1
 168 582 l 1
 168 0 l 1
 85 0 l 1
 85 694 l 1
EndSplineSet
Validated: 1
Layer: 3
SplineSet
146.602 693.848 m 1
 251.582 693.848 l 1
 663.691 60.5469 l 1
 629.512 60.5469 l 1
 629.512 693.848 l 1
 712.52 693.848 l 1
 712.52 0 l 1
 607.539 0 l 1
 190.171 642.09 l 1
 229.609 642.09 l 1
 229.609 0 l 1
 146.602 0 l 1
 146.602 693.848 l 1
EndSplineSet
EndChar

StartChar: V
Encoding: 86 86 37
Width: 607
Flags: MW
AnchorPoint: "cedilla" 304 0 basechar 0
AnchorPoint: "below" 304 0 basechar 0
AnchorPoint: "above" 304 670 basechar 0
LayerCount: 4
Back
SplineSet
10 694 m 5
 109 694 l 5
 307 88 l 5
 505 694 l 5
 597 694 l 5
 355 0 l 5
 252 0 l 5
 10 694 l 5
EndSplineSet
Fore
SplineSet
10 694 m 1
 109 694 l 1
 307 88 l 1
 505 694 l 1
 597 694 l 1
 355 0 l 1
 252 0 l 1
 10 694 l 1
EndSplineSet
Validated: 1
Layer: 3
SplineSet
68.3594 693.848 m 5
 166.992 693.848 l 5
 391.113 9.27734 l 5
 339.844 9.27734 l 5
 563.477 693.848 l 5
 654.785 693.848 l 5
 413.086 0 l 5
 310.059 0 l 5
 68.3594 693.848 l 5
EndSplineSet
EndChar

StartChar: Z
Encoding: 90 90 38
Width: 568
Flags: MW
AnchorPoint: "cedilla" 304 0 basechar 0
AnchorPoint: "below" 304 0 basechar 0
AnchorPoint: "above" 304 670 basechar 0
LayerCount: 4
Back
SplineSet
44 694 m 5
 575 694 l 5
 575 641 l 5
 140 73 l 5
 578 73 l 5
 578 0 l 5
 30 0 l 5
 30 54 l 5
 456 621 l 5
 44 621 l 5
 44 694 l 5
EndSplineSet
Fore
SplineSet
44 694 m 1
 535 694 l 1
 535 641 l 1
 135 73 l 1
 538 73 l 1
 538 0 l 1
 30 0 l 1
 30 54 l 1
 429 621 l 1
 44 621 l 1
 44 694 l 1
EndSplineSet
Validated: 1
Layer: 3
SplineSet
110.332 693.848 m 29
 640.605 693.848 l 17
 640.605 640.625 l 1
 206.035 73.2422 l 9
 653.789 73.2422 l 25
 653.789 0 l 25
 95.6836 0 l 17
 95.6836 54.1992 l 1
 521.953 620.605 l 9
 110.332 620.605 l 29
 110.332 693.848 l 29
EndSplineSet
EndChar

StartChar: T
Encoding: 84 84 39
Width: 566
VWidth: 1023
Flags: MW
AnchorPoint: "cedilla" 283 0 basechar 0
AnchorPoint: "below" 283 0 basechar 0
AnchorPoint: "above" 283 670 basechar 0
LayerCount: 4
Fore
SplineSet
10 694 m 1
 556 694 l 1
 556 621 l 1
 324 621 l 1
 324 0 l 1
 241 0 l 1
 241 621 l 1
 10 621 l 1
 10 694 l 1
EndSplineSet
Validated: 1
Layer: 3
SplineSet
356.445 0 m 5
 273.438 0 l 5
 273.438 680.176 l 5
 356.445 680.176 l 5
 356.445 0 l 5
41.5039 693.848 m 5
 588.379 693.848 l 5
 588.379 620.605 l 5
 41.5039 620.605 l 5
 41.5039 693.848 l 5
EndSplineSet
EndChar

StartChar: I
Encoding: 73 73 40
Width: 283
Flags: MW
AnchorPoint: "cedilla" 142 0 basechar 0
AnchorPoint: "below" 142 0 basechar 0
AnchorPoint: "above" 142 670 basechar 0
LayerCount: 4
Back
SplineSet
100 694 m 5
 183 694 l 5
 183 0 l 5
 100 0 l 5
 100 694 l 5
EndSplineSet
Fore
SplineSet
100 694 m 1
 183 694 l 1
 183 0 l 1
 100 0 l 1
 100 694 l 1
EndSplineSet
Validated: 1
Layer: 3
SplineSet
176.25 693.848 m 5
 259.258 693.848 l 5
 259.258 0 l 5
 176.25 0 l 5
 176.25 693.848 l 5
EndSplineSet
EndChar

StartChar: X
Encoding: 88 88 41
Width: 619
Flags: MW
AnchorPoint: "cedilla" 310 0 basechar 0
AnchorPoint: "below" 310 0 basechar 0
AnchorPoint: "above" 310 670 basechar 0
LayerCount: 4
Back
SplineSet
487 694 m 5
 582 694 l 5
 363 364 l 5
 609 0 l 5
 502 0 l 5
 307 292 l 5
 112 0 l 5
 10 0 l 5
 260 362 l 5
 39 694 l 5
 140 694 l 5
 316 433 l 5
 487 694 l 5
EndSplineSet
Fore
SplineSet
487 694 m 1
 582 694 l 1
 363 364 l 1
 609 0 l 1
 502 0 l 1
 307 292 l 1
 112 0 l 1
 10 0 l 1
 260 362 l 1
 39 694 l 1
 140 694 l 1
 316 433 l 1
 487 694 l 1
EndSplineSet
Validated: 1
Layer: 3
SplineSet
83.0078 693.848 m 9
 183.594 693.848 l 25
 653.32 0 l 25
 545.898 0 l 17
 83.0078 693.848 l 9
530.762 693.848 m 9
 626.465 693.848 l 17
 386.23 333.984 l 1
 372.07 324.219 l 1
 156.25 0 l 1
 53.7109 0 l 1
 315.918 379.395 l 1
 332.031 389.16 l 1
 530.762 693.848 l 9
EndSplineSet
EndChar

StartChar: Y
Encoding: 89 89 42
Width: 564
Flags: MW
AnchorPoint: "below" 284 0 basechar 0
AnchorPoint: "cedilla" 284 0 basechar 0
AnchorPoint: "above" 284 670 basechar 0
LayerCount: 4
Back
SplineSet
322 0 m 5
 239 0 l 5
 239 329 l 5
 10 694 l 5
 108 694 l 5
 285 407 l 5
 465 694 l 5
 558 694 l 5
 322 329 l 5
 322 0 l 5
EndSplineSet
Fore
SplineSet
320 0 m 1
 237 0 l 1
 237 329 l 1
 8 694 l 1
 106 694 l 1
 283 407 l 1
 463 694 l 1
 556 694 l 1
 320 329 l 1
 320 0 l 1
EndSplineSet
Validated: 1
Layer: 3
SplineSet
48.8281 693.848 m 9
 146.973 693.848 l 25
 334.473 389.648 l 25
 314.453 393.066 l 25
 504.395 693.848 l 25
 597.168 693.848 l 25
 360.84 328.613 l 25
 360.84 0 l 25
 277.832 0 l 25
 277.832 328.613 l 17
 48.8281 693.848 l 9
EndSplineSet
EndChar

StartChar: K
Encoding: 75 75 43
Width: 631
Flags: MW
AnchorPoint: "cedilla" 315 0 basechar 0
AnchorPoint: "below" 315 0 basechar 0
AnchorPoint: "above" 315 670 basechar 0
LayerCount: 4
Back
SplineSet
85 694 m 5
 168 694 l 5
 168 0 l 5
 85 0 l 5
 85 694 l 5
473 694 m 5
 577 694 l 5
 284 363 l 5
 596 0 l 5
 489 0 l 5
 179 356 l 5
 473 694 l 5
EndSplineSet
Fore
SplineSet
85 694 m 1
 168 694 l 1
 168 0 l 1
 85 0 l 1
 85 694 l 1
473 694 m 1
 577 694 l 1
 284 363 l 1
 596 0 l 1
 489 0 l 1
 179 356 l 1
 473 694 l 1
EndSplineSet
Validated: 1
Layer: 3
SplineSet
535.273 693.848 m 1
 639.277 693.848 l 1
 320.43 334.473 l 1
 337.031 373.047 l 1
 657.832 0 l 1
 550.898 0.488281 l 1
 241.328 355.957 l 1
 535.273 693.848 l 1
146.602 693.848 m 1
 229.609 693.848 l 1
 229.609 0 l 1
 146.602 0 l 1
 146.602 693.848 l 1
EndSplineSet
EndChar

StartChar: M
Encoding: 77 77 44
Width: 845
Flags: MW
AnchorPoint: "cedilla" 423 0 basechar 0
AnchorPoint: "below" 423 0 basechar 0
AnchorPoint: "above" 423 670 basechar 0
LayerCount: 4
Back
SplineSet
85 694 m 5
 202 694 l 5
 424 273 l 5
 651 694 l 5
 760 694 l 5
 760 0 l 5
 677 0 l 5
 677 575 l 5
 464 199 l 5
 381 199 l 5
 168 575 l 5
 168 0 l 5
 85 0 l 5
 85 694 l 5
EndSplineSet
Fore
SplineSet
85 694 m 1
 202 694 l 1
 424 273 l 1
 651 694 l 1
 760 694 l 1
 760 0 l 1
 677 0 l 1
 677 575 l 1
 464 199 l 1
 381 199 l 1
 168 575 l 1
 168 0 l 1
 85 0 l 1
 85 694 l 1
EndSplineSet
Validated: 1
Layer: 3
SplineSet
146.602 693.848 m 5
 263.789 693.848 l 5
 517.695 213.379 l 5
 454.219 213.379 l 5
 712.52 693.848 l 5
 822.383 693.848 l 5
 822.383 0 l 5
 739.375 0 l 5
 739.375 666.504 l 5
 791.621 666.504 l 5
 525.996 198.73 l 5
 442.988 198.73 l 5
 177.476 666.504 l 5
 229.609 666.504 l 5
 229.609 0 l 5
 146.602 0 l 5
 146.602 693.848 l 5
EndSplineSet
EndChar

StartChar: hyphen
Encoding: 45 45 45
Width: 400
VWidth: 1023
Flags: MW
LayerCount: 4
Fore
SplineSet
55 355 m 1
 345 355 l 1
 345 288 l 1
 55 288 l 1
 55 355 l 1
EndSplineSet
Validated: 1
Layer: 3
SplineSet
85.4492 355.469 m 1
 505.371 355.469 l 1
 505.371 287.598 l 1
 85.4492 287.598 l 1
 85.4492 355.469 l 1
EndSplineSet
EndChar

StartChar: J
Encoding: 74 74 46
Width: 399
Flags: MW
AnchorPoint: "below" 158 0 basechar 0
AnchorPoint: "cedilla" 98 0 basechar 0
AnchorPoint: "above" 258 670 basechar 0
LayerCount: 4
Back
SplineSet
222 693 m 5
 305 693 l 5
 305 208 l 6
 305 133 294 91 257 52 c 4
 219 11 164 -8 91 -8 c 4
 60 -8 29 -5 -4 3 c 5
 9 73 l 5
 34 67 57 64 79 64 c 4
 151 64 203 96 217 152 c 4
 220 164 222 182 222 204 c 6
 222 693 l 5
EndSplineSet
Fore
SplineSet
241 694 m 1
 324 694 l 1
 324 208 l 2
 324 133 313 91 276 52 c 0
 238 11 183 -10 110 -10 c 0
 79 -10 48 -5 15 3 c 1
 28 73 l 1
 53 67 76 64 98 64 c 0
 170 64 222 96 236 152 c 0
 239 164 241 182 241 204 c 2
 241 694 l 1
EndSplineSet
Validated: 1
Layer: 3
SplineSet
279.785 692.871 m 1
 362.793 692.871 l 1
 362.793 208.008 l 2
 362.793 179.96 362.197 151.6 355.017 124.486 c 0
 347.836 97.373 334.154 71.9062 314.821 51.5859 c 0
 295.488 31.2666 270.925 16.2461 244.562 6.66797 c 0
 218.201 -2.90918 190.14 -7.30664 162.109 -8.30078 c 0
 125.674 -9.5918 89.1025 -5.33594 53.7109 3.41797 c 1
 66.8945 72.7539 l 1
 96.5898 65.8213 127.333 62.8154 157.715 65.4297 c 0
 175.033 66.9199 192.275 70.3857 208.376 76.9395 c 0
 224.476 83.4932 239.365 93.2832 251.021 106.178 c 0
 262.678 119.074 270.858 134.977 275.147 151.822 c 0
 279.436 168.667 279.785 186.23 279.785 203.613 c 2
 279.785 692.871 l 1
EndSplineSet
EndChar

StartChar: R
Encoding: 82 82 47
Width: 623
Flags: MW
AnchorPoint: "cedilla" 127 0 basechar 0
AnchorPoint: "below" 305 0 basechar 0
AnchorPoint: "above" 305 670 basechar 0
LayerCount: 4
Back
SplineSet
487 0 m 5
 300 288 l 5
 168 288 l 5
 168 0 l 5
 85 0 l 5
 85 694 l 5
 303 694 l 6
 379 694 399 686 416 681 c 4
 497 654 545 584 545 487 c 5
 544 394 481 324 386 298 c 5
 583 0 l 5
 487 0 l 5
257 360 m 4
 370 360 461 372 461 494 c 4
 461 569 414 611 345 618 c 4
 332 620 303 621 258 621 c 6
 168 621 l 5
 168 364 l 5
 201 361 231 360 257 360 c 4
EndSplineSet
Fore
SplineSet
487 0 m 1
 300 288 l 1
 168 288 l 1
 168 0 l 1
 85 0 l 1
 85 694 l 1
 303 694 l 2
 379 694 399 686 416 681 c 0
 497 654 545 584 545 487 c 1
 544 394 481 324 386 298 c 1
 583 0 l 1
 487 0 l 1
257 360 m 0
 370 360 461 372 461 494 c 0
 461 569 414 611 345 618 c 0
 332 620 303 621 258 621 c 2
 168 621 l 1
 168 364 l 1
 201 361 231 360 257 360 c 0
EndSplineSet
Validated: 1
Layer: 3
SplineSet
345.332 318.848 m 1
 435.664 318.848 l 1
 645.137 0 l 1
 552.363 0 l 1
 345.332 318.848 l 1
146.602 693.848 m 1
 401.484 693.848 l 2
 429.564 693.848 458.008 693.223 485.011 685.518 c 0
 512.017 677.817 537.09 663.086 556.27 642.578 c 0
 573.276 624.395 585.601 602.085 593.345 578.418 c 0
 601.084 554.756 604.492 529.78 604.609 504.883 c 0
 604.751 475.537 600.386 446.051 590.439 418.441 c 0
 580.498 390.831 564.546 365.231 543.086 345.215 c 0
 512.222 316.426 470.961 300.779 429.234 294.436 c 0
 387.507 288.09 345.058 289.062 302.852 289.062 c 2
 179.316 289.062 l 1
 179.316 362.305 l 1
 312.617 362.305 l 2
 340.389 362.305 368.229 361.325 395.893 363.756 c 0
 423.559 366.186 451.533 373.473 473.75 390.137 c 0
 489.385 401.865 501.709 417.826 509.658 435.684 c 0
 517.603 453.539 521.416 473.131 521.602 492.676 c 0
 521.763 509.819 519.121 527.051 513.184 543.135 c 0
 507.246 559.219 497.856 574.087 485.469 585.938 c 0
 468.93 601.758 447.328 611.665 424.932 616.382 c 0
 402.535 621.094 379.45 621.094 356.562 621.094 c 2
 230.098 621.094 l 1
 230.098 0 l 1
 146.602 0 l 1
 146.602 693.848 l 1
EndSplineSet
EndChar

StartChar: D
Encoding: 68 68 48
Width: 710
Flags: MW
AnchorPoint: "cedilla" 337 0 basechar 0
AnchorPoint: "below" 337 0 basechar 0
AnchorPoint: "above" 337 670 basechar 0
LayerCount: 4
Back
SplineSet
168 73 m 5
 323 73 l 6
 442 73 502 126 537 200 c 4
 557 242 564 292 564 346 c 4
 564 400 554 448 534 490 c 4
 499 564 443 620 323 620 c 6
 168 620 l 5
 168 73 l 5
329 0 m 6
 85 0 l 5
 85 693 l 5
 329 693 l 6
 471 693 565 630 615 532 c 4
 642 479 655 416 655 346 c 4
 655 276 642 213 615 160 c 4
 565 62 471 0 329 0 c 6
229.609 620.605 m 1
 229.609 73.2422 l 1
 330.684 73.2422 l 2
 361.339 73.2422 392.133 73.4502 422.41 78.252 c 0
 452.688 83.0547 482.387 92.5332 508.906 107.91 c 0
 545.991 129.412 575.991 162.426 595.332 200.684 c 0
 616.763 243.084 626.069 290.893 627.559 338.379 c 0
 629.404 397.117 618.97 457.562 588.496 507.812 c 0
 565.356 545.967 530.962 577.153 490.84 596.68 c 0
 471.355 606.162 450.521 612.856 429.166 616.523 c 0
 407.809 620.19 386.044 620.605 364.375 620.605 c 2
 229.609 620.605 l 1
  Spiro
    229.609 620.605 v
    229.609 73.2422 v
    330.684 73.2422 ]
    508.906 107.91 o
    595.332 200.684 o
    627.559 338.379 o
    588.496 507.812 o
    490.84 596.68 o
    364.375 620.605 [
    0 0 z
  EndSpiro
146.602 693.848 m 1
 340.449 693.848 l 2
 404.917 693.848 470.699 689.883 530.391 665.527 c 0
 583.403 643.896 630.679 607.183 661.738 559.082 c 0
 702.134 496.523 713.804 419.121 710.566 344.727 c 0
 708.608 299.721 701.514 254.77 687.212 212.053 c 0
 672.91 169.336 650.684 128.937 619.746 96.1914 c 0
 581.328 55.5254 529.971 28.2363 475.703 14.6484 c 0
 417.566 0.0927734 356.924 0 296.992 0 c 2
 146.602 0 l 1
 146.602 693.848 l 1
  Spiro
    146.602 693.848 v
    340.449 693.848 ]
    530.391 665.527 o
    661.738 559.082 o
    710.566 344.727 o
    619.746 96.1914 o
    475.703 14.6484 o
    296.992 0 [
    146.602 0 v
    0 0 z
  EndSpiro
EndSplineSet
Fore
SplineSet
168 73 m 1
 323 73 l 2
 442 73 502 126 537 200 c 0
 557 242 564 292 564 346 c 0
 564 400 554 448 534 490 c 0
 499 564 443 620 323 620 c 2
 168 620 l 1
 168 73 l 1
329 0 m 2
 85 0 l 1
 85 694 l 1
 329 694 l 2
 471 694 565 630 615 532 c 0
 642 479 655 416 655 346 c 0
 655 276 642 213 615 160 c 0
 565 62 471 0 329 0 c 2
EndSplineSet
Validated: 1
Layer: 3
SplineSet
237.998 619.512 m 1
 237.998 74.3604 l 1
 354.986 74.3604 l 2
 515.073 74.3604 628.271 142.09 628.271 353.33 c 0
 628.271 553.677 513.652 619.512 353.564 619.512 c 2
 237.998 619.512 l 1
146.113 693.398 m 1
 374.404 693.398 l 2
 594.644 693.398 723.945 569.307 723.945 356.172 c 0
 723.945 117.935 590.854 0 342.671 0 c 2
 146.113 0 l 1
 146.113 693.398 l 1
EndSplineSet
EndChar

StartChar: P
Encoding: 80 80 49
Width: 585
Flags: MW
AnchorPoint: "below" 305 0 basechar 0
AnchorPoint: "cedilla" 127 0 basechar 0
AnchorPoint: "above" 305 670 basechar 0
LayerCount: 4
Back
SplineSet
257 360 m 4
 370 360 461 372 461 494 c 4
 461 569 414 611 345 618 c 4
 332 620 303 621 258 621 c 6
 168 621 l 5
 168 364 l 5
 201 361 231 360 257 360 c 4
545 487 m 5
 542 395 490 331 416 306 c 4
 380 294 309 287 251 287 c 4
 225 287 197 288 168 290 c 5
 168 0 l 5
 85 0 l 5
 85 694 l 5
 303 694 l 6
 379 694 399 686 416 681 c 4
 497 654 545 585 545 487 c 5
EndSplineSet
Fore
SplineSet
257 360 m 0
 370 360 461 372 461 494 c 0
 461 569 414 611 345 618 c 0
 332 620 303 621 258 621 c 2
 168 621 l 1
 168 364 l 1
 201 361 231 360 257 360 c 0
545 487 m 1
 542 395 490 331 416 306 c 0
 380 294 309 287 251 287 c 0
 225 287 197 288 168 290 c 1
 168 0 l 1
 85 0 l 1
 85 694 l 1
 303 694 l 2
 379 694 399 686 416 681 c 0
 497 654 545 585 545 487 c 1
EndSplineSet
Validated: 1
Layer: 3
SplineSet
146.602 693.848 m 1
 365.352 693.848 l 2
 399.324 693.848 433.575 694.082 466.899 687.471 c 0
 500.225 680.864 532.544 666.406 556.758 642.578 c 0
 577.251 622.407 591.406 596.245 598.916 568.491 c 0
 606.426 540.737 607.837 511.533 605.098 482.91 c 0
 602.651 457.332 596.851 431.986 586.846 408.318 c 0
 576.846 384.65 562.344 362.762 543.574 345.215 c 0
 523.647 326.59 499.131 313.204 473.144 304.92 c 0
 447.158 296.635 419.881 293.226 392.695 291.016 c 0
 315.924 284.774 238.447 287.236 162.227 298.34 c 1
 175.898 370.605 l 1
 242.779 361.104 310.612 358.317 378.047 362.305 c 0
 394.971 363.305 411.955 364.779 428.398 368.908 c 0
 444.842 373.037 460.695 379.938 474.238 390.137 c 0
 488.877 401.16 500.601 415.902 508.555 432.412 c 0
 516.514 448.92 520.889 467.066 522.09 485.352 c 0
 523.296 503.73 521.299 522.407 515.4 539.854 c 0
 509.502 557.305 499.478 573.428 485.957 585.938 c 0
 475.346 595.757 462.709 603.296 449.227 608.516 c 0
 435.744 613.74 421.467 616.704 407.104 618.359 c 0
 378.377 621.67 349.346 620.605 320.43 620.605 c 2
 229.609 620.605 l 1
 229.609 0 l 1
 146.602 0 l 1
 146.602 693.848 l 1
EndSplineSet
EndChar

StartChar: B
Encoding: 66 66 50
Width: 627
Flags: MW
AnchorPoint: "below" 273 0 basechar 0
AnchorPoint: "cedilla" 273 0 basechar 0
AnchorPoint: "above" 273 670 basechar 0
LayerCount: 4
Back
SplineSet
440 523 m 4xf8
 440 595 385 630 301 630 c 6
 168 630 l 5
 168 397 l 5
 256 400 l 5
 379 403 440 444 440 523 c 4xf8
495 202 m 4xf4
 495 296 411 340 310 340 c 4
 303 340 296 339 289 339 c 6
 168 333 l 5
 168 73 l 5
 321 73 l 6
 415 73 495 109 495 202 c 4xf4
430 388 m 5
 509 373 577 301 577 210 c 4xf4
 577 152 555 103 511 63 c 4
 464 21 397 0 310 0 c 6
 85 0 l 5
 85 694 l 5
 329 694 l 6
 438 694 520 632 520 527 c 4xf8
 520 470 471 404 430 388 c 5
EndSplineSet
Fore
SplineSet
440 523 m 0
 440 595 385 620 301 620 c 2
 168 620 l 1
 168 405 l 1
 260 405 l 2
 383 405 440 444 440 523 c 0
495 202 m 0
 495 316 383 335 289 335 c 2
 168 335 l 1
 168 73 l 1
 321 73 l 2
 415 73 495 109 495 202 c 0
430 381 m 1
 509 366 577 301 577 210 c 0
 577 160 563 104 519 64 c 0
 472 22 397 0 310 0 c 2
 85 0 l 1
 85 694 l 1
 329 694 l 2
 385 694 437 679 471 649 c 0
 503 620 520 578 520 527 c 0
 520 470 486 408 430 381 c 1
EndSplineSet
Validated: 1
Layer: 3
SplineSet
146.602 693.848 m 5
 391.23 693.848 l 6
 565.547 693.848 582.148 562.988 582.148 526.855 c 4
 582.148 467.285 532.832 403.32 492.305 387.695 c 5
 578.73 372.07 639.277 295.898 639.277 210.449 c 4
 639.277 147.461 599.727 0 372.188 0 c 6
 146.602 0 l 5
 146.602 693.848 l 5
229.609 333.008 m 5
 229.609 73.2422 l 5
 356.074 73.2422 l 6
 385.859 73.2422 556.758 64.9414 556.758 201.66 c 4
 556.758 294.922 473.75 345.703 351.191 339.355 c 6
 229.609 333.008 l 5
229.609 630.371 m 5
 229.609 397.461 l 5
 317.988 399.902 l 6
 350.786 400.809 502.07 401.855 502.07 522.949 c 4
 502.07 565.918 481.074 630.371 363.398 630.371 c 6
 229.609 630.371 l 5
EndSplineSet
EndChar

StartChar: U
Encoding: 85 85 51
Width: 682
Flags: MW
AnchorPoint: "below" 349 0 basechar 0
AnchorPoint: "cedilla" 349 0 basechar 0
AnchorPoint: "above" 349 670 basechar 0
LayerCount: 4
Back
SplineSet
349 -10 m 4
 160 -10 85 82 85 265 c 6
 85 694 l 5
 168 694 l 5
 168 244 l 6
 168 202 176 167 191 139 c 4
 218 88 269 63 349 63 c 4
 429 63 480 88 507 139 c 4
 522 167 530 202 530 244 c 6
 530 694 l 5
 613 694 l 5
 613 265 l 6
 613 82 538 -10 349 -10 c 4
614 223 m 4
 611 59 517 -10 349 -10 c 4
 245 -10 172 17 128 73 c 4
 96 113 85 160 85 223 c 4
 85 232 85 246 85 265 c 4
 85 284 86 296 86 303 c 6
 86 694 l 5
 169 694 l 5
 169 244 l 6
 169 182 176 150 207 115 c 4
 237 81 287 62 349 62 c 4
 436 62 504 101 523 172 c 4
 528 191 530 215 530 244 c 6
 530 694 l 5
 613 694 l 5
 613 265 l 6
 613 246 614 232 614 223 c 4
EndSplineSet
Fore
SplineSet
341 -10 m 0
 152 -10 77 82 77 265 c 2
 77 694 l 1
 160 694 l 1
 160 244 l 2
 160 202 168 167 183 139 c 0
 210 88 261 63 341 63 c 0
 421 63 472 88 499 139 c 0
 514 167 522 202 522 244 c 2
 522 694 l 1
 605 694 l 1
 605 265 l 2
 605 82 530 -10 341 -10 c 0
EndSplineSet
Validated: 1
Layer: 3
SplineSet
146.602 693.848 m 1
 229.609 693.848 l 1
 229.609 244.141 l 2
 229.609 221.554 230.033 198.742 235.465 176.818 c 0
 240.895 154.895 251.291 134.128 266.23 117.188 c 0
 283.756 97.3145 307.079 82.9951 332.104 74.2871 c 0
 357.13 65.5801 383.776 62.0117 410.273 62.0117 c 0
 436.771 62.0117 463.417 65.5801 488.442 74.2871 c 0
 513.467 82.9951 536.792 97.3145 554.316 117.188 c 0
 569.253 134.128 579.653 154.895 585.083 176.818 c 0
 590.513 198.742 590.938 221.554 590.938 244.141 c 2
 590.938 693.848 l 1
 673.945 693.848 l 1
 673.945 302.734 l 2
 673.945 250.459 678.384 197.305 666.133 146.484 c 0
 659.761 120.046 648.154 94.7676 631.333 73.4014 c 0
 614.507 52.0352 592.734 34.751 568.623 22.166 c 0
 520.41 -3.00391 464.665 -10.2539 410.273 -10.2539 c 0
 355.882 -10.2539 300.139 -3.00391 251.922 22.166 c 0
 227.812 34.751 206.041 52.0352 189.216 73.4014 c 0
 172.391 94.7676 160.787 120.046 154.414 146.484 c 0
 142.162 197.305 146.602 250.459 146.602 302.734 c 2
 146.602 693.848 l 1
EndSplineSet
EndChar

StartChar: Q
Encoding: 81 81 52
Width: 767
Flags: MW
LayerCount: 4
Back
SplineSet
382 700 m 4xa5
 524 700 618 630 668 532 c 4
 695 479 708 416 708 346 c 4
 708 276 695 213 668 160 c 4
 659 143 650 128 639 113 c 5
 732 26 l 5
 681 -27 l 5
 588 60 l 5
 537 17 468 -8 382 -8 c 4
 240 -8 145 62 95 160 c 4
 68 213 55 276 55 346 c 4
 55 416 68 479 95 532 c 4
 145 630 240 700 382 700 c 4xa5
432 309 m 5
 577 171 l 5
 605 220 617 282 617 346 c 4x56
 617 400 607 448 587 490 c 4
 552 564 495 627 382 627 c 4
 269 627 212 564 177 490 c 4
 157 448 147 400 147 346 c 4x59
 147 292 157 244 177 202 c 4
 212 128 269 65 382 65 c 4x55
 446 65 495 84 531 114 c 5
 381 256 l 5
 432 309 l 5
EndSplineSet
Fore
SplineSet
382 706 m 0
 524 706 618 630 668 532 c 0
 695 479 708 416 708 346 c 0
 708 276 695 213 668 160 c 0
 659 143 650 128 639 113 c 1
 732 26 l 1
 681 -27 l 1
 588 60 l 1
 537 17 468 -10 382 -10 c 0
 240 -10 145 62 95 160 c 0
 68 213 55 276 55 346 c 0
 55 416 68 479 95 532 c 0
 145 630 240 706 382 706 c 0
432 309 m 1
 577 171 l 1
 605 220 617 282 617 346 c 0
 617 400 607 448 587 490 c 0
 552 564 495 627 382 627 c 0
 269 627 212 564 177 490 c 0
 157 448 147 400 147 346 c 0
 147 292 157 244 177 202 c 0
 212 128 269 65 382 65 c 0
 446 65 495 84 531 114 c 1
 381 256 l 1
 432 309 l 1
EndSplineSet
Validated: 1
Layer: 3
SplineSet
484.004 309.082 m 1
 777.461 20.0195 l 1
 732.539 -27.3438 l 1
 432.734 256.348 l 1
 484.004 309.082 l 1
430.781 628.418 m 0
 366.821 627.866 303.036 600.332 260.859 552.246 c 0
 236.501 524.473 219.418 490.732 209.096 455.262 c 0
 198.771 419.794 194.764 382.637 195.43 345.703 c 0
 196.658 277.631 214.323 207.869 256.953 154.785 c 0
 279.144 127.152 307.727 104.729 339.75 89.5449 c 0
 371.771 74.3613 407.069 66.2197 442.5 65.4297 c 0
 474.515 64.7158 506.758 70.0469 536.465 82.0078 c 0
 566.167 93.9688 593.149 112.742 614.375 136.719 c 0
 639.043 164.586 655.61 199.045 665.112 235.029 c 0
 674.614 271.014 677.7 308.494 676.875 345.703 c 0
 675.576 404.186 664.575 463.76 634.883 514.16 c 0
 614.146 549.36 584.097 579.097 548.364 598.911 c 0
 512.632 618.726 471.637 628.77 430.781 628.418 c 0
440.059 701.172 m 0
 484.128 700.835 528.247 692.583 568.994 675.786 c 0
 609.736 658.989 646.899 633.34 676.387 600.586 c 0
 707.065 566.504 729.155 525.117 742.871 481.359 c 0
 756.582 437.6 762.437 391.561 762.324 345.703 c 0
 762.207 297.859 755.615 249.831 740.4 204.47 c 0
 725.19 159.109 700.728 116.561 667.109 82.5195 c 0
 636.895 51.9258 599.614 28.5244 559.282 13.626 c 0
 518.945 -1.27246 475.728 -7.98242 432.734 -7.32422 c 0
 350.24 -6.06152 266.942 23.6855 208.125 81.543 c 0
 173.734 115.371 148.352 157.869 132.519 203.436 c 0
 116.686 249.004 109.832 297.464 109.98 345.703 c 0
 110.137 396.16 117.918 446.807 135.287 494.18 c 0
 152.656 541.553 180.28 585.454 217.402 619.629 c 0
 276.949 674.448 359.123 701.787 440.059 701.172 c 0
EndSplineSet
EndChar

StartChar: W
Encoding: 87 87 53
Width: 975
Flags: MW
AnchorPoint: "below" 486 0 basechar 0
AnchorPoint: "cedilla" 486 0 basechar 0
AnchorPoint: "above" 486 670 basechar 0
LayerCount: 4
Back
SplineSet
10 694 m 5
 99 694 l 5
 274 111 l 5
 449 694 l 5
 533 694 l 5
 713 111 l 5
 883 694 l 5
 965 694 l 5
 757 0 l 5
 669 0 l 5
 486 580 l 5
 316 0 l 5
 228 0 l 5
 10 694 l 5
EndSplineSet
Fore
SplineSet
10 694 m 1
 99 694 l 1
 274 111 l 1
 449 694 l 1
 533 694 l 1
 713 111 l 1
 883 694 l 1
 965 694 l 1
 757 0 l 1
 669 0 l 1
 486 580 l 1
 316 0 l 1
 228 0 l 1
 10 694 l 1
EndSplineSet
Validated: 1
Layer: 3
SplineSet
68.3594 693.848 m 1
 157.227 693.848 l 1
 361.816 9.27734 l 1
 300.781 9.27734 l 1
 507.324 693.848 l 1
 590.82 693.848 l 1
 802.734 9.27734 l 1
 741.699 9.27734 l 1
 940.918 693.848 l 1
 1022.95 693.848 l 1
 814.941 0 l 1
 726.562 0 l 1
 519.531 658.203 l 1
 567.383 658.203 l 1
 374.023 0 l 1
 285.645 0 l 1
 68.3594 693.848 l 1
EndSplineSet
EndChar

StartChar: C
Encoding: 67 67 54
Width: 651
Flags: MW
AnchorPoint: "below" 375 0 basechar 0
AnchorPoint: "cedilla" 351 0 basechar 0
AnchorPoint: "above" 375 670 basechar 0
LayerCount: 4
Back
SplineSet
607 666 m 5
 584 598 l 5
 529 618 490 628 421 628 c 4
 366 628 310 620 268 596 c 4
 190 551 146 467 146 349 c 4
 146 231 201 146 279 101 c 4
 321 77 377 66 432 66 c 4
 487 66 540 77 595 99 c 5
 616 32 l 5
 554 4 485 -10 407 -10 c 4
 296 -10 206 32 150 90 c 4
 87 156 55 242 55 348 c 4
 55 456 90 546 145 603 c 4
 198 657 297 703 398 703 c 4
 489 703 541 691 607 666 c 5
189 346 m 4
 189 235.13 234.021 147.319 302 102 c 4
 338 78 379 66 424 66 c 4
 526.563 66 593.679 127.826 629 202 c 4
 649 244 659 292 659 346 c 4
 659 456.419 613.667 544.889 546 590 c 4
 510 614 469 626 424 626 c 4
 321.437 626 254.321 564.174 219 490 c 4
 199 448 189 400 189 346 c 4
95 346 m 4
 95 492.312 155.153 600.989 250 656 c 4
 300 685 358 700 424 700 c 4
 565.135 700 662.819 630.362 712 532 c 4
 739 478 753 416 753 346 c 4
 753 200.126 691.693 90.9219 597 36 c 4
 547 7 490 -8 424 -8 c 4
 281.87 -8 184.959 61.9316 135 160 c 4
 108 213 95 276 95 346 c 4
EndSplineSet
Fore
SplineSet
607 671 m 1
 584 601 l 1
 529 621 490 631 421 631 c 0
 366 631 310 623 268 599 c 0
 190 554 146 470 146 352 c 0
 146 234 201 149 279 104 c 0
 321 80 377 69 432 69 c 0
 487 69 540 80 595 102 c 1
 616 35 l 1
 554 7 485 -7 407 -7 c 0
 296 -7 206 35 150 93 c 0
 87 159 55 245 55 351 c 0
 55 459 90 549 145 606 c 0
 198 660 297 706 398 706 c 0
 489 706 541 696 607 671 c 1
EndSplineSet
Validated: 1
Layer: 3
SplineSet
472.334 697.241 m 0
 553.511 697.241 611.958 682.861 669.941 660.596 c 1
 646.748 593.335 l 1
 589.229 612.817 551.191 622.559 482.539 622.559 c 0
 324.36 622.559 220.454 503.345 220.454 345.631 c 0
 220.454 179.102 331.318 64.9902 497.847 64.9902 c 0
 559.077 64.9902 604.536 76.123 657.881 97.9248 c 1
 679.219 31.5918 l 1
 621.699 5.15137 558.613 -10.1562 472.334 -10.1562 c 0
 261.738 -10.1562 126.289 136.426 126.289 345.166 c 0
 126.289 549.268 267.305 697.241 472.334 697.241 c 0
EndSplineSet
EndChar

StartChar: S
Encoding: 83 83 55
Width: 581
VWidth: 1023
Flags: MW
LayerCount: 4
Fore
SplineSet
260 70 m 0
 342 70 439 106 439 182 c 0
 439 224 414 256 365 278 c 0
 294 310 210 335 146 373 c 0
 106 397 67 453 67 514 c 0
 67 577 89 627 129 656 c 0
 181 694 215 706 316 706 c 0
 400 706 435 684 491 660 c 1
 466 588 l 1
 415 611 362 626 316 626 c 0
 315 626 313 626 312 626 c 0
 215 626 153 590 153 523 c 0
 153 522 153 521 153 520 c 0
 154 485 174 454 213 434 c 0
 248 416 280 403 322 387 c 0
 387 362 426 350 471 317 c 0
 510 288 529 247 529 194 c 0
 529 155 517 118 491 84 c 0
 446 25 368 -10 261 -10 c 0
 172 -10 121 10 50 37 c 1
 79 118 l 1
 160 88 212 70 260 70 c 0
EndSplineSet
Validated: 1
Layer: 3
SplineSet
395.879 700.195 m 0
 458.379 700.195 521.367 686.523 568.242 672.363 c 1
 541.387 596.68 l 1
 519.414 603.027 450.078 622.07 389.043 622.07 c 0
 294.805 622.07 216.68 578.125 216.68 512.695 c 0
 216.68 361.816 591.191 417.969 591.191 193.848 c 0
 591.191 104.492 518.926 -9.27734 323.125 -9.27734 c 0
 240.605 -9.27734 179.082 10.7422 112.188 37.1094 c 1
 140.508 117.676 l 1
 229.863 84.4727 292.363 72.2656 333.379 72.2656 c 0
 431.035 72.2656 500.859 114.746 500.859 181.641 c 0
 500.859 346.191 126.348 278.32 126.348 499.023 c 0
 126.348 606.445 231.328 700.195 395.879 700.195 c 0
EndSplineSet
EndChar

StartChar: at
Encoding: 64 64 56
Width: 1025
VWidth: 1023
Flags: HMW
LayerCount: 4
Back
SplineSet
645.996 472.656 m 5
 701.172 472.656 l 5
 699.707 123.047 l 6
 699.653 110.273 699.531 97.4766 700.669 84.7549 c 4
 701.807 72.0332 704.302 59.3037 709.595 47.6797 c 4
 714.888 36.0557 723.135 25.6211 733.906 18.75 c 4
 744.673 11.8789 757.812 8.83301 770.508 10.2539 c 4
 787.7 12.1777 803.247 21.8975 815.43 34.1797 c 4
 828.623 47.4795 838.696 63.6211 846.68 80.5664 c 4
 872.974 136.375 877.222 200.03 876.465 261.719 c 4
 875.947 304.16 872.271 346.78 861.777 387.906 c 4
 851.279 429.033 833.081 468.575 805.664 500.977 c 4
 781.143 529.956 749.717 552.769 715.332 568.848 c 4
 661.201 594.16 600.771 604.062 541.016 604.492 c 4
 470.471 604.995 398.461 591.343 337.891 555.176 c 4
 278.573 519.756 233.471 463.037 206.543 399.414 c 4
 181.696 340.708 170.298 276.639 170.41 212.891 c 4
 170.547 135.005 189.568 55.5488 234.863 -7.8125 c 4
 264.729 -49.5918 305.405 -83.4404 351.562 -105.957 c 4
 415.218 -137.01 489.058 -146.763 558.594 -133.301 c 4
 586.465 -127.904 613.628 -118.854 639.16 -106.445 c 5
 669.922 -164.551 l 5
 643.877 -178.023 616.294 -188.514 587.891 -195.801 c 4
 503.315 -217.5 412.363 -210.842 330.078 -181.641 c 4
 264.727 -158.448 204.056 -119.184 162.109 -63.9648 c 4
 134.932 -28.1875 116.017 13.5137 104.591 56.9668 c 4
 93.166 100.42 88.7402 145.502 88.3789 190.43 c 4
 87.7461 269.055 98.2734 348.475 126.465 421.875 c 4
 159.625 508.213 222.166 583.799 303.711 627.441 c 4
 380.87 668.735 470.103 683.218 557.617 683.105 c 4
 618.545 683.027 680.039 675.708 737.305 654.897 c 4
 794.57 634.087 846.821 598.12 883.301 549.316 c 4
 913.525 508.887 932.612 460.918 943.56 411.642 c 4
 954.502 362.364 958.364 311.708 958.496 261.23 c 4
 958.604 220.584 956.143 179.778 948.042 139.947 c 4
 939.946 100.115 925.713 61.0879 902.344 27.832 c 4
 886.26 4.94434 865.903 -15.0605 842.124 -29.7979 c 4
 818.35 -44.5352 791.108 -53.9883 763.184 -55.6641 c 4
 742.866 -56.8828 722.217 -53.9102 703.364 -46.2334 c 4
 684.512 -38.5557 667.593 -26.1045 654.858 -10.2246 c 4
 642.124 5.65625 633.735 24.7959 629.443 44.6934 c 4
 625.151 64.5918 624.937 85.1133 625 105.469 c 6
 625.977 414.551 l 5
 645.996 472.656 l 5
  Spiro
    645.996 472.656 v
    701.172 472.656 v
    699.707 123.047 ]
    770.508 10.2539 o
    815.43 34.1797 o
    846.68 80.5664 o
    876.465 261.719 o
    805.664 500.977 o
    715.332 568.848 o
    541.016 604.492 o
    337.891 555.176 o
    206.543 399.414 o
    170.41 212.891 o
    234.863 -7.8125 o
    351.562 -105.957 o
    558.594 -133.301 o
    639.16 -106.445 v
    669.922 -164.551 v
    587.891 -195.801 o
    330.078 -181.641 o
    162.109 -63.9648 o
    88.3789 190.43 o
    126.465 421.875 o
    303.711 627.441 o
    557.617 683.105 o
    883.301 549.316 o
    958.496 261.23 o
    902.344 27.832 o
    763.184 -55.6641 o
    625 105.469 [
    625.977 414.551 v
    0 0 z
  EndSpiro
540.039 468.75 m 4
 566.196 466.015 591.895 459.246 616.211 449.219 c 4
 630.22 443.44 643.784 436.574 656.738 428.711 c 5
 631.348 385.254 l 5
 616.714 392.059 601.514 397.643 585.938 401.855 c 4
 556.421 409.84 525.239 412.979 495.117 407.715 c 4
 474.732 404.152 454.985 396.633 437.744 385.189 c 4
 420.502 373.747 405.895 358.426 395.02 340.82 c 4
 375.273 308.854 367.802 270.483 367.676 232.91 c 4
 367.555 196.895 374.216 160.174 392.09 128.906 c 4
 406.17 104.277 427.406 83.7725 452.637 70.8008 c 4
 479.802 56.834 511.04 51.5117 541.504 53.7109 c 4
 588.081 57.0723 633.008 77.3867 667.48 108.887 c 5
 685.059 65.4297 l 5
 639.16 21.8086 577.881 -5.97363 514.648 -9.27734 c 4
 480.793 -11.0459 446.401 -5.63379 415.332 7.93262 c 4
 384.262 21.5 356.859 43.3857 336.914 70.8008 c 4
 305.317 114.232 293.04 169.438 293.457 223.145 c 4
 293.695 253.865 297.92 284.629 306.937 313.998 c 4
 315.953 343.367 330.045 371.332 349.609 395.02 c 4
 371.037 420.963 399 441.441 430.176 454.102 c 4
 464.752 468.143 502.925 472.631 540.039 468.75 c 4
  Spiro
    540.039 468.75 o
    616.211 449.219 o
    656.738 428.711 v
    631.348 385.254 v
    585.938 401.855 o
    495.117 407.715 o
    395.02 340.82 o
    367.676 232.91 o
    392.09 128.906 o
    452.637 70.8008 o
    541.504 53.7109 o
    667.48 108.887 v
    685.059 65.4297 v
    514.648 -9.27734 o
    336.914 70.8008 o
    293.457 223.145 o
    349.609 395.02 o
    430.176 454.102 o
    0 0 z
  EndSpiro
EndSplineSet
Fore
SplineSet
712 146 m 2
 712 88 728 56 778 56 c 0
 813 56 834 82 849 109 c 0
 870 147 881 212 881 290 c 0
 881 363 865 426 832 480 c 0
 774 576 677 638 540 638 c 0
 421 638 329 594 268 533 c 0
 209 474 163 362 163 250 c 0
 163 97 221 -22 314 -82 c 0
 367 -116 431 -138 513 -138 c 0
 563 -138 616 -129 670 -111 c 1
 670 -178 l 1
 607 -198 546 -208 488 -208 c 0
 446 -208 407 -202 368 -192 c 0
 195 -145 77 26 77 243 c 0
 77 384 133 511 208 583 c 0
 277 649 398 706 523 706 c 0
 667 706 754 671 830 605 c 0
 874 567 911 515 932 457 c 1
 952 406 960 357 962 308 c 0
 962 299 963 291 963 282 c 0
 963 173 933 91 876 38 c 0
 842 6 805 -10 765 -10 c 0
 710 -10 672 11 650 54 c 1
 612 11 564 -10 506 -10 c 0
 463 -10 426 0 394 20 c 0
 330 61 297 135 297 231 c 0
 297 312 320 382 366 427 c 0
 410 471 466 494 532 494 c 0
 569 494 617 486 652 461 c 1
 660 482 l 1
 712 482 l 1
 712 146 l 2
385 239 m 0
 385 137 427 58 524 58 c 0
 553 58 576 63 595 75 c 0
 617 89 635 99 635 123 c 2
 635 407 l 1
 604 419 573 430 541 430 c 0
 440 430 385 343 385 239 c 0
EndSplineSet
Validated: 1
Layer: 3
SplineSet
652.266 392.795 m 1
 613.252 410.236 581.123 417.121 541.191 417.121 c 0
 442.971 417.121 384.68 341.848 384.68 231.232 c 0
 384.68 121.994 435.168 57.7363 523.75 57.7363 c 0
 587.09 57.7363 628.398 94.9141 642.173 121.535 c 1
 665.122 74.2598 l 1
 640.332 37.082 590.303 -10.6523 505.85 -10.6523 c 0
 374.123 -10.6523 297.014 87.1113 297.014 223.889 c 0
 297.014 389.123 403.498 480.002 532.471 480.002 c 0
 575.156 480.002 615.547 469.904 658.691 452.004 c 1
 652.266 392.795 l 1
635.283 416.662 m 1
 660.073 474.494 l 1
 712.393 474.494 l 1
 712.393 145.861 l 2
 712.393 94.9141 725.244 56.3594 776.65 56.3594 c 0
 830.352 56.3594 880.84 122.453 880.84 283.098 c 0
 880.84 451.086 787.666 616.318 539.814 616.318 c 0
 318.127 616.318 162.99 462.561 162.99 236.74 c 0
 162.99 -50.125 397.072 -190.115 669.707 -101.99 c 1
 669.707 -169.461 l 1
 337.863 -271.814 76.7012 -90.9746 76.7012 236.281 c 0
 76.7012 503.408 274.064 684.248 539.814 684.248 c 0
 849.17 684.248 963.916 481.838 963.916 285.393 c 0
 963.916 90.3242 860.19 -10.6523 765.176 -10.6523 c 0
 681.182 -10.6523 635.283 45.3438 635.283 122.912 c 2
 635.283 416.662 l 1
EndSplineSet
EndChar

StartChar: question
Encoding: 63 63 57
Width: 510
VWidth: 1023
Flags: HMW
LayerCount: 4
Fore
SplineSet
152 98 m 1
 250 98 l 1
 250 0 l 1
 152 0 l 1
 152 98 l 1
214 706 m 0
 334 706 424 652 424 536 c 0
 424 485 416 443 391 412 c 0
 380 398 367 385 354 373 c 2
 315 339 l 2
 283 312 264 287 255 263 c 0
 246 239 242 215 242 191 c 1
 159 191 l 1
 159 246 171 290 196 324 c 0
 214 348 235 370 258 389 c 0
 304 425 347 454 347 522 c 0
 347 595 291 632 179 632 c 0
 144 632 109 624 74 609 c 1
 49 668 l 1
 94 690 149 706 214 706 c 0
EndSplineSet
Validated: 1
Layer: 3
SplineSet
206.543 701.66 m 0
 342.285 701.66 427.734 647.949 427.734 535.645 c 0
 427.734 338.379 242.188 368.164 242.188 191.406 c 1
 159.18 191.406 l 1
 159.18 398.926 347.168 385.742 347.168 521.973 c 0
 347.168 563.965 322.266 631.836 193.359 631.836 c 0
 156.25 631.836 104.492 622.07 74.2188 608.887 c 1
 48.8281 668.457 l 1
 97.6562 692.383 152.832 701.66 206.543 701.66 c 0
151.855 97.6562 m 1
 249.512 97.6562 l 1
 249.512 0 l 1
 151.855 0 l 1
 151.855 97.6562 l 1
EndSplineSet
EndChar

StartChar: eight
Encoding: 56 56 58
Width: 634
Flags: MW
LayerCount: 4
Fore
SplineSet
314 638 m 0
 252 638 194 599 194 536 c 0
 194 491 222 454 288 430 c 0
 298 426 314 421 340 413 c 1
 383 437 441 474 441 534 c 0
 441 586 411 613 378 627 c 0
 359 635 338 638 314 638 c 0
320 63 m 0
 406 63 476 112 476 194 c 0
 476 259 442 309 360 340 c 0
 345 346 328 351 309 356 c 1
 238 335 158 279 158 198 c 0
 158 118 226 63 320 63 c 0
318 706 m 0
 438 706 523 648 523 543 c 0
 523 473 480 428 424 387 c 1
 471 366 503 339 525 307 c 0
 547 275 559 239 559 200 c 0
 559 156 546 115 519 80 c 0
 473 19 408 -10 320 -10 c 0
 214 -10 149 29 108 87 c 0
 86 118 75 152 75 191 c 0
 75 283 145 351 214 384 c 1
 162 410 128 451 116 502 c 0
 113 514 112 528 112 545 c 0
 112 589 140 630 166 653 c 0
 203 686 253 706 318 706 c 0
EndSplineSet
Validated: 1
Layer: 3
SplineSet
313.954 703.145 m 0
 452.325 703.145 522.471 638.672 522.471 533.809 c 0
 522.471 475.045 488.442 432.729 424.523 386.896 c 1
 521.255 343.351 561.562 274.612 561.562 199.756 c 0
 561.562 96.1123 475.803 -9.77148 319.789 -9.77148 c 0
 184.165 -9.77148 73.1016 73.0176 73.1016 190.262 c 0
 73.1016 268.639 128.6 346.449 212.078 386.203 c 1
 128.139 428.533 112.209 497.822 112.209 536.128 c 0
 112.209 626.411 187.949 703.145 313.954 703.145 c 0
323.504 63.377 m 0
 417.405 63.377 476.107 122.723 476.107 193.623 c 0
 476.107 290.404 387.856 330.594 302.547 354.418 c 1
 209.512 327.129 158.207 260.414 158.207 197.745 c 0
 158.207 127.546 221.709 63.377 323.504 63.377 c 0
313.973 633.33 m 0
 245.833 633.33 193.844 587.217 193.844 535.801 c 0
 193.844 466.273 273.802 437.199 328.617 419.922 c 2
 340.605 416.174 l 1
 399.033 452.665 442.205 482.509 442.205 531.431 c 0
 442.205 597.656 382.564 633.33 313.973 633.33 c 0
EndSplineSet
EndChar

StartChar: nine
Encoding: 57 57 59
Width: 634
Flags: MW
LayerCount: 4
Fore
SplineSet
169 -10 m 1
 163 63 l 1
 340 63 417 115 465 233 c 0
 470 246 476 268 478 288 c 1
 442 270 370 248 299 248 c 1
 185 250 78 319 78 466 c 0
 78 585 166 707 318 707 c 0
 503 707 564 552 564 383 c 0
 564 115 422 -10 169 -10 c 1
316 633 m 0
 218 633 161 559 161 470 c 0
 161 381 208 321 316 321 c 0
 381 321 453 357 483 388 c 1
 483 397 484 405 484 414 c 0
 484 535 436 633 316 633 c 0
EndSplineSet
Validated: 1
Layer: 3
SplineSet
314.941 635.254 m 0
 294.895 635.317 274.92 630.469 256.863 621.758 c 0
 238.809 613.047 222.628 600.625 208.984 585.938 c 0
 183.396 558.394 166.398 522.388 164.062 484.863 c 0
 161.75 447.718 174.524 410.029 198.242 381.348 c 0
 226.585 347.074 270.002 325.686 314.453 324.219 c 0
 355.459 322.865 396.891 338.549 426.27 367.188 c 0
 454.634 394.838 470.941 434.528 469.727 474.121 c 0
 468.551 512.417 452.113 549.463 427.246 578.613 c 0
 413.207 595.068 396.329 609.219 377.191 619.302 c 0
 358.054 629.385 336.572 635.186 314.941 635.254 c 0
323.73 703.613 m 0
 374.715 703.882 426.32 687.612 465.332 654.785 c 0
 497.715 627.534 520.352 589.839 533.306 549.551 c 0
 546.255 509.258 550.493 466.631 551.27 424.316 c 0
 552.349 365.447 547.808 306.23 534.292 248.925 c 0
 520.771 191.619 496.006 136.024 456.055 92.7734 c 0
 421.218 55.0596 375.734 27.8408 326.861 12.1123 c 0
 277.988 -3.61621 226.125 -8.78027 174.805 -7.32422 c 0
 160.126 -6.9082 145.464 -5.92773 130.859 -4.39453 c 1
 136.719 67.8711 l 1
 167.854 64.6953 199.289 64.1875 230.469 66.8945 c 0
 261.801 69.6152 293.048 75.6836 322.146 87.6152 c 0
 351.243 99.5488 377.938 117.752 398.438 141.602 c 0
 427.2 175.066 442.221 218.333 449.855 261.794 c 0
 457.49 305.256 459.912 349.48 466.797 393.066 c 0
 467.569 397.956 468.383 402.839 469.238 407.715 c 1
 503.418 416.016 l 1
 499.189 384.33 485.95 353.934 465.82 329.102 c 0
 445.92 304.553 419.494 285.546 390.357 273.312 c 0
 361.221 261.077 329.449 255.401 297.852 255.859 c 0
 267.396 256.301 236.971 262.442 208.964 274.414 c 0
 180.957 286.387 155.447 304.346 135.254 327.148 c 0
 98.9307 368.166 81.3086 424.279 83.9844 479.004 c 0
 87.0215 541.128 115.551 601.821 162.109 643.066 c 0
 206.107 682.041 264.952 703.306 323.73 703.613 c 0
EndSplineSet
EndChar

StartChar: six
Encoding: 54 54 60
Width: 634
Flags: MW
LayerCount: 4
Fore
SplineSet
471 706 m 1
 477 633 l 1
 300 633 223 569 175 451 c 0
 170 438 164 416 162 396 c 1
 198 414 270 436 341 436 c 1
 455 434 562 365 562 218 c 0
 562 99 474 -10 322 -10 c 0
 137 -10 76 132 76 301 c 0
 76 569 218 706 471 706 c 1
324 62 m 0
 422 62 479 125 479 214 c 0
 479 303 432 363 324 363 c 0
 259 363 187 338 157 307 c 1
 157 298 156 290 156 281 c 0
 156 160 204 62 324 62 c 0
EndSplineSet
Validated: 1
Layer: 3
SplineSet
319.336 386.719 m 0
 278.279 388.084 236.474 372.891 207.52 343.75 c 0
 177.434 313.472 162.754 269.715 164.062 227.051 c 0
 165.33 185.715 180.335 144.783 206.543 112.793 c 0
 220.271 96.0352 237.174 81.7832 256.401 71.8027 c 0
 275.629 61.8223 297.185 56.2393 318.848 56.1523 c 0
 338.927 56.0723 358.977 60.7051 377.109 69.3301 c 0
 395.243 77.9531 411.441 90.4814 424.805 105.469 c 0
 451.83 135.779 467.362 175.77 469.727 216.309 c 0
 472.075 256.582 460.744 298.086 435.547 329.59 c 0
 407.729 364.369 363.847 385.239 319.336 386.719 c 0
177.734 598.633 m 0
 212.539 636.382 258.027 663.618 306.908 679.336 c 0
 355.789 695.054 407.658 700.19 458.984 698.73 c 0
 473.663 698.311 488.325 697.334 502.93 695.801 c 1
 497.07 623.535 l 1
 465.953 626.958 434.488 627.441 403.32 624.512 c 0
 372.076 621.577 340.988 615.132 312.004 603.101 c 0
 283.02 591.074 256.346 573.13 235.352 549.805 c 0
 207.85 519.253 191.068 480.248 181.94 440.167 c 0
 172.812 400.085 170.01 358.867 166.992 317.871 c 0
 166.154 306.479 165.344 295.086 164.551 283.691 c 1
 130.371 294.922 l 1
 134.536 326.621 147.789 357.037 167.969 381.836 c 0
 187.902 406.334 214.369 425.248 243.5 437.451 c 0
 272.63 449.654 304.355 455.385 335.938 455.078 c 0
 366.433 454.781 396.944 448.832 425.006 436.893 c 0
 453.068 424.952 478.557 406.83 498.535 383.789 c 0
 536.484 340.025 552.69 280.021 549.805 222.168 c 0
 546.562 157.084 519.844 92.2344 471.68 48.3398 c 0
 428.178 8.69531 368.915 -12.2207 310.059 -12.207 c 0
 259.102 -12.1953 207.558 3.94531 168.457 36.6211 c 0
 135.966 63.7734 113.217 101.451 100.274 141.769 c 0
 87.333 182.086 83.2012 224.752 82.5195 267.09 c 0
 81.5723 325.948 86.1777 385.137 99.6699 442.436 c 0
 113.161 499.736 137.832 555.352 177.734 598.633 c 0
EndSplineSet
EndChar

StartChar: seven
Encoding: 55 55 61
Width: 634
Flags: MW
LayerCount: 4
Fore
SplineSet
560 694 m 1
 560 642 l 1
 266 0 l 1
 172 0 l 1
 456 621 l 1
 83 621 l 1
 83 694 l 1
 560 694 l 1
EndSplineSet
Validated: 1
Layer: 3
SplineSet
570.801 693.848 m 1
 570.801 641.602 l 1
 247.07 0 l 1
 150.391 0 l 1
 500.488 676.758 l 1
 522.949 615.723 l 1
 63.9639 615.723 l 1
 63.9639 693.848 l 1
 570.801 693.848 l 1
EndSplineSet
EndChar

StartChar: five
Encoding: 53 53 62
Width: 634
Flags: MW
LayerCount: 4
Fore
SplineSet
274 364 m 0
 231 364 193 359 150 354 c 0
 143 353 135 353 128 352 c 1
 128 360 l 1
 128 694 l 1
 528 694 l 1
 528 621 l 1
 208 621 l 1
 208 431 l 1
 246 435 280 438 310 438 c 0
 437 438 510 393 548 314 c 0
 561 285 568 255 568 224 c 0
 568 151 541 95 490 52 c 0
 459 27 425 8 385 0 c 0
 349 -8 315 -10 282 -10 c 0
 230 -10 158 1 97 23 c 1
 120 101 l 1
 169 86 215 70 276 70 c 0
 324 70 383 73 423 102 c 0
 456 126 485 159 485 213 c 0
 485 258 471 295 442 322 c 0
 401 359 348 364 274 364 c 0
EndSplineSet
Validated: 1
Layer: 3
SplineSet
114.74 693.848 m 1
 532.705 693.848 l 1
 532.705 620.605 l 1
 194.33 620.605 l 1
 194.818 431.152 l 1
 218.508 433.812 242.291 435.656 266.113 436.523 c 0
 301.563 437.814 337.266 437.063 372.176 430.763 c 0
 407.086 424.462 441.244 412.084 470.207 391.602 c 0
 498.091 371.883 520.698 344.807 535.195 313.885 c 0
 549.692 282.964 556.27 248.489 555.166 214.355 c 0
 553.169 152.42 524.688 91.3799 477.043 51.7578 c 0
 444.74 24.8955 404.828 8.18848 363.715 -0.456055 c 0
 322.601 -9.10156 280.271 -10.4873 238.275 -9.27734 c 0
 201.156 -8.20801 164.097 -5.03027 127.333 0.207031 c 0
 112.992 2.25 98.6982 4.62207 84.4668 7.32422 c 1
 100.092 81.0547 l 1
 112.697 78.3926 125.38 76.0996 138.118 74.1719 c 0
 168.049 69.6406 198.26 67.0449 228.51 65.918 c 0
 259.682 64.7559 291.049 65.0254 321.863 69.8672 c 0
 352.68 74.709 383.142 84.6328 408.684 102.539 c 0
 429.041 116.809 445.981 136.146 456.447 158.695 c 0
 466.913 181.244 470.758 206.83 467.277 231.445 c 0
 462.822 262.96 446.346 292.344 422.863 313.828 c 0
 399.381 335.314 369.426 348.951 338.379 355.957 c 0
 301.852 364.2 263.947 363.937 226.562 361.816 c 0
 189.188 359.697 151.929 355.855 114.74 351.562 c 1
 114.74 693.848 l 1
EndSplineSet
EndChar

StartChar: two
Encoding: 50 50 63
Width: 634
Flags: MW
LayerCount: 4
Fore
SplineSet
132 582 m 1
 104 653 l 1
 176 681 219 706 313 706 c 0
 429 706 522 626 522 509 c 0
 522 400 430 293 343 200 c 1
 219 73 l 1
 529 73 l 1
 529 0 l 1
 98 0 l 1
 98 62 l 1
 274 244 l 1
 372 349 436 428 436 499 c 0
 436 557 407 630 303 630 c 0
 233 630 198 607 132 582 c 1
EndSplineSet
Validated: 1
Layer: 2
SplineSet
324.167 702 m 4
 434.141 702 536.167 642.348 536.167 538 c 4
 536.167 459.754 488.388 402.208 429.167 380 c 5
 510.271 357.567 566.167 307.273 566.167 213 c 4
 566.167 143 541.167 86 490.167 43 c 4
 439.167 0 375.167 -22 297.167 -22 c 6
 295.167 -22 l 6
 236.167 -22 177.167 -9 116.167 16 c 5
 139.167 83 l 5
 207.167 64 264.167 55 308.167 55 c 4
 352.167 55 392.167 68 428.167 94 c 4
 464.167 120 482.167 154 482.167 195 c 4
 482.167 238 461.167 274 418.167 301 c 4
 383.167 323 334.167 334 270.167 334 c 6
 260.167 334 l 5
 260.167 405 l 5
 342.167 408 398.167 427 428.167 463 c 4
 444.167 482 452.167 504 452.167 529 c 4
 452.167 592.15 382.398 627 311.167 627 c 4
 267.167 627 216.167 613 157.167 586 c 5
 130.167 652 l 5
 197.167 685 262.167 702 324.167 702 c 4
EndSplineSet
Layer: 3
SplineSet
339.737 698.73 m 0
 372.464 699.082 405.394 695.142 436.54 685.088 c 0
 467.687 675.039 497.05 658.672 520.401 635.742 c 0
 537.95 618.511 551.974 597.593 560.538 574.536 c 0
 569.103 551.479 572.081 526.382 569.229 501.953 c 0
 565.187 467.295 549.444 434.713 528.126 407.09 c 0
 506.806 379.467 480.343 356.287 453.507 333.984 c 0
 428.983 313.604 404.007 293.748 380.265 272.461 c 0
 340.917 237.183 304.954 197.636 277.726 152.344 c 0
 253.604 112.219 236.356 67.9326 227.433 21.9727 c 1
 215.226 73.2422 l 1
 582.901 73.2422 l 1
 582.901 0 l 1
 140.03 0 l 1
 140.03 45.4102 l 1
 162.524 115.748 199.045 181.364 245.499 238.77 c 0
 275.075 275.318 308.399 308.726 343.644 339.844 c 0
 371.203 364.177 400.743 386.17 428.605 410.156 c 0
 440.105 420.057 451.19 430.555 460.469 442.562 c 0
 469.747 454.57 477.114 468.202 480.851 482.91 c 0
 485.319 500.503 484.345 519.385 478.366 536.523 c 0
 472.388 553.662 461.711 568.965 448.624 581.543 c 0
 431.933 597.588 411.411 609.443 389.528 617.007 c 0
 367.646 624.565 344.321 627.705 321.183 626.953 c 0
 288.36 625.889 256.29 617.197 224.907 607.529 c 0
 198.456 599.38 172.197 590.63 145.89 582.031 c 1
 126.847 644.043 l 1
 148.183 654.639 170.194 663.877 192.713 671.65 c 0
 240.017 687.983 289.696 698.188 339.737 698.73 c 0
EndSplineSet
EndChar

StartChar: three
Encoding: 51 51 64
Width: 634
Flags: MW
LayerCount: 4
Fore
SplineSet
305 706 m 0
 435 706 515 642 515 538 c 0
 515 460 463 401 410 375 c 1
 481 356 547 297 547 203 c 0
 547 133 524 85 473 42 c 0
 422 -1 365 -10 297 -10 c 0
 217 -10 147 10 86 32 c 1
 110 104 l 1
 170 84 238 63 292 63 c 0
 336 63 374 70 410 96 c 0
 446 122 464 154 464 195 c 0
 464 238 447 273 404 300 c 0
 369 322 315 334 251 334 c 2
 241 334 l 1
 241 405 l 1
 323 408 375 425 405 461 c 0
 421 480 432 503 432 528 c 0
 432 596 390 632 293 632 c 0
 249 632 197 613 138 586 c 1
 111 652 l 1
 178 685 243 706 305 706 c 0
EndSplineSet
Validated: 1
Layer: 3
SplineSet
455.025 537.598 m 4
 455.025 464.355 412.058 404.297 348.581 379.883 c 5
 447.214 353.516 485.3 288.574 485.3 212.891 c 4
 485.3 71.7773 371.042 -21.4844 216.257 -21.9727 c 5
 214.304 -21.9727 l 6
 160.593 -21.9727 97.6045 -10.2539 35.1045 15.625 c 5
 58.542 83.0078 l 5
 143.99 59.5703 185.495 55.1758 217.232 55.1758 c 4
 316.354 55.1758 400.827 110.84 400.827 194.824 c 4
 400.827 250.488 357.37 333.984 189.4 333.984 c 4
 185.982 333.984 183.054 333.984 179.636 333.984 c 5
 179.636 405.273 l 5
 332.468 409.668 371.042 477.051 371.042 524.414 c 4
 371.042 578.613 320.749 626.953 235.3 626.953 c 4
 175.24 626.953 114.206 604.004 76.1201 586.426 c 5
 49.2646 652.344 l 5
 93.6973 674.316 166.939 702.148 245.554 702.148 c 4
 366.646 702.148 455.025 631.836 455.025 537.598 c 4
EndSplineSet
EndChar

StartChar: one
Encoding: 49 49 65
Width: 634
Flags: MW
LayerCount: 4
Fore
SplineSet
373 694 m 1
 373 73 l 1
 534 73 l 1
 534 0 l 1
 121 0 l 1
 121 73 l 1
 294 73 l 1
 294 616 l 1
 159 561 l 1
 129 629 l 1
 278 694 l 1
 373 694 l 1
EndSplineSet
Validated: 1
Layer: 3
SplineSet
125.078 72.7539 m 1
 529.375 72.7539 l 1
 529.375 0 l 1
 125.078 0 l 1
 125.078 72.7539 l 1
272.539 693.848 m 1
 368.242 693.848 l 1
 368.242 0 l 1
 288.164 0 l 1
 288.164 646.484 l 1
 321.367 626.953 l 1
 135.82 553.711 l 1
 104.57 625.488 l 1
 272.539 693.848 l 1
EndSplineSet
EndChar

StartChar: zero
Encoding: 48 48 66
Width: 634
Flags: MW
LayerCount: 4
Fore
SplineSet
318 626 m 0
 190 626 136 497 136 358 c 0
 136 223 171 135 239 90 c 0
 263 74 289 70 318 70 c 0
 347 70 373 72 397 90 c 0
 463 138 500 231 500 358 c 0
 500 474 466 551 404 599 c 0
 379 618 347 626 318 626 c 0
54 358 m 0
 54 467 78 548 126 608 c 0
 177 671 242 706 318 706 c 0
 361 706 397 693 433 673 c 0
 532 618 582 514 582 358 c 0
 582 191 529 69 419 14 c 0
 387 -2 354 -10 318 -10 c 0
 282 -10 246 -1 213 16 c 0
 109 70 54 194 54 358 c 0
EndSplineSet
Validated: 1
Layer: 3
SplineSet
323.736 703.125 m 0
 361.925 701.997 399.774 691.426 433.117 672.773 c 0
 466.459 654.116 495.142 627.461 517.095 596.191 c 0
 542.524 559.966 558.906 517.91 568.477 474.698 c 0
 578.042 431.486 581.284 387.025 580.571 342.773 c 0
 579.824 296.534 574.795 250.2 562.964 205.494 c 0
 551.128 160.789 531.89 117.6 502.935 81.543 c 0
 480.498 53.6035 452.275 30.1934 420.182 14.2568 c 0
 388.088 -1.67969 352.244 -10.0557 316.412 -9.76562 c 0
 280.283 -9.47363 244.297 -0.375 212.224 16.2559 c 0
 180.15 32.8867 152.104 56.957 129.889 85.4492 c 0
 101.926 121.312 83.2461 163.816 71.6475 207.789 c 0
 60.0488 251.761 55.0059 297.305 54.2051 342.773 c 0
 53.3652 390.363 57.1484 438.23 68.4805 484.459 c 0
 79.8125 530.688 99.3711 575.376 129.4 612.305 c 0
 152.778 641.055 182.399 664.814 215.916 680.62 c 0
 249.434 696.421 286.697 704.219 323.736 703.125 c 0
314.947 628.418 m 0
 287.949 628.042 261.237 619.624 238.41 605.2 c 0
 215.584 590.781 196.652 570.615 182.135 547.852 c 0
 163.035 517.9 151.344 483.67 144.501 448.813 c 0
 137.658 413.957 135.434 378.286 136.236 342.773 c 0
 137.752 275.604 148.621 206.586 183.111 148.926 c 0
 197.401 125.035 216.172 103.546 239.324 88.085 c 0
 262.475 72.624 290.037 63.5566 317.877 63.4766 c 0
 347.846 63.3906 377.504 73.7803 401.788 91.3418 c 0
 426.072 108.902 445.058 133.135 458.99 159.668 c 0
 488.273 215.439 497.617 279.789 498.54 342.773 c 0
 499.429 403.277 492.28 465.133 466.803 520.02 c 0
 452.936 549.893 433.048 577.388 406.805 597.29 c 0
 380.562 617.188 347.879 628.877 314.947 628.418 c 0
EndSplineSet
EndChar

StartChar: four
Encoding: 52 52 67
Width: 634
Flags: MW
LayerCount: 4
Fore
SplineSet
466 694 m 1
 466 239 l 1
 585 239 l 1
 585 166 l 1
 466 166 l 1
 466 0 l 1
 387 0 l 1
 387 166 l 1
 52 166 l 1
 52 224 l 1
 346 694 l 1
 466 694 l 1
387 239 m 1
 387 616 l 1
 151 239 l 1
 387 239 l 1
EndSplineSet
Validated: 1
Layer: 3
SplineSet
338.867 693.848 m 1
 455.078 693.848 l 1
 455.078 0 l 1
 375 0 l 1
 375 614.746 l 1
 154.297 241.211 l 1
 576.172 241.211 l 1
 576.172 167.969 l 1
 58.5938 167.969 l 1
 58.5938 222.656 l 1
 338.867 693.848 l 1
EndSplineSet
EndChar

StartChar: period
Encoding: 46 46 68
Width: 278
VWidth: 1023
Flags: MW
LayerCount: 4
Fore
SplineSet
88 100 m 5
 190 100 l 5
 190 0 l 1
 88 0 l 1
 88 100 l 5
EndSplineSet
Validated: 1
Layer: 3
SplineSet
87.8906 102.539 m 1
 190.43 102.539 l 1
 190.43 0 l 1
 87.8906 0 l 1
 87.8906 102.539 l 1
EndSplineSet
EndChar

StartChar: comma
Encoding: 44 44 69
Width: 278
VWidth: 1023
Flags: MW
LayerCount: 4
Fore
SplineSet
98 83 m 1
 186 83 l 1
 108 -107 l 1
 21 -107 l 1
 98 83 l 1
EndSplineSet
Validated: 1
Layer: 3
SplineSet
97.6562 83.0078 m 5
 185.547 83.0078 l 5
 108.398 -107.422 l 5
 20.5078 -107.422 l 5
 97.6562 83.0078 l 5
EndSplineSet
EndChar

StartChar: bracketleft
Encoding: 91 91 70
Width: 324
VWidth: 1023
Flags: MW
LayerCount: 4
Back
SplineSet
159.668 737.793 m 5xd0
 345.703 737.793 l 5
 345.703 665.039 l 5xe0
 159.668 665.039 l 5
 159.668 737.793 l 5xd0
159.668 -127.441 m 5xd0
 345.703 -127.441 l 5
 345.703 -200.195 l 5xe0
 159.668 -200.195 l 5
 159.668 -127.441 l 5xd0
122.07 737.793 m 5
 202.148 737.793 l 5
 202.148 -200.195 l 5xd0
 122.07 -200.195 l 5
 122.07 737.793 l 5
EndSplineSet
Fore
SplineSet
304 -208 m 1
 80 -208 l 1
 80 730 l 1
 304 730 l 1
 304 657 l 1
 160 657 l 1
 160 -135 l 1
 304 -135 l 1
 304 -208 l 1
EndSplineSet
Validated: 1
Layer: 3
SplineSet
159.668 737.793 m 5
 345.703 737.793 l 5
 345.703 665.039 l 5
 159.668 665.039 l 5
 159.668 737.793 l 5
159.668 -127.441 m 5
 345.703 -127.441 l 5
 345.703 -200.195 l 5
 159.668 -200.195 l 5
 159.668 -127.441 l 5
122.07 737.793 m 5
 202.148 737.793 l 5
 202.148 -200.195 l 5
 122.07 -200.195 l 5
 122.07 737.793 l 5
EndSplineSet
EndChar

StartChar: bracketright
Encoding: 93 93 71
Width: 324
VWidth: 1023
Flags: MW
LayerCount: 4
Fore
SplineSet
244 -208 m 1
 20 -208 l 1
 20 -135 l 1
 164 -135 l 1
 164 657 l 1
 20 657 l 1
 20 730 l 1
 244 730 l 1
 244 -208 l 1
EndSplineSet
Validated: 1
Layer: 3
SplineSet
24.4141 737.793 m 5
 210.449 737.793 l 5
 210.449 665.039 l 5
 24.4141 665.039 l 5
 24.4141 737.793 l 5
24.4141 -127.441 m 5
 210.449 -127.441 l 5
 210.449 -200.195 l 5
 24.4141 -200.195 l 5
 24.4141 -127.441 l 5
167.969 737.793 m 5
 248.047 737.793 l 5
 248.047 -200.195 l 5
 167.969 -200.195 l 5
 167.969 737.793 l 5
EndSplineSet
EndChar

StartChar: parenleft
Encoding: 40 40 72
Width: 362
VWidth: 1023
Flags: MW
LayerCount: 4
Fore
SplineSet
193 254 m 0
 193 84 251 -67 323 -184 c 1
 260 -225 l 1
 213 -148 175 -68 148 15 c 0
 121 98 107 188 107 265 c 0
 107 450 182 604 259 730 c 1
 323 696 l 1
 280 625 248 551 226 475 c 0
 204 399 193 325 193 254 c 0
EndSplineSet
Validated: 1
Layer: 3
SplineSet
258.789 755.859 m 1
 323.242 722.168 l 1
 281.284 651.978 247.925 576.572 225.098 498.047 c 0
 204.59 427.5 192.907 354.229 192.871 280.762 c 0
 192.835 207.29 204.458 133.989 225.098 63.4766 c 0
 247.863 -14.2988 281.212 -88.916 323.242 -158.203 c 1
 260.254 -199.219 l 1
 215.076 -124.729 177.422 -45.5488 149.902 37.1094 c 0
 123.746 115.673 107.46 197.959 107.422 280.762 c 0
 107.384 363.571 123.604 445.894 149.902 524.414 c 0
 177.035 605.43 214.155 683.008 258.789 755.859 c 1
EndSplineSet
EndChar

StartChar: parenright
Encoding: 41 41 73
Width: 362
VWidth: 1023
Flags: MW
LayerCount: 4
Fore
SplineSet
255 255 m 0
 255 178 242 98 214 15 c 0
 186 -68 149 -148 102 -225 c 1
 39 -184 l 1
 126 -41 169 105 169 255 c 0
 169 326 158 399 136 475 c 0
 114 551 82 625 39 696 c 1
 104 730 l 1
 150 655 187 577 214 495 c 0
 241 413 255 332 255 255 c 0
EndSplineSet
Validated: 1
Layer: 3
SplineSet
103.516 755.859 m 1
 148.149 683.008 185.27 605.43 212.402 524.414 c 0
 238.7 445.894 254.921 363.571 254.883 280.762 c 0
 254.845 197.959 238.559 115.673 212.402 37.1094 c 0
 184.883 -45.5488 147.229 -124.729 102.051 -199.219 c 1
 39.0625 -158.203 l 1
 81.0928 -88.916 114.441 -14.2988 137.207 63.4766 c 0
 157.847 133.989 169.47 207.29 169.434 280.762 c 0
 169.397 354.229 157.715 427.5 137.207 498.047 c 0
 114.38 576.572 81.0205 651.978 39.0625 722.168 c 1
 103.516 755.859 l 1
EndSplineSet
EndChar

StartChar: slash
Encoding: 47 47 74
Width: 354
VWidth: 1023
Flags: MW
LayerCount: 4
Fore
SplineSet
262 694 m 1
 345 694 l 1
 103 -44 l 1
 20 -44 l 1
 262 694 l 1
EndSplineSet
Validated: 1
Layer: 3
SplineSet
261.719 693.848 m 5
 344.727 693.848 l 5
 102.539 -43.9453 l 5
 19.5312 -43.9453 l 5
 261.719 693.848 l 5
EndSplineSet
EndChar

StartChar: backslash
Encoding: 92 92 75
Width: 354
VWidth: 1023
Flags: MW
LayerCount: 4
Fore
SplineSet
10 694 m 1
 93 694 l 1
 335 -44 l 1
 252 -44 l 1
 10 694 l 1
EndSplineSet
Validated: 1
Layer: 3
SplineSet
9.76562 693.848 m 1
 92.7734 693.848 l 1
 334.961 -43.9453 l 1
 251.953 -43.9453 l 1
 9.76562 693.848 l 1
EndSplineSet
EndChar

StartChar: plus
Encoding: 43 43 76
Width: 683
VWidth: 1023
Flags: MW
LayerCount: 4
Fore
SplineSet
306 602 m 1
 378 602 l 1
 378 355 l 1
 623 355 l 1
 623 288 l 1
 378 288 l 1
 378 41 l 1
 306 41 l 1
 306 288 l 1
 61 288 l 1
 61 355 l 1
 306 355 l 1
 306 602 l 1
EndSplineSet
Validated: 1
Layer: 3
SplineSet
305.664 602.051 m 1
 377.93 602.051 l 1
 377.93 40.5273 l 1
 305.664 40.5273 l 1
 305.664 602.051 l 1
61.0352 354.98 m 1
 622.559 354.98 l 1
 622.559 287.598 l 1
 61.0352 287.598 l 1
 61.0352 354.98 l 1
EndSplineSet
EndChar

StartChar: asterisk
Encoding: 42 42 77
Width: 583
VWidth: 1023
Flags: MW
LayerCount: 4
Fore
SplineSet
250 692 m 1
 333 692 l 1
 325 536 l 1
 455 622 l 1
 496 549 l 1
 357 480 l 1
 496 410 l 1
 455 337 l 1
 325 423 l 1
 333 268 l 1
 250 268 l 1
 259 423 l 1
 129 337 l 1
 88 410 l 1
 227 480 l 1
 88 549 l 1
 129 622 l 1
 259 536 l 1
 250 692 l 1
EndSplineSet
Validated: 1
Layer: 3
SplineSet
454.59 623.535 m 1
 496.094 551.27 l 1
 306.641 456.055 l 1
 129.395 339.355 l 1
 87.8906 411.621 l 1
 277.344 506.836 l 1
 454.59 623.535 l 1
87.8906 551.27 m 1
 129.395 623.535 l 1
 306.641 506.836 l 1
 496.094 411.621 l 1
 454.59 339.355 l 1
 277.344 456.055 l 1
 87.8906 551.27 l 1
250.488 693.359 m 1
 333.496 693.359 l 1
 321.289 481.445 l 1
 333.496 269.531 l 1
 250.488 269.531 l 1
 262.695 481.445 l 1
 250.488 693.359 l 1
EndSplineSet
EndChar

StartChar: numbersign
Encoding: 35 35 78
Width: 691
VWidth: 1023
Flags: HMW
LayerCount: 4
Fore
SplineSet
180 694 m 1
 258 694 l 1
 258 506 l 1
 433 506 l 1
 433 694 l 1
 511 694 l 1
 511 506 l 1
 666 506 l 1
 666 433 l 1
 511 433 l 1
 511 261 l 1
 666 261 l 1
 666 188 l 1
 511 188 l 1
 511 0 l 1
 433 0 l 1
 433 188 l 1
 258 188 l 1
 258 0 l 1
 180 0 l 1
 180 188 l 1
 26 188 l 1
 26 261 l 1
 180 261 l 1
 180 433 l 1
 25 433 l 1
 25 506 l 1
 180 506 l 1
 180 694 l 1
258 261 m 1
 433 261 l 1
 433 433 l 1
 258 433 l 1
 258 261 l 1
EndSplineSet
Layer: 3
SplineSet
24.97265625 502.9296875 m 25
 665.59765625 502.9296875 l 25
 665.59765625 429.688476562 l 25
 24.97265625 429.688476562 l 25
 24.97265625 502.9296875 l 25
25.94921875 257.811523438 m 25
 665.59765625 257.811523438 l 25
 665.59765625 184.5703125 l 25
 25.94921875 184.5703125 l 25
 25.94921875 257.811523438 l 25
433.17578125 693.84765625 m 1
 511.30078125 693.84765625 l 1
 511.30078125 -14.6484375 l 1
 433.17578125 -14.6484375 l 1
 433.17578125 693.84765625 l 1
180.24609375 693.84765625 m 1
 258.37109375 693.84765625 l 1
 258.37109375 -14.6484375 l 1
 180.24609375 -14.6484375 l 1
 180.24609375 693.84765625 l 1
EndSplineSet
EndChar

StartChar: dollar
Encoding: 36 36 79
Width: 585
VWidth: 1023
Flags: HMW
LayerCount: 4
Fore
SplineSet
133 200 m 1
 186 178 207 166 270 166 c 0
 317 166 355 172 379 196 c 0
 391 208 397 222 397 238 c 0
 397 291 349 296 310 311 c 0
 277 323 241 330 210 346 c 0
 194 354 179 363 166 373 c 0
 137 394 123 424 123 462 c 0
 123 514 157 549 188 569 c 0
 209 582 236 592 270 598 c 1
 270 730 l 1
 329 730 l 1
 329 604 l 1
 350 604 369 603 387 601 c 0
 399 600 416 597 425 594 c 2
 436 591 l 2
 441 590 448 587 458 584 c 1
 438 523 l 1
 394 535 359 541 333 541 c 0
 276 541 240 535 218 504 c 0
 210 493 206 482 206 469 c 0
 206 435 248 419 278 409 c 0
 321 395 373 377 412 358 c 0
 445 342 485 305 485 261 c 0
 485 220 478 201 460 175 c 0
 435 138 391 114 329 106 c 1
 329 -23 l 1
 270 -23 l 1
 270 103 l 1
 221 103 168 116 111 139 c 1
 133 200 l 1
EndSplineSet
Validated: 1
Layer: 3
SplineSet
269.53125 142.08984375 m 21
 328.61328125 142.08984375 l 13
 328.61328125 -31.73828125 l 29
 269.53125 -31.73828125 l 29
 269.53125 142.08984375 l 21
269.53125 737.79296875 m 29
 328.61328125 737.79296875 l 29
 328.61328125 577.1484375 l 29
 269.53125 577.1484375 l 29
 269.53125 737.79296875 l 29
335.44921875 610.83984375 m 4
 397.94921875 610.83984375 423.33984375 601.561523438 458.0078125 591.30859375 c 5
 437.5 530.2734375 l 5
 405.76171875 539.061523438 371.09375 548.33984375 322.265625 548.33984375 c 4
 220.703125 548.33984375 205.56640625 498.53515625 205.56640625 477.05078125 c 4
 205.56640625 390.625 484.86328125 411.1328125 484.86328125 260.7421875 c 4
 484.86328125 200.1953125 446.2890625 109.86328125 274.90234375 109.86328125 c 4
 238.76953125 109.86328125 181.15234375 117.67578125 110.83984375 146.484375 c 5
 133.30078125 207.03125 l 5
 194.82421875 181.15234375 226.561523438 172.8515625 268.5546875 172.8515625 c 4
 339.35546875 172.8515625 397.4609375 188.4765625 397.4609375 251.46484375 c 4
 397.4609375 343.75 122.55859375 307.12890625 122.55859375 468.75 c 4
 122.55859375 522.94921875 166.9921875 610.83984375 335.44921875 610.83984375 c 4
EndSplineSet
EndChar

StartChar: semicolon
Encoding: 59 59 80
Width: 278
VWidth: 1023
Flags: MW
LayerCount: 4
Fore
SplineSet
88 482 m 1
 190 482 l 1
 190 382 l 1
 88 382 l 1
 88 482 l 1
98 100 m 5
 186 100 l 5
 108 -90 l 5
 21 -90 l 5
 98 100 l 5
EndSplineSet
Validated: 1
Layer: 3
SplineSet
97.6562 83.0078 m 1
 185.547 83.0078 l 1
 108.398 -107.422 l 1
 20.5078 -107.422 l 1
 97.6562 83.0078 l 1
87.8906 484.863 m 1
 190.43 484.863 l 1
 190.43 382.324 l 1
 87.8906 382.324 l 1
 87.8906 484.863 l 1
-408.691 410.156 m 1024
EndSplineSet
EndChar

StartChar: colon
Encoding: 58 58 81
Width: 278
VWidth: 1023
Flags: MW
LayerCount: 4
Fore
SplineSet
88 100 m 1
 190 100 l 1
 190 0 l 1
 88 0 l 1
 88 100 l 1
88 482 m 1
 190 482 l 5
 190 382 l 1
 88 382 l 1
 88 482 l 1
EndSplineSet
Validated: 1
Layer: 3
SplineSet
87.8906 484.863 m 1
 190.43 484.863 l 1
 190.43 382.324 l 1
 87.8906 382.324 l 1
 87.8906 484.863 l 1
87.8906 102.539 m 1
 190.43 102.539 l 1
 190.43 0 l 1
 87.8906 0 l 1
 87.8906 102.539 l 1
EndSplineSet
EndChar

StartChar: equal
Encoding: 61 61 82
Width: 683
VWidth: 1023
Flags: MW
LayerCount: 4
Fore
SplineSet
107 466 m 1
 576 466 l 1
 576 393 l 1
 107 393 l 1
 107 466 l 1
107 245 m 1
 576 245 l 1
 576 171 l 1
 107 171 l 1
 107 245 l 1
EndSplineSet
Validated: 1
Layer: 3
SplineSet
107.422 244.629 m 1
 576.172 244.629 l 1
 576.172 171.387 l 1
 107.422 171.387 l 1
 107.422 244.629 l 1
107.422 465.82 m 1
 576.172 465.82 l 1
 576.172 392.578 l 1
 107.422 392.578 l 1
 107.422 465.82 l 1
EndSplineSet
EndChar

StartChar: quotedbl
Encoding: 34 34 83
Width: 388
VWidth: 1023
Flags: MW
LayerCount: 4
Fore
SplineSet
54 730 m 1
 144 730 l 1
 144 529 l 1
 54 529 l 1
 54 730 l 1
244 730 m 1
 334 730 l 1
 334 529 l 1
 244 529 l 1
 244 730 l 1
EndSplineSet
Validated: 1
Layer: 3
SplineSet
244.141 737.793 m 1
 334.473 737.793 l 1
 334.473 528.809 l 1
 244.141 528.809 l 1
 244.141 737.793 l 1
53.7109 737.793 m 1
 144.043 737.793 l 1
 144.043 528.809 l 1
 53.7109 528.809 l 1
 53.7109 737.793 l 1
EndSplineSet
EndChar

StartChar: quotesingle
Encoding: 39 39 84
Width: 197
VWidth: 1023
Flags: MW
LayerCount: 4
Fore
SplineSet
54 730 m 1
 144 730 l 1
 144 529 l 1
 54 529 l 1
 54 730 l 1
EndSplineSet
Validated: 1
Layer: 3
SplineSet
53.7109 737.793 m 5
 144.043 737.793 l 5
 144.043 528.809 l 5
 53.7109 528.809 l 5
 53.7109 737.793 l 5
EndSplineSet
EndChar

StartChar: underscore
Encoding: 95 95 85
Width: 566
VWidth: 1023
Flags: MW
LayerCount: 4
Fore
SplineSet
73 73 m 5
 493 73 l 1
 493 0 l 1
 73 0 l 1
 73 73 l 5
EndSplineSet
Validated: 1
Layer: 3
SplineSet
73.2422 73.2422 m 1
 493.164 73.2422 l 1
 493.164 0 l 1
 73.2422 0 l 1
 73.2422 73.2422 l 1
EndSplineSet
EndChar

StartChar: percent
Encoding: 37 37 86
Width: 743
VWidth: 1023
Flags: MW
LayerCount: 4
Fore
SplineSet
573 48 m 0
 640 48 661 79 661 153 c 0
 661 217 638 260 582 260 c 0
 519 260 493 223 493 153 c 0
 493 84 516 48 573 48 c 0
428 155 m 0
 428 244 484 318 574 318 c 0
 678 318 723 254 723 153 c 0
 723 59 672 -10 578 -10 c 0
 474 -10 428 50 428 155 c 0
161 434 m 0
 230 434 250 464 250 539 c 0
 250 604 226 647 170 647 c 0
 108 647 82 610 82 539 c 0
 82 470 104 434 161 434 c 0
20 541 m 0
 20 631 74 706 162 706 c 0
 267 706 315 641 315 539 c 0
 315 444 260 376 165 376 c 0
 63 376 20 435 20 541 c 0
678 692 m 1
 145 0 l 1
 58 0 l 1
 590 692 l 1
 678 692 l 1
EndSplineSet
Validated: 1
Layer: 3
SplineSet
553.6484375 693.84765625 m 1
 636.65625 693.84765625 l 1
 163.51171875 0 l 1
 80.50390625 0 l 1
 553.6484375 693.84765625 l 1
519.95703125 309.08203125 m 0
 560.97265625 309.08203125 636.16796875 285.64453125 636.16796875 171.38671875 c 0
 636.16796875 82.51953125 581.48046875 27.34375 519.46875 27.34375 c 0
 463.31640625 27.34375 403.74609375 64.453125 403.74609375 171.875 c 0
 403.74609375 261.71875 464.29296875 309.08203125 519.95703125 309.08203125 c 0
519.46875 262.20703125 m 0
 490.66015625 261.71875 451.109375 240.234375 451.109375 172.36328125 c 0
 451.109375 91.796875 494.56640625 72.75390625 519.95703125 72.75390625 c 0
 547.30078125 72.75390625 588.31640625 93.75 588.31640625 169.921875 c 0
 588.31640625 244.140625 545.8359375 262.20703125 519.46875 262.20703125 c 0
198.66796875 665.52734375 m 0
 239.68359375 665.52734375 309.5078125 647.4609375 309.5078125 533.203125 c 0
 309.5078125 444.3359375 260.19140625 393.5546875 198.1796875 393.5546875 c 0
 142.02734375 393.5546875 86.8515625 426.26953125 86.8515625 533.69140625 c 0
 86.8515625 623.53515625 143.00390625 665.52734375 198.66796875 665.52734375 c 0
198.1796875 619.140625 m 0
 169.37109375 618.65234375 134.703125 602.05078125 134.703125 534.1796875 c 0
 134.703125 453.61328125 173.27734375 439.453125 198.66796875 439.453125 c 0
 226.01171875 439.453125 262.14453125 455.56640625 262.14453125 531.73828125 c 0
 262.14453125 605.95703125 224.546875 619.140625 198.1796875 619.140625 c 0
EndSplineSet
EndChar

StartChar: braceright
Encoding: 125 125 87
Width: 389
VWidth: 1023
Flags: MW
LayerCount: 4
Fore
SplineSet
27 -146 m 1
 106 -136 141 -68 149 24 c 1
 149 55 154 97 159 126 c 0
 169 183 201 234 242 261 c 1
 196 291 167 340 157 406 c 0
 155 417 153 446 150 495 c 0
 144 590 106 654 27 667 c 1
 42 730 l 1
 150 723 209 633 220 520 c 0
 220 515 222 503 223 484 c 0
 225 438 230 400 249 365 c 0
 271 325 304 301 346 294 c 1
 346 227 l 1
 304 220 272 197 250 158 c 0
 222 108 226 47 219 -21 c 0
 209 -120 137 -201 42 -209 c 1
 27 -146 l 1
EndSplineSet
Validated: 1
Layer: 3
SplineSet
163.086 678.223 m 4
 132.201 712.549 88.0332 734.79 41.9922 738.281 c 5
 27.3438 675.293 l 5
 64.1543 670.21 97.7852 647.773 118.164 616.699 c 4
 140.789 582.197 147.023 539.692 149.902 498.535 c 4
 151.891 470.109 152.854 441.551 157.313 413.406 c 4
 161.773 385.264 169.836 357.473 183.594 332.52 c 4
 196.002 310.013 213.001 289.965 233.631 274.638 c 4
 254.262 259.311 278.428 248.758 303.711 244.141 c 5
 303.711 292.969 l 5
 278.481 288.379 254.355 277.893 233.729 262.656 c 4
 213.104 247.419 196.07 227.482 183.594 205.078 c 4
 169.125 179.097 160.871 150.014 156.424 120.609 c 4
 151.978 91.2051 151.218 61.3887 148.926 31.7383 c 4
 145.938 -6.91113 139.292 -46.6006 118.164 -79.1016 c 4
 97.8975 -110.277 64.2021 -132.784 27.3438 -137.695 c 5
 41.9922 -200.684 l 5
 87.9688 -196.875 132.027 -174.738 163.086 -140.625 c 4
 180.789 -121.181 194.339 -98.0938 203.543 -73.46 c 4
 212.747 -48.8281 217.572 -22.7451 220.215 3.41797 c 4
 223.008 31.0654 223.467 58.9238 226.75 86.5176 c 4
 230.033 114.11 236.526 141.713 250 166.016 c 4
 259.867 183.813 273.404 199.644 289.861 211.615 c 4
 306.318 223.586 325.608 231.648 345.703 234.863 c 5
 345.703 302.246 l 5
 325.6 305.627 306.332 313.809 289.887 325.854 c 4
 273.441 337.9 259.902 353.764 250 371.582 c 4
 237.011 394.957 230.381 421.387 226.878 447.896 c 4
 223.375 474.408 222.674 501.206 220.215 527.832 c 4
 217.703 555.024 213.233 582.192 204.141 607.944 c 4
 195.049 633.691 181.352 657.925 163.086 678.223 c 4
EndSplineSet
EndChar

StartChar: asciitilde
Encoding: 126 126 88
Width: 515
VWidth: 1023
Flags: HMW
LayerCount: 4
Fore
SplineSet
356.115234375 216.459960938 m 4
 310.134765625 216.459960938 275.044921875 240.659179688 247.215820312 266.0703125 c 6
 226.645507812 284.220703125 l 5
 209.705078125 301.159179688 189.134765625 322.940429688 164.934570312 322.940429688 c 4
 127.424804688 322.940429688 120.165039062 286.640625 111.6953125 245.5 c 5
 106.854492188 215.25 l 5
 42.724609375 224.9296875 l 5
 52.404296875 275.75 l 6
 65.7158203125 344.720703125 95.9658203125 396.75 160.095703125 396.75 c 4
 207.284179688 396.75 238.745117188 371.340820312 267.784179688 345.9296875 c 5
 288.354492188 326.5703125 l 6
 305.294921875 309.629882812 327.075195312 290.270507812 350.065429688 290.270507812 c 4
 358.534179688 290.270507812 365.794921875 291.479492188 374.265625 297.529296875 c 4
 393.625 313.259765625 396.044921875 327.779296875 403.3046875 365.290039062 c 6
 409.354492188 395.540039062 l 5
 472.275390625 385.859375 l 5
 462.595703125 336.25 l 6
 449.284179688 267.279296875 420.245117188 216.459960938 356.115234375 216.459960938 c 4
EndSplineSet
Layer: 3
SplineSet
476.562 753.418 m 1
 529.297 745.117 l 1
 520.996 703.613 l 2
 518.633 691.787 516.206 679.937 512.285 668.53 c 0
 508.369 657.129 502.93 646.172 495.498 636.68 c 0
 488.064 627.183 478.643 619.209 467.899 613.735 c 0
 457.156 608.257 445.16 605.317 433.105 604.98 c 0
 419.31 604.595 405.536 607.578 392.727 612.72 c 0
 379.918 617.856 368.002 625.059 356.934 633.301 c 0
 340.75 645.352 327.189 660.483 312.5 674.316 c 0
 307.297 679.219 301.752 683.843 295.455 687.227 c 0
 289.158 690.61 282.045 692.646 274.902 692.383 c 0
 267.952 692.124 261.126 689.653 255.533 685.518 c 0
 249.941 681.382 245.607 675.703 242.457 669.502 c 0
 236.158 657.1 234.072 643.052 231.445 629.395 c 2
 226.562 604.004 l 1
 173.828 612.305 l 1
 182.129 653.809 l 2
 184.494 665.635 186.92 677.485 190.838 688.892 c 0
 194.756 700.293 200.193 711.25 207.627 720.742 c 0
 215.061 730.239 224.482 738.213 235.226 743.687 c 0
 245.969 749.165 257.965 752.104 270.02 752.441 c 0
 283.815 752.827 297.589 749.844 310.398 744.702 c 0
 323.207 739.565 335.123 732.363 346.191 724.121 c 0
 362.375 712.07 375.936 696.938 390.625 683.105 c 0
 395.828 678.203 401.373 673.579 407.67 670.195 c 0
 413.967 666.812 421.08 664.775 428.223 665.039 c 0
 435.173 665.298 441.999 667.769 447.592 671.904 c 0
 453.184 676.04 457.518 681.719 460.668 687.92 c 0
 466.967 700.322 469.053 714.37 471.68 728.027 c 2
 476.562 753.418 l 1
EndSplineSet
EndChar

StartChar: grave
Encoding: 96 96 89
Width: 463
VWidth: 0
Flags: HMW
LayerCount: 4
Fore
SplineSet
165 730 m 1
 343 572 l 1
 304 523 l 1
 120 677 l 1
 165 730 l 1
EndSplineSet
Validated: 1
Layer: 3
SplineSet
168.457 774.414 m 29
 414.551 623.047 l 25
 383.789 570.312 l 25
 133.789 714.355 l 25
 168.457 774.414 l 29
EndSplineSet
EndChar

StartChar: asciicircum
Encoding: 94 94 90
Width: 486
VWidth: 1023
Flags: HMW
LayerCount: 4
Fore
SplineSet
248 713 m 1
 413 534 l 1
 361 484 l 1
 242 613 l 1
 123 487 l 1
 73 532 l 1
 248 713 l 1
EndSplineSet
Validated: 1
Layer: 3
SplineSet
248.00390625 752.44140625 m 29
 373.00390625 612.79296875 l 21
 327.59375 569.82421875 l 5
 219.68359375 689.94140625 l 5
 273.8828125 699.70703125 l 5
 153.27734375 570.311523438 l 13
 110.30859375 608.3984375 l 29
 248.00390625 752.44140625 l 29
EndSplineSet
EndChar

StartChar: ampersand
Encoding: 38 38 91
Width: 775
VWidth: 1023
Flags: MW
LayerCount: 4
Fore
SplineSet
147 547 m 0
 149 647 241 705 339 706 c 0
 418 706 466 680 492 629 c 0
 500 614 503 582 503 564 c 0
 503 477 411 420 355 377 c 1
 525 196 l 1
 683 368 l 1
 729 322 l 1
 571 147 l 1
 709 0 l 1
 610 0 l 1
 515 98 l 1
 443 28 389 -10 266 -10 c 0
 168 -10 94 53 94 146 c 0
 94 217 117 264 172 315 c 0
 188 330 207 345 228 362 c 2
 246 376 l 1
 208 417 l 2
 167 461 147 504 147 547 c 0
427 552 m 0
 427 602 390 636 339 636 c 0
 299 636 265 619 249 598 c 0
 236 581 229 561 229 543 c 0
 229 507 260 476 285 451 c 2
 310 425 l 1
 353 458 l 2
 378 477 394 492 402 501 c 0
 418 519 427 536 427 552 c 0
175 173 m 0
 175 106 229 62 295 62 c 0
 347 62 396 75 453 130 c 1
 469 146 l 1
 293 328 l 1
 243 287 l 2
 194 246 175 217 175 173 c 0
EndSplineSet
Validated: 1
Layer: 3
SplineSet
342.773 703.125 m 0
 372.883 703.408 403.383 698.74 430.814 686.328 c 0
 458.248 673.916 482.266 652.969 495.605 625.977 c 0
 506.201 604.536 509.785 579.819 506.348 556.152 c 0
 500.913 518.721 478.688 485.623 452.171 458.65 c 0
 425.654 431.678 395.287 408.846 365.723 385.254 c 2
 269.043 308.105 l 2
 243.324 287.582 217.24 266.78 197.775 240.252 c 0
 178.311 213.724 166.327 180.655 169.922 147.949 c 0
 173.011 119.844 187.723 93.2617 209.746 75.5312 c 0
 231.77 57.7998 260.301 49 288.574 48.8281 c 0
 322.25 48.624 355.26 60.0605 384.277 77.1484 c 0
 422.401 99.5996 454.066 131.312 485.352 162.598 c 2
 495.605 172.852 l 1
 517.578 187.5 l 1
 683.105 368.164 l 1
 728.516 322.266 l 1
 568.359 143.555 l 1
 540.527 123.047 l 1
 533.203 115.723 l 2
 502.324 84.8438 471.461 53.4199 435.059 29.2969 c 0
 390.166 -0.452148 337.395 -17.9424 283.691 -21.9727 c 0
 257.78 -23.917 231.477 -22.6914 206.273 -16.3711 c 0
 181.069 -10.0498 157.043 1.69824 137.695 19.043 c 0
 120.689 34.2881 107.499 53.6846 99.1953 74.9609 c 0
 90.8926 96.2383 87.3691 119.256 87.8906 142.09 c 0
 88.9199 187.229 105.454 231.329 131.232 268.396 c 0
 157.01 305.465 192.297 334.701 228.027 362.305 c 2
 352.539 458.496 l 2
 369.882 471.895 387.758 484.912 402.346 501.265 c 0
 409.641 509.443 415.998 518.54 420.392 528.579 c 0
 424.785 538.618 427.146 549.595 426.758 560.547 c 0
 426.299 573.521 421.918 586.294 414.502 596.943 c 0
 407.086 607.598 396.787 616.113 385.254 622.07 c 0
 362.295 633.931 334.923 635.991 309.717 630.298 c 0
 284.512 624.604 260.65 610.981 245.117 590.332 c 0
 235.492 577.534 229.439 561.904 229.004 545.898 c 0
 228.668 533.56 231.635 521.235 236.882 510.063 c 0
 242.13 498.892 249.535 488.853 257.667 479.564 c 0
 273.931 460.991 292.18 444.264 309.082 426.27 c 2
 709.473 0 l 1
 610.352 0 l 1
 234.375 388.184 l 2
 208.22 415.188 181.83 442.891 165.009 476.513 c 0
 148.188 510.137 142.238 549.868 152.832 585.938 c 0
 158.444 605.044 168.381 622.822 181.391 637.9 c 0
 194.4 652.979 210.393 665.376 227.846 674.966 c 0
 262.752 694.155 302.943 702.749 342.773 703.125 c 0
EndSplineSet
EndChar

StartChar: less
Encoding: 60 60 92
Width: 523
VWidth: 1023
Flags: MW
LayerCount: 4
Fore
SplineSet
475 551 m 1
 475 475 l 1
 134 303 l 1
 475 139 l 1
 475 59 l 1
 49 260 l 1
 49 341 l 1
 475 551 l 1
EndSplineSet
Validated: 1
Layer: 3
SplineSet
475.098 550.781 m 5
 48.8281 340.82 l 5
 48.8281 260.254 l 5
 475.098 58.5938 l 5
 475.098 139.16 l 5
 83.9844 327.148 l 5
 83.9844 278.32 l 5
 475.098 475.098 l 5
 475.098 550.781 l 5
EndSplineSet
EndChar

StartChar: greater
Encoding: 62 62 93
Width: 523
VWidth: 1023
Flags: MW
LayerCount: 4
Fore
SplineSet
49 551 m 1
 475 341 l 1
 475 260 l 1
 49 59 l 1
 49 139 l 1
 390 303 l 1
 49 475 l 1
 49 551 l 1
EndSplineSet
Validated: 1
Layer: 3
SplineSet
48.8281 550.781 m 5
 475.098 340.82 l 5
 475.098 260.254 l 5
 48.8281 58.5938 l 5
 48.8281 139.16 l 5
 439.941 327.148 l 5
 439.941 278.32 l 5
 48.8281 475.098 l 5
 48.8281 550.781 l 5
EndSplineSet
EndChar

StartChar: braceleft
Encoding: 123 123 94
Width: 389
VWidth: 1023
Flags: MW
LayerCount: 4
Fore
SplineSet
241 24 m 1
 249 -69 282 -136 362 -146 c 1
 348 -209 l 1
 243 -200 180 -115 169 -5 c 0
 166 21 164 65 161 95 c 0
 154 163 103 217 44 227 c 1
 44 294 l 1
 105 304 151 359 161 425 c 0
 165 452 169 495 169 520 c 1
 178 615 216 679 282 712 c 0
 303 722 325 728 348 730 c 1
 362 667 l 1
 288 656 247 598 240 491 c 0
 237 445 233 411 230 390 c 0
 222 336 186 287 147 261 c 1
 199 227 229 168 236 85 c 0
 237 72 241 37 241 24 c 1
EndSplineSet
Validated: 1
Layer: 3
SplineSet
226.562 678.223 m 0
 257.447 712.549 301.615 734.79 347.656 738.281 c 1
 362.305 675.293 l 1
 325.494 670.21 291.863 647.773 271.484 616.699 c 0
 248.859 582.197 242.625 539.692 239.746 498.535 c 0
 237.758 470.109 236.795 441.551 232.335 413.406 c 0
 227.875 385.264 219.812 357.473 206.055 332.52 c 0
 193.646 310.013 176.647 289.965 156.018 274.638 c 0
 135.387 259.311 111.221 248.758 85.9375 244.141 c 1
 85.9375 292.969 l 5
 111.167 288.379 135.293 277.893 155.919 262.656 c 0
 176.545 247.419 193.578 227.482 206.055 205.078 c 0
 220.523 179.097 228.777 150.014 233.225 120.609 c 0
 237.671 91.2051 238.431 61.3887 240.723 31.7383 c 0
 243.711 -6.91113 250.356 -46.6006 271.484 -79.1016 c 0
 291.751 -110.277 325.446 -132.784 362.305 -137.695 c 1
 347.656 -200.684 l 1
 301.68 -196.875 257.621 -174.738 226.562 -140.625 c 0
 208.859 -121.181 195.31 -98.0938 186.105 -73.46 c 0
 176.901 -48.8281 172.076 -22.7451 169.434 3.41797 c 0
 166.641 31.0654 166.182 58.9238 162.898 86.5176 c 0
 159.615 114.11 153.122 141.713 139.648 166.016 c 0
 129.781 183.813 116.244 199.644 99.7871 211.615 c 0
 83.3301 223.586 64.04 231.648 43.9453 234.863 c 1
 43.9453 302.246 l 1
 64.0488 305.627 83.3164 313.809 99.7617 325.854 c 0
 116.207 337.9 129.746 353.764 139.648 371.582 c 0
 152.638 394.957 159.268 421.387 162.771 447.896 c 0
 166.273 474.408 166.975 501.206 169.434 527.832 c 0
 171.945 555.024 176.415 582.192 185.508 607.944 c 0
 194.6 633.691 208.297 657.925 226.562 678.223 c 0
EndSplineSet
EndChar

StartChar: sterling
Encoding: 163 163 95
Width: 634
VWidth: 1023
Flags: HMW
LayerCount: 4
Fore
SplineSet
74 66 m 1
 193 66 l 1
 193 323 l 1
 107 323 l 1
 107 389 l 1
 193 389 l 1
 193 458 l 2
 193 500 197 539 204 562 c 0
 231 646 318 706 431 706 c 0
 469 706 506 699 545 687 c 1
 522 628 l 1
 493 636 465 639 438 639 c 0
 390 639 354 624 330 605 c 0
 300 581 279 541 275 492 c 0
 274 477 273 462 273 445 c 2
 273 389 l 1
 532 389 l 1
 532 323 l 1
 273 323 l 1
 273 66 l 1
 561 66 l 1
 561 0 l 1
 74 0 l 1
 74 66 l 1
EndSplineSet
Validated: 1
Layer: 3
SplineSet
107.422 389.16 m 17
 532.227 389.16 l 9
 532.227 323.242 l 25
 107.422 323.242 l 25
 107.422 389.16 l 17
74.2188 65.918 m 1
 193.359 65.918 l 1
 193.359 458.008 l 2
 193.359 490.723 194.336 523.438 204.102 554.688 c 0
 228.516 632.812 309.57 698.73 430.664 698.73 c 0
 470.703 698.73 510.254 691.406 545.41 680.176 c 1
 521.973 620.605 l 1
 496.582 627.441 468.75 632.324 441.406 632.324 c 0
 414.551 632.324 387.695 627.93 363.281 617.676 c 0
 272.949 580.078 273.438 490.723 273.438 444.824 c 0
 273.438 438.477 273.438 432.129 273.438 425.781 c 2
 273.438 65.918 l 1
 560.547 65.918 l 1
 560.547 0 l 1
 74.2188 0 l 1
 74.2188 65.918 l 1
EndSplineSet
EndChar

StartChar: exclamdown
Encoding: 161 161 96
Width: 317
VWidth: 1023
Flags: HMW
LayerCount: 4
Fore
SplineSet
117 258 m 1
 200 258 l 1
 200 -261 l 1
 117 -261 l 1
 117 258 l 1
109 482 m 1
 209 482 l 1
 209 382 l 1
 109 382 l 1
 109 482 l 1
EndSplineSet
Validated: 1
Layer: 3
SplineSet
109.863 645.02 m 1
 207.52 645.02 l 1
 207.52 547.363 l 1
 109.863 547.363 l 1
 109.863 645.02 l 1
117.188 421.387 m 1
 200.195 421.387 l 1
 200.195 -200.195 l 1
 117.188 -200.195 l 1
 117.188 421.387 l 1
EndSplineSet
EndChar

StartChar: cent
Encoding: 162 162 97
Width: 498
VWidth: 1023
Flags: HMW
LayerCount: 4
Fore
SplineSet
73 347 m 0
 73 489 142 587 265 604 c 1
 265 730 l 1
 324 730 l 1
 324 606 l 1
 364 604 403 595 442 578 c 1
 423 519 l 1
 386 532 352 538 323 538 c 0
 209 538 150 476 150 366 c 0
 150 251 203 189 308 176 c 0
 315 175 322 175 329 175 c 0
 356 175 385 181 417 192 c 1
 437 137 l 1
 400 122 362 114 324 111 c 1
 324 -23 l 1
 265 -23 l 1
 265 112 l 1
 145 125 73 211 73 347 c 0
EndSplineSet
Validated: 1
Layer: 3
SplineSet
265.137 142.09 m 17
 324.219 142.09 l 9
 324.219 -31.7383 l 25
 265.137 -31.7383 l 25
 265.137 142.09 l 17
265.137 737.793 m 25
 324.219 737.793 l 25
 324.219 577.148 l 25
 265.137 577.148 l 25
 265.137 737.793 l 25
302.734 606.445 m 0
 350.616 607.163 398.503 596.812 442.383 577.637 c 1
 422.852 519.043 l 1
 385.271 532.065 345.404 539.214 305.664 537.598 c 0
 283.282 536.689 260.868 532.744 240.17 524.18 c 0
 219.473 515.615 200.697 502.207 186.523 484.863 c 0
 171.089 465.975 161.371 442.852 156.26 419 c 0
 151.148 395.149 150.09 370.551 151.367 346.191 c 0
 153.014 314.791 158.846 283.016 173.828 255.371 c 0
 186.018 232.881 204.406 213.838 226.362 200.711 c 0
 248.318 187.584 273.416 180.187 298.828 177.246 c 0
 338.758 172.626 379.648 178.311 417.48 191.895 c 1
 437.012 136.719 l 1
 393.533 119.656 346.999 109.988 300.293 109.863 c 0
 265.134 109.77 229.674 115.363 197.323 129.135 c 0
 164.973 142.905 136.191 165.261 115.723 193.848 c 0
 84.3486 237.666 73.3936 293.276 73.2422 347.168 c 0
 73.1504 379.738 76.752 412.43 85.4844 443.807 c 0
 94.2188 475.184 108.568 505.234 129.395 530.273 c 0
 150.229 555.322 177.384 574.951 207.433 587.549 c 0
 237.481 600.151 270.154 605.957 302.734 606.445 c 0
EndSplineSet
EndChar

StartChar: currency
Encoding: 164 164 98
Width: 634
Flags: MW
LayerCount: 4
Fore
SplineSet
316 531 m 0
 346 531 375 524 402 508 c 1
 483 588 l 1
 544 527 l 1
 463 447 l 1
 478 422 486 393 486 363 c 0
 486 333 479 305 463 278 c 1
 543 197 l 1
 482 136 l 1
 402 217 l 1
 375 201 346 193 316 193 c 0
 286 193 258 201 233 216 c 1
 152 135 l 1
 91 196 l 1
 172 277 l 1
 157 302 148 330 148 361 c 0
 148 392 156 420 172 447 c 1
 90 528 l 1
 151 589 l 1
 233 508 l 1
 258 523 286 531 316 531 c 0
318 462 m 0
 263 462 220 416 220 361 c 0
 220 307 263 262 316 262 c 0
 373 262 415 308 415 365 c 0
 415 416 369 462 318 462 c 0
EndSplineSet
Validated: 1
Layer: 3
SplineSet
317.871 461.914 m 0
 291.645 462.079 265.616 450.824 247.504 431.857 c 0
 229.392 412.889 219.299 386.574 219.727 360.352 c 0
 220.141 334.934 230.416 309.739 248.15 291.525 c 0
 265.885 273.312 290.986 262.405 316.406 262.207 c 0
 341.433 262.012 366.32 272.186 384.273 289.621 c 0
 402.228 307.058 413.154 331.457 414.551 356.445 c 0
 416.039 383.072 406.645 410.219 388.744 429.986 c 0
 370.844 449.755 344.539 461.746 317.871 461.914 c 0
151.367 589.355 m 1
 232.91 507.812 l 1
 257.669 522.349 286.232 530.342 314.941 530.762 c 0
 345.277 531.206 375.693 523.174 401.855 507.812 c 1
 482.91 588.379 l 1
 543.945 527.344 l 1
 462.891 446.777 l 1
 477.507 421.877 485.502 393.129 485.84 364.258 c 0
 486.193 334.084 478.166 303.855 462.891 277.832 c 1
 543.457 197.266 l 1
 482.422 136.23 l 1
 401.855 216.797 l 1
 375.914 201.283 345.654 193.078 315.43 193.359 c 0
 286.551 193.629 257.781 201.63 232.91 216.309 c 1
 151.855 135.254 l 1
 90.8203 196.289 l 1
 171.875 277.344 l 1
 157.078 302.012 148.906 330.613 148.438 359.375 c 0
 147.939 389.928 156.157 420.574 171.875 446.777 c 1
 90.332 528.32 l 1
 151.367 589.355 l 1
EndSplineSet
EndChar

StartChar: yen
Encoding: 165 165 99
Width: 634
VWidth: 1023
Flags: MW
LayerCount: 4
Fore
SplineSet
494 341 m 1
 494 280 l 1
 353 280 l 1
 353 183 l 1
 494 183 l 1
 494 122 l 1
 353 122 l 1
 353 0 l 1
 275 0 l 1
 275 122 l 1
 141 122 l 1
 141 183 l 1
 275 183 l 1
 275 280 l 1
 141 280 l 1
 141 341 l 1
 271 341 l 1
 70 694 l 1
 160 694 l 1
 317 399 l 1
 479 694 l 1
 565 694 l 1
 356 341 l 1
 494 341 l 1
EndSplineSet
Validated: 1
Layer: 3
SplineSet
140.625 182.617 m 25
 494.141 182.617 l 25
 494.141 121.582 l 25
 140.625 121.582 l 25
 140.625 182.617 l 25
140.625 341.309 m 17
 494.141 341.309 l 9
 494.141 280.273 l 25
 140.625 280.273 l 25
 140.625 341.309 l 17
69.8242 693.848 m 9
 160.156 693.848 l 17
 328.125 379.883 l 9
 308.594 383.301 l 17
 479.492 693.848 l 9
 564.941 693.848 l 25
 353.027 335.449 l 25
 353.027 0 l 25
 274.902 0 l 25
 274.902 335.449 l 17
 69.8242 693.848 l 9
EndSplineSet
EndChar

StartChar: brokenbar
Encoding: 166 166 100
Width: 431
VWidth: 1023
Flags: MW
LayerCount: 4
Fore
SplineSet
176 730 m 1
 256 730 l 1
 256 357 l 1
 176 357 l 1
 176 730 l 1
176 173 m 1
 256 173 l 1
 256 -202 l 1
 176 -202 l 1
 176 173 l 1
EndSplineSet
Validated: 1
Layer: 3
SplineSet
175.781 224.609 m 1
 255.859 224.609 l 1
 255.859 -150.391 l 1
 175.781 -150.391 l 1
 175.781 224.609 l 1
175.781 781.738 m 1
 255.859 781.738 l 1
 255.859 408.691 l 1
 175.781 408.691 l 1
 175.781 781.738 l 1
EndSplineSet
EndChar

StartChar: section
Encoding: 167 167 101
Width: 554
VWidth: 1023
Flags: MW
LayerCount: 4
Fore
SplineSet
310 640 m 0
 247 640 183 622 183 566 c 0
 183 529 227 500 259 490 c 0
 304 476 358 456 400 437 c 0
 438 420 476 384 476 333 c 0
 476 293 462 259 435 231 c 1
 462 209 476 182 476 149 c 0
 476 90 445 51 411 28 c 0
 375 3 323 -10 256 -10 c 0
 191 -10 131 1 78 22 c 1
 101 83 l 1
 157 63 206 53 249 53 c 0
 339 53 384 82 384 140 c 0
 384 167 365 187 327 202 c 0
 310 209 292 214 271 220 c 0
 230 232 185 247 152 267 c 0
 114 290 95 323 95 367 c 0
 95 402 109 434 138 461 c 1
 110 484 96 513 96 550 c 0
 96 578 105 611 125 635 c 0
 157 675 227 706 300 706 c 3
 370 706 399 702 450 685 c 1
 428 621 l 1
 388 634 348 640 310 640 c 0
183 382 m 0
 183 349 199 335 223 323 c 0
 255 307 274 301 313 288 c 0
 334 281 351 276 363 271 c 1
 377 285 384 302 384 323 c 0
 384 356 353 381 290 399 c 2
 248 411 l 2
 232 416 218 421 207 425 c 1
 191 412 183 397 183 382 c 0
EndSplineSet
Validated: 1
Layer: 3
SplineSet
207.031 424.805 m 1
 187.012 408.691 182.617 388.672 182.617 376.465 c 0
 182.617 317.383 280.273 302.246 362.793 270.508 c 1
 378.906 286.133 384.277 305.664 384.277 323.242 c 0
 384.277 384.766 288.574 395.02 207.031 424.805 c 1
317.871 700.195 m 0
 384.277 700.195 413.574 689.492 450.195 679.238 c 1
 428.223 615.234 l 1
 392.09 626.611 347.168 634.277 305.664 634.277 c 0
 238.281 634.277 182.129 608.887 182.617 560.059 c 0
 183.618 459.966 476.074 483.887 476.074 333.008 c 0
 476.074 301.758 466.309 263.184 435.059 231.445 c 1
 459.473 211.426 475.586 185.547 475.586 149.414 c 0
 475.586 85.9375 434.57 -9.76562 255.859 -9.76562 c 0
 220.215 -9.76562 161.133 -10.7422 78.125 21.9727 c 1
 100.586 82.5195 l 1
 157.715 62.5 208.984 53.2227 249.023 53.2227 c 0
 323.008 53.2227 383.789 73.2422 383.789 139.648 c 0
 383.789 244.629 95.2148 200.195 95.2148 367.188 c 0
 95.2148 393.555 105.957 430.176 138.184 460.938 c 1
 112.793 481.445 95.7031 509.766 95.7031 550.293 c 0
 95.7031 610.254 146.344 700.195 317.871 700.195 c 0
EndSplineSet
EndChar

StartChar: copyright
Encoding: 169 169 102
Width: 859
VWidth: 1023
Flags: MW
LayerCount: 4
Fore
SplineSet
441 156 m 0
 335 156 273 218 273 327 c 0
 273 382 287 427 315 462 c 0
 344 498 390 515 452 515 c 0
 480 515 510 508 541 494 c 1
 526 452 l 1
 499 462 473 466 450 466 c 0
 371 466 330 420 330 339 c 0
 330 253 372 203 458 203 c 0
 478 203 499 207 522 215 c 1
 537 175 l 1
 504 162 472 156 441 156 c 0
430 609 m 0
 347 609 276 572 231 529 c 0
 186 485 148 416 148 333 c 0
 148 251 186 181 231 138 c 0
 276 94 347 58 430 58 c 0
 513 58 583 95 628 138 c 0
 673 181 711 251 711 333 c 0
 711 416 673 485 628 529 c 0
 583 573 513 609 430 609 c 0
428 674 m 0
 530 674 618 630 673 576 c 0
 729 522 776 436 776 333 c 0
 776 231 730 146 674 92 c 0
 618 38 532 -7 430 -7 c 0
 327 -7 242 38 186 92 c 0
 130 146 83 230 83 333 c 0
 83 435 129 521 185 575 c 0
 240 629 327 674 428 674 c 0
EndSplineSet
Validated: 1
Layer: 3
SplineSet
428.223 673.828 m 0
 518.403 674.209 608.413 638.535 673.184 575.791 c 0
 737.959 513.047 776.372 423.676 776.367 333.496 c 0
 776.362 243.562 738.164 154.426 673.701 91.7168 c 0
 609.238 29.0068 519.619 -6.83301 429.688 -6.83594 c 0
 339.752 -6.83887 250.131 29.0059 185.666 91.7168 c 0
 121.201 154.427 83.0049 243.561 83.0078 333.496 c 0
 83.0107 423.186 120.996 512.08 185.15 574.756 c 0
 249.305 637.432 338.534 673.452 428.223 673.828 c 0
429.688 609.375 m 0
 356.691 609.375 283.924 580.41 231.504 529.609 c 0
 179.084 478.811 147.949 406.492 147.949 333.496 c 0
 147.949 260.5 179.084 188.182 231.504 137.381 c 0
 283.924 86.5801 356.691 57.6172 429.688 57.6172 c 0
 502.686 57.6172 575.449 86.5801 627.871 137.381 c 0
 680.288 188.182 711.426 260.5 711.426 333.496 c 0
 711.426 406.492 680.288 478.811 627.871 529.609 c 0
 575.449 580.41 502.686 609.375 429.688 609.375 c 0
438.965 515.137 m 0
 473.794 515.703 508.638 508.154 540.527 494.141 c 1
 525.879 451.66 l 1
 498.662 461.227 469.746 466.502 440.918 465.332 c 0
 424.723 464.675 408.501 461.791 393.555 455.518 c 0
 378.609 449.245 365.1 439.421 354.98 426.758 c 0
 344.015 413.034 337.214 396.309 333.641 379.109 c 0
 330.066 361.909 329.307 344.21 330.078 326.66 c 0
 331.085 303.753 334.936 280.498 345.703 260.254 c 0
 354.383 243.936 367.67 230.138 383.572 220.717 c 0
 399.475 211.297 417.66 206.104 436.035 204.102 c 0
 464.97 200.947 494.531 205.144 521.973 214.844 c 1
 536.621 174.805 l 1
 505.044 162.671 471.328 155.801 437.5 155.762 c 0
 412.119 155.732 386.525 159.752 363.16 169.666 c 0
 339.796 179.58 318.994 195.686 304.199 216.309 c 0
 281.486 247.969 273.592 288.184 273.438 327.148 c 0
 273.344 350.652 275.882 374.246 282.096 396.914 c 0
 288.31 419.582 298.551 441.316 313.477 459.473 c 0
 328.484 477.729 348.115 492.061 369.879 501.274 c 0
 391.642 510.488 415.336 514.751 438.965 515.137 c 0
EndSplineSet
EndChar

StartChar: guillemotleft
Encoding: 171 171 103
Width: 476
VWidth: 1023
Flags: HMW
LayerCount: 4
Fore
SplineSet
345 482 m 1
 436 482 l 1
 302 304 l 1
 436 126 l 1
 345 126 l 1
 221 304 l 1
 345 482 l 1
164 482 m 1
 254 482 l 1
 121 304 l 1
 254 126 l 1
 164 126 l 1
 40 304 l 1
 164 482 l 1
EndSplineSet
Validated: 1
Layer: 3
SplineSet
163.64453125 482.421875 m 5
 254.46484375 482.421875 l 5
 113.3515625 294.921875 l 5
 113.3515625 313.96484375 l 5
 254.46484375 125.9765625 l 5
 164.1328125 125.9765625 l 5
 39.62109375 304.19921875 l 5
 163.64453125 482.421875 l 5
344.796875 482.421875 m 5
 435.6171875 482.421875 l 5
 294.50390625 294.921875 l 5
 294.50390625 313.96484375 l 5
 435.6171875 125.9765625 l 5
 345.28515625 125.9765625 l 5
 220.7734375 304.19921875 l 5
 344.796875 482.421875 l 5
EndSplineSet
EndChar

StartChar: guillemotright
Encoding: 187 187 104
Width: 476
VWidth: 1023
Flags: HMW
LayerCount: 4
Fore
SplineSet
131 482 m 1
 255 304 l 1
 131 126 l 1
 40 126 l 1
 174 304 l 1
 40 482 l 1
 131 482 l 1
312 482 m 1
 436 304 l 1
 312 126 l 1
 222 126 l 1
 355 304 l 1
 222 482 l 1
 312 482 l 1
EndSplineSet
Validated: 1
Layer: 3
SplineSet
312.38671875 482.421875 m 1
 436.41015625 304.19921875 l 1
 311.8984375 125.9765625 l 1
 221.56640625 125.9765625 l 1
 362.6796875 313.96484375 l 1
 362.6796875 294.921875 l 1
 221.56640625 482.421875 l 1
 312.38671875 482.421875 l 1
131.234375 482.421875 m 1
 255.2578125 304.19921875 l 1
 130.74609375 125.9765625 l 1
 40.4140625 125.9765625 l 1
 181.52734375 313.96484375 l 1
 181.52734375 294.921875 l 1
 40.4140625 482.421875 l 1
 131.234375 482.421875 l 1
EndSplineSet
EndChar

StartChar: registered
Encoding: 174 174 105
Width: 601
VWidth: 1023
Flags: MW
LayerCount: 4
Fore
SplineSet
405 568 m 0
 405 526 385 498 352 487 c 1
 407 379 l 1
 358 379 l 1
 309 482 l 1
 298 482 283 482 266 482 c 2
 254 482 l 1
 254 379 l 1
 208 379 l 1
 208 645 l 1
 317 645 l 2
 318 645 320 645 321 645 c 0
 370 645 405 618 405 568 c 0
301 762 m 0
 377 762 440 729 482 689 c 0
 523 649 558 584 558 509 c 0
 558 434 523 370 482 330 c 0
 441 290 376 256 301 256 c 0
 225 256 161 290 120 330 c 0
 79 370 44 434 44 509 c 0
 44 584 79 649 120 689 c 0
 162 729 224 762 301 762 c 0
300 708 m 0
 245 708 197 688 158 650 c 0
 118 611 98 564 98 509 c 0
 98 454 118 407 158 368 c 0
 197 330 245 311 301 311 c 0
 357 311 404 330 443 368 c 0
 483 407 503 454 503 509 c 0
 503 626 409 708 300 708 c 0
362 564 m 0
 362 589 334 604 315 605 c 1
 254 605 l 1
 254 518 l 1
 270 518 l 2
 282 518 293 518 302 518 c 0
 333 518 350 521 358 546 c 0
 360 552 362 559 362 564 c 0
EndSplineSet
Validated: 1
Layer: 3
SplineSet
299.805 708.008 m 0
 352.51 708.262 405.136 687.471 443.03 650.84 c 0
 480.926 614.209 503.423 561.982 503.418 509.277 c 0
 503.413 456.736 481.062 404.668 443.373 368.059 c 0
 405.686 331.449 353.322 310.549 300.781 310.547 c 0
 248.238 310.545 195.873 331.449 158.184 368.059 c 0
 120.494 404.668 98.1426 456.734 98.1445 509.277 c 0
 98.1465 561.655 120.357 613.564 157.84 650.151 c 0
 195.322 686.738 247.427 707.759 299.805 708.008 c 0
300.781 762.207 m 0
 234.051 762.207 167.584 735.459 119.861 688.818 c 0
 72.1396 642.173 43.9453 576.006 43.9453 509.277 c 0
 43.9453 442.547 72.1396 376.379 119.861 329.736 c 0
 167.584 283.094 234.051 256.348 300.781 256.348 c 0
 367.512 256.348 433.979 283.094 481.701 329.736 c 0
 529.424 376.379 557.617 442.547 557.617 509.277 c 0
 557.617 576.006 529.424 642.173 481.701 688.818 c 0
 433.979 735.459 367.512 762.207 300.781 762.207 c 0
299.805 499.023 m 1
 346.191 499.023 l 1
 406.738 378.906 l 1
 357.91 378.906 l 1
 299.805 499.023 l 1
208.496 642.578 m 1
 316.895 644.531 l 2
 326.443 644.702 336.074 644.6 345.404 642.559 c 0
 354.734 640.518 363.674 636.704 371.582 631.348 c 0
 381.728 624.478 390.166 615.029 395.508 604.004 c 0
 400.641 593.408 402.906 581.587 403.32 569.824 c 0
 403.73 558.193 402.48 546.455 399.109 535.317 c 0
 395.738 524.18 389.997 513.667 381.836 505.371 c 0
 375.277 498.701 367.258 493.545 358.628 489.937 c 0
 349.998 486.33 340.805 484.216 331.543 482.91 c 0
 309.754 479.838 287.63 480.469 265.625 480.469 c 2
 228.027 480.469 l 1
 228.027 518.066 l 1
 270.02 518.066 l 2
 287.289 518.066 304.684 516.592 321.777 519.043 c 0
 331.381 520.42 340.98 523.73 348.145 530.273 c 0
 352.777 534.502 356.264 539.951 358.288 545.889 c 0
 360.313 551.826 360.935 558.208 360.352 564.453 c 0
 359.655 571.914 357.242 579.238 353.146 585.513 c 0
 349.049 591.782 343.195 596.89 336.426 600.098 c 0
 329.848 603.218 322.553 604.551 315.291 605.073 c 0
 308.029 605.596 300.738 605.469 293.457 605.469 c 2
 253.906 605.469 l 1
 253.906 378.906 l 1
 208.496 378.906 l 1
 208.496 642.578 l 1
EndSplineSet
EndChar

StartChar: paragraph
Encoding: 182 182 106
Width: 653
VWidth: 1023
Flags: HMW
LayerCount: 4
Fore
SplineSet
298 730 m 2
 561 730 l 1
 561 0 l 1
 478 0 l 1
 478 657 l 1
 360 657 l 1
 360 0 l 1
 276 0 l 1
 276 327 l 1
 213 333 179 341 142 369 c 0
 95 404 63 466 63 545 c 0
 63 636 112 702 189 720 c 0
 218 727 254 730 298 730 c 2
EndSplineSet
Validated: 1
Layer: 3
SplineSet
113.281 686.523 m 0
 161.133 733.398 225.586 737.793 297.852 737.793 c 2
 560.547 737.793 l 1
 560.547 0 l 1
 477.539 0 l 1
 477.539 664.551 l 1
 360.352 664.551 l 1
 360.352 0 l 1
 276.855 0 l 1
 276.367 417.48 l 1
 315.918 417.48 l 1
 315.918 332.52 l 1
 250 335.449 219.238 341.309 196.777 348.633 c 0
 88.8672 383.301 63.4766 484.375 63.4766 553.223 c 0
 63.4766 608.398 81.0547 654.785 113.281 686.523 c 0
EndSplineSet
EndChar

StartChar: periodcentered
Encoding: 183 183 107
Width: 288
VWidth: 1023
Flags: MW
LayerCount: 4
Fore
SplineSet
93 409 m 1
 195 409 l 1
 195 309 l 1
 93 309 l 1
 93 409 l 1
EndSplineSet
Validated: 1
Layer: 3
SplineSet
92.7734 409.18 m 1
 195.312 409.18 l 1
 195.312 306.641 l 1
 92.7734 306.641 l 1
 92.7734 409.18 l 1
EndSplineSet
EndChar

StartChar: questiondown
Encoding: 191 191 108
Width: 511
VWidth: 1023
Flags: HMW
LayerCount: 4
Fore
SplineSet
275 -198 m 0
 316 -198 363 -187 416 -165 c 1
 441 -225 l 1
 380 -254 323 -265 268 -265 c 0
 236 -265 205 -261 174 -245 c 0
 117 -215 62 -157 62 -73 c 0
 62 -33 75 0 100 26 c 0
 111 38 123 49 136 59 c 0
 206 116 248 162 248 283 c 1
 331 283 l 1
 331 190 316 137 279 85 c 0
 268 68 249 49 222 27 c 2
 192 3 l 2
 165 -18 143 -45 143 -89 c 0
 143 -156 203 -198 275 -198 c 0
338 385 m 1
 241 385 l 1
 241 482 l 1
 338 482 l 1
 338 385 l 1
EndSplineSet
Validated: 1
Layer: 3
SplineSet
165.527 595.703 m 1
 263.184 595.703 l 1
 263.184 693.359 l 1
 165.527 693.359 l 1
 165.527 595.703 l 1
239.746 -68.8477 m 0
 325.195 -68.8477 441.406 9.27734 441.406 117.676 c 0
 441.406 292.969 255.859 240.234 255.859 482.422 c 1
 172.852 482.422 l 1
 172.852 197.754 360.84 241.699 360.84 109.863 c 0
 360.84 53.7109 314.941 0.976562 227.051 0.976562 c 0
 199.219 0.976562 159.668 4.39453 87.8906 33.6914 c 1
 62.5 -25.8789 l 1
 116.211 -51.2695 166.992 -68.8477 239.746 -68.8477 c 0
EndSplineSet
EndChar

StartChar: uni00B5
Encoding: 181 181 109
Width: 579
VWidth: 1023
Flags: MW
LayerCount: 4
Fore
SplineSet
93 482 m 1
 173 482 l 1
 173 221 l 2
 173 171 176 144 194 111 c 0
 213 75 246 55 290 55 c 0
 320 55 361 67 412 92 c 1
 412 482 l 1
 492 482 l 1
 492 0 l 1
 436 0 l 1
 421 33 l 1
 373 2 327 -13 283 -13 c 0
 239 -13 202 0 173 26 c 1
 173 -200 l 1
 93 -200 l 1
 93 482 l 1
EndSplineSet
Validated: 1
Layer: 3
SplineSet
92.7734 482.422 m 1
 172.852 482.422 l 1
 173.34 220.703 l 2
 173.375 202.155 173.463 183.539 176.059 165.174 c 0
 178.652 146.809 183.833 128.669 192.826 112.447 c 0
 201.819 96.2256 214.66 82.0723 230.287 72.0811 c 0
 245.912 62.0889 264.155 56.3887 282.655 55.0596 c 0
 312.627 52.9062 342.322 61.8242 370.117 73.2422 c 0
 397.735 84.5879 424.396 98.1484 450.684 112.305 c 1
 426.27 253.906 l 1
 491.699 253.906 l 1
 491.699 0 l 1
 435.547 0 l 1
 411.621 56.1523 l 1
 411.621 482.422 l 1
 491.699 482.422 l 1
 491.699 169.922 l 2
 491.699 154.321 491.44 138.621 488.389 123.321 c 0
 485.337 108.022 479.548 93.2529 471.155 80.1025 c 0
 454.369 53.8008 428.093 34.8643 400.391 20.5078 c 0
 362.139 0.68457 319.938 -13.5322 276.855 -13.1836 c 0
 238.992 -12.877 201.097 0.697266 172.852 25.915 c 1
 172.852 -200.195 l 1
 92.7734 -200.195 l 1
 92.7734 482.422 l 1
EndSplineSet
EndChar

StartChar: uni00AD
Encoding: 173 173 110
Width: 524
VWidth: 1023
Flags: MW
LayerCount: 4
Fore
SplineSet
107 355 m 1
 417 355 l 1
 417 288 l 1
 107 288 l 1
 107 355 l 1
EndSplineSet
Validated: 1
Layer: 3
SplineSet
107.422 355.469 m 1
 416.992 355.469 l 1
 416.992 287.598 l 1
 107.422 287.598 l 1
 107.422 355.469 l 1
EndSplineSet
EndChar

StartChar: plusminus
Encoding: 177 177 111
Width: 683
VWidth: 1023
Flags: MW
LayerCount: 4
Fore
SplineSet
306 694 m 1
 377 694 l 1
 377 493 l 1
 576 493 l 1
 576 426 l 1
 377 426 l 1
 377 225 l 1
 306 225 l 1
 306 426 l 1
 107 426 l 1
 107 493 l 1
 306 493 l 1
 306 694 l 1
107 140 m 1
 576 140 l 1
 576 73 l 1
 107 73 l 1
 107 140 l 1
EndSplineSet
Validated: 1
Layer: 3
SplineSet
107.422 140.137 m 1
 576.172 140.137 l 1
 576.172 73.2422 l 1
 107.422 73.2422 l 1
 107.422 140.137 l 1
306.152 693.848 m 5
 377.441 693.848 l 5
 377.441 225.098 l 5
 306.152 225.098 l 5
 306.152 693.848 l 5
107.422 492.676 m 5
 576.172 492.676 l 5
 576.172 425.781 l 5
 107.422 425.781 l 5
 107.422 492.676 l 5
EndSplineSet
EndChar

StartChar: ae
Encoding: 230 230 112
Width: 817
VWidth: 0
Flags: MW
AnchorPoint: "above" 406 482 basechar 0
AnchorPoint: "below" 406 0 basechar 0
AnchorPoint: "cedilla" 406 0 basechar 0
LayerCount: 4
Fore
SplineSet
140 134 m 0
 140 86 198 54 247 54 c 0
 288 54 324 70 354 101 c 1
 354 213 l 1
 346 213 333 214 317 214 c 0
 258 214 214 208 184 196 c 0
 154 184 140 164 140 134 c 0
677 290 m 0
 677 359 640 422 573 422 c 0
 544 422 520 415 500 401 c 0
 462 374 441 331 438 273 c 1
 677 273 l 1
 677 277 677 278 677 290 c 0
408 406 m 1
 445 451 506 491 582 491 c 0
 697 491 754 409 754 245 c 0
 754 230 753 219 753 213 c 1
 434 213 l 1
 434 210 434 210 434 207 c 0
 434 165 451 130 484 100 c 0
 518 70 561 55 612 55 c 0
 639 55 672 60 712 72 c 1
 726 18 l 1
 677 0 629 -10 581 -10 c 0
 502 -10 442 15 401 64 c 1
 364 15 307 -10 231 -10 c 0
 166 -10 113 19 84 58 c 0
 68 80 60 104 60 130 c 0
 60 166 75 197 105 223 c 0
 147 259 226 274 308 274 c 0
 345 274 346 274 354 274 c 1
 354 299 l 2
 354 383 311 425 225 425 c 0
 201 425 163 417 111 403 c 1
 91 461 l 1
 145 481 199 491 253 491 c 0
 329 491 381 463 408 406 c 1
EndSplineSet
Validated: 1
Layer: 3
SplineSet
90.8203 460.938 m 5
 151.879 483.717 212.756 491.24 253.418 491.211 c 4
 333.545 491.807 383.973 457.542 408.203 406.25 c 5
 448.877 455.516 512.168 491.372 581.479 491.372 c 4
 719.419 491.372 753.735 374.691 753.906 244.629 c 4
 753.916 226.758 753.735 218.836 753.418 212.891 c 5
 434.082 212.891 l 5
 433.977 210.75 433.926 208.607 433.926 206.466 c 4
 433.926 124.479 507.637 54.498 611.929 54.498 c 4
 650.713 54.498 691.094 65.9941 712.402 72.2656 c 5
 725.586 17.5781 l 5
 671.255 -2.54297 617.261 -9.42871 581.128 -9.42871 c 4
 514.937 -9.42871 444.914 11.1895 400.879 63.9648 c 5
 361.826 12.4678 302.811 -9.84082 230.805 -9.84082 c 4
 141.502 -9.84082 60.1621 49.4004 60.0586 129.678 c 4
 60.0586 199.298 116.904 258.295 235.916 270.159 c 4
 270.887 273.646 306.252 273.926 323.836 273.926 c 4
 330.775 273.926 343.621 273.818 353.516 273.926 c 5
 352.835 280.566 353.825 285.836 353.825 299.307 c 4
 353.825 356.363 329.822 424.835 233.807 424.835 c 4
 209.213 424.835 176.791 421.495 110.84 403.32 c 5
 90.8203 460.938 l 5
676.938 284.405 m 4
 676.938 338.034 655.137 421.885 567.925 421.885 c 4
 486.519 421.885 441.84 351.28 437.988 273.438 c 5
 676.758 273.438 l 5
 676.88 276.438 676.938 281.397 676.938 284.405 c 4
139.648 133.789 m 4
 139.648 89.3555 192.383 54.1992 247.07 54.1992 c 4
 290.039 54.1992 327.637 73.7305 353.516 101.074 c 5
 353.516 213.379 l 5
 340.82 213.867 329.102 213.867 317.383 213.867 c 4
 206.543 213.867 139.648 196.777 139.648 133.789 c 4
EndSplineSet
EndChar

StartChar: germandbls
Encoding: 223 223 113
Width: 615
VWidth: 1023
Flags: MW
AnchorPoint: "above" 262 671 basechar 0
LayerCount: 4
Fore
SplineSet
98 500 m 2
 98 617 172 698 294 698 c 0
 361 698 407 665 433 624 c 0
 451 597 460 568 460 538 c 0
 460 508 452 481 435 460 c 0
 422 444 408 430 393 419 c 0
 368 401 333 381 333 352 c 0
 333 339 336 329 341 322 c 0
 349 310 366 299 391 289 c 2
 426 276 l 2
 478 257 503 247 528 216 c 1
 547 194 557 164 557 127 c 0
 557 81 533 43 510 22 c 1
 483 -1 446 -13 397 -13 c 0
 348 -13 298 -5 246 10 c 1
 261 67 l 1
 312 57 352 52 380 52 c 0
 436 52 472 70 472 126 c 0
 472 181 428 198 381 215 c 2
 345 228 l 1
 301 245 273 269 261 300 c 0
 256 313 253 327 253 343 c 0
 253 408 295 434 332 462 c 0
 341 469 349 475 356 482 c 0
 373 497 382 515 382 538 c 0
 382 585 329 626 282 626 c 0
 253 626 229 616 208 594 c 0
 188 573 179 541 179 499 c 2
 179 0 l 1
 99 0 l 1
 98 500 l 2
EndSplineSet
Validated: 1
Layer: 3
SplineSet
291.24 698.335 m 0
 404.465 698.335 460.171 606.987 460.171 537.607 c 0
 460.171 423.117 332.939 410.156 332.939 347.777 c 0
 332.939 255.645 556.665 304.134 556.665 127.277 c 0
 556.665 79.0557 528.623 -12.7109 394.865 -12.7109 c 0
 358.391 -12.7109 302.156 -6.25977 246.094 10.2539 c 1
 261.23 66.8945 l 1
 303.193 58.6133 344.047 51.8105 378.439 51.8105 c 0
 433.477 51.8105 471.968 69.2295 471.968 125.877 c 0
 471.968 245.492 253.318 187.978 253.318 344.416 c 0
 253.318 451.989 381.981 458.496 381.981 532.783 c 0
 381.981 587.759 329.431 626.328 282.188 626.465 c 0
 258.79 626.465 178.486 613.95 178.711 499.023 c 2
 179.688 0 l 1
 98.6328 0 l 1
 97.6562 499.512 l 2
 97.373 644.424 203.02 698.335 291.24 698.335 c 0
EndSplineSet
EndChar

StartChar: multiply
Encoding: 215 215 114
Width: 634
VWidth: 1023
Flags: MW
LayerCount: 4
Fore
SplineSet
141 95 m 1
 89 146 l 1
 262 319 l 1
 93 488 l 1
 144 540 l 1
 320 363 l 1
 493 537 l 1
 544 485 l 1
 372 312 l 1
 541 143 l 1
 490 91 l 1
 313 268 l 1
 141 95 l 1
EndSplineSet
Validated: 1
Layer: 3
SplineSet
489.888 91.3086 m 1
 92.916 488.281 l 1
 144.186 539.551 l 1
 541.157 142.578 l 1
 489.888 91.3086 l 1
140.733 94.7617 m 1
 88.9756 146.031 l 1
 283.391 340.445 l 1
 305.487 348.732 l 1
 493.34 536.587 l 1
 544.609 484.828 l 1
 354.93 295.146 l 1
 334.904 288.932 l 1
 140.733 94.7617 l 1
EndSplineSet
EndChar

StartChar: divide
Encoding: 247 247 115
Width: 683
VWidth: 1023
Flags: MW
LayerCount: 4
Fore
SplineSet
61 355 m 1
 623 355 l 1
 623 287 l 1
 61 287 l 1
 61 355 l 1
294 136 m 1
 389 136 l 1
 389 41 l 1
 294 41 l 1
 294 136 l 1
294 602 m 1
 389 602 l 1
 389 507 l 1
 294 507 l 1
 294 602 l 1
EndSplineSet
Validated: 1
Layer: 3
SplineSet
293.945 602.051 m 1
 389.16 602.051 l 1
 389.16 506.836 l 1
 293.945 506.836 l 1
 293.945 602.051 l 1
293.945 135.742 m 1
 389.16 135.742 l 1
 389.16 40.5273 l 1
 293.945 40.5273 l 1
 293.945 135.742 l 1
61.0352 354.98 m 5
 622.559 354.98 l 5
 622.559 287.109 l 1
 61.0352 287.109 l 1
 61.0352 354.98 l 5
EndSplineSet
EndChar

StartChar: oslash
Encoding: 248 248 116
Width: 564
Flags: MW
AnchorPoint: "above" 285 482 basechar 0
AnchorPoint: "below" 285 0 basechar 0
AnchorPoint: "cedilla" 285 0 basechar 0
LayerCount: 4
Fore
SplineSet
285 -10 m 0
 224 -10 174 7 136 38 c 1
 84 -16 l 1
 38 28 l 1
 94 86 l 1
 68 127 55 179 55 240 c 0
 55 391 140 490 288 490 c 0
 351 490 401 472 439 441 c 1
 492 495 l 1
 538 448 l 1
 482 391 l 1
 506 351 519 300 519 241 c 0
 519 91 433 -10 285 -10 c 0
287 426 m 0
 190 426 138 342 138 240 c 0
 138 206 143 175 154 148 c 1
 386 386 l 1
 361 411 328 426 287 426 c 0
436 240 m 0
 436 272 431 302 421 328 c 1
 190 92 l 1
 214 69 246 55 287 55 c 0
 386 55 436 137 436 240 c 0
EndSplineSet
Validated: 1
Layer: 3
SplineSet
508.301 485.84 m 25
 536.621 458.496 l 25
 82.0312 -7.32422 l 25
 53.7109 20.0195 l 25
 508.301 485.84 l 25
EndSplineSet
Refer: 6 111 N 1 0 0 1 0 0 2
EndChar

StartChar: OE
Encoding: 338 338 118
Width: 975
VWidth: 1023
Flags: MW
AnchorPoint: "below" 551 0 basechar 0
AnchorPoint: "above" 551 670 basechar 0
AnchorPoint: "cedilla" 551 0 basechar 0
LayerCount: 4
Fore
SplineSet
188 332 m 0
 188 193 276 96 386 77 c 0
 402 74 424 73 451 73 c 2
 513 73 l 1
 513 621 l 1
 485 621 l 2
 445 621 414 619 393 616 c 0
 260 595 188 493 188 332 c 0
519 694 m 2
 897 694 l 1
 897 621 l 1
 596 621 l 1
 596 394 l 1
 871 394 l 1
 871 321 l 1
 596 321 l 1
 596 73 l 1
 897 73 l 1
 897 0 l 1
 475 0 l 2
 313 0 221 35 159 132 c 0
 123 188 105 258 105 342 c 0
 105 528 188 642 340 679 c 0
 381 689 441 694 519 694 c 2
EndSplineSet
Validated: 1
Layer: 3
SplineSet
339.844 679.199 m 0
 398.102 693.218 458.635 693.848 518.555 693.848 c 2
 595.703 693.848 l 1
 595.703 262.207 l 1
 595.703 0 l 1
 475.098 0 l 2
 409.793 0 342.848 2.84863 282.715 28.3203 c 0
 232.266 49.6895 188.267 86.2041 158.691 132.324 c 0
 117.938 195.875 104.24 273.629 104.98 349.121 c 0
 105.421 394.016 110.966 439.083 124.391 481.926 c 0
 137.815 524.771 159.866 565.229 190.918 597.656 c 0
 230.611 639.106 284.044 665.776 339.844 679.199 c 0
306.641 585.938 m 0
 269.555 564.434 239.554 531.421 220.215 493.164 c 0
 198.782 450.764 189.479 402.955 187.988 355.469 c 0
 186.145 296.73 196.578 236.285 227.051 186.035 c 0
 250.188 147.881 284.586 116.694 324.707 97.168 c 0
 344.191 87.6855 365.025 80.9941 386.381 77.3262 c 0
 407.738 73.6582 429.503 73.2422 451.172 73.2422 c 2
 512.695 73.2422 l 1
 512.695 258.301 l 1
 512.695 620.605 l 1
 484.863 620.605 l 2
 454.208 620.605 423.414 620.396 393.137 615.596 c 0
 362.859 610.791 333.16 601.313 306.641 585.938 c 0
545.41 320.801 m 1
 545.41 394.043 l 1
 870.605 394.043 l 1
 870.605 320.801 l 1
 545.41 320.801 l 1
545.41 0 m 1
 545.41 73.2422 l 1
 897.461 73.2422 l 1
 897.461 0 l 1
 545.41 0 l 1
545.41 620.605 m 1
 545.41 693.848 l 1
 897.461 693.848 l 1
 897.461 620.605 l 1
 545.41 620.605 l 1
EndSplineSet
EndChar

StartChar: oe
Encoding: 339 339 119
Width: 880
VWidth: 0
Flags: MW
AnchorPoint: "cedilla" 456 0 basechar 0
AnchorPoint: "below" 456 0 basechar 0
AnchorPoint: "above" 456 482 basechar 0
LayerCount: 4
Fore
SplineSet
278 421 m 0
 191 421 142 336 142 245 c 0
 142 172 169 115 212 83 c 0
 235 66 258 58 282 58 c 0
 334 58 360 75 385 102 c 0
 412 132 425 176 425 235 c 0
 425 338 373 421 278 421 c 0
740 269 m 0
 740 361 710 417 624 417 c 0
 586 417 555 402 534 370 c 0
 513 338 502 301 501 259 c 1
 740 259 l 1
 740 264 740 264 740 269 c 0
63 238 m 0
 63 384 147 489 290 489 c 0
 372 489 432 457 469 393 c 1
 510 456 568 487 645 487 c 0
 739 487 797 427 813 331 c 0
 816 313 817 285 817 246 c 2
 817 199 l 1
 499 199 l 1
 500 153 521 115 561 85 c 0
 590 63 628 53 674 53 c 0
 704 53 738 58 776 70 c 1
 789 16 l 1
 741 -2 693 -10 643 -10 c 0
 557 -10 495 18 458 78 c 1
 417 19 358 -10 281 -10 c 0
 143 -10 63 96 63 238 c 0
EndSplineSet
Validated: 1
Layer: 3
SplineSet
644.912 486.862 m 4
 778.203 486.862 806.763 367.51 811.523 337.891 c 4
 816.387 307.614 816.895 276.855 816.895 246.094 c 6
 816.895 198.73 l 5
 499.023 198.73 l 5
 501.016 134.033 554.243 52.7246 673.765 52.7246 c 4
 687.529 52.7246 720.82 53.5557 775.879 70.3125 c 5
 789.062 15.625 l 5
 749.897 0.9375 699.214 -11.2305 642.578 -11.2305 c 4
 536.567 -11.2305 483.745 35.9512 457.5 78.2715 c 5
 418.637 21.4336 357.219 -10.7432 281.424 -10.7432 c 4
 150.846 -10.7432 63.4707 85.6309 63.4707 237.428 c 4
 63.4707 392.067 154.147 489.258 290.162 489.258 c 4
 373.317 489.258 433.723 452.959 468.587 392.845 c 5
 523.213 476.73 607.075 486.862 644.912 486.862 c 4
628.179 417.357 m 4
 543.604 417.357 502.217 338.602 500.977 259.277 c 5
 740.234 259.277 l 5
 740.312 262.523 740.352 265.771 740.352 269.016 c 4
 740.352 375.244 695.483 417.357 628.179 417.357 c 4
425.305 231.59 m 4
 425.305 365.344 349.91 420.898 281.738 420.898 c 4
 197.326 420.646 141.575 345.229 141.575 245.187 c 4
 141.575 141.462 200.98 57.6162 290.088 57.6162 c 4
 362.928 57.6162 425.305 117.328 425.305 231.59 c 4
EndSplineSet
EndChar

StartChar: AE
Encoding: 198 198 120
Width: 935
VWidth: 1023
Flags: MW
AnchorPoint: "above" 514 670 basechar 0
AnchorPoint: "below" 514 0 basechar 0
AnchorPoint: "cedilla" 514 0 basechar 0
LayerCount: 4
Fore
SplineSet
857 694 m 1
 857 621 l 1
 555 621 l 1
 555 394 l 1
 830 394 l 1
 830 321 l 1
 555 321 l 1
 555 73 l 1
 857 73 l 1
 857 0 l 1
 472 0 l 1
 472 202 l 1
 221 202 l 1
 143 0 l 1
 63 0 l 1
 334 694 l 1
 857 694 l 1
472 274 m 1
 472 621 l 1
 383 621 l 1
 249 274 l 1
 472 274 l 1
EndSplineSet
Validated: 1
Layer: 3
SplineSet
334.473 693.848 m 1
 856.934 693.848 l 1
 856.934 620.605 l 1
 555.176 620.605 l 1
 555.176 394.043 l 1
 830.078 394.043 l 1
 830.078 320.801 l 1
 555.176 320.801 l 1
 555.176 73.2422 l 1
 856.934 73.2422 l 1
 856.934 0 l 1
 472.168 0 l 1
 472.168 201.66 l 1
 183.594 202.148 l 1
 226.074 274.414 l 1
 472.168 274.414 l 1
 472.168 620.605 l 1
 382.836 620.605 l 1
 142.578 0 l 1
 63.4766 0 l 1
 334.473 693.848 l 1
EndSplineSet
EndChar

StartChar: onequarter
Encoding: 188 188 121
Width: 864
VWidth: 0
Flags: MW
LayerCount: 4
Fore
SplineSet
576 694 m 1
 662 694 l 1
 261 0 l 1
 175 0 l 1
 576 694 l 1
221 694 m 1
 221 302 l 1
 156 302 l 1
 156 630 l 1
 88 611 l 1
 73 668 l 1
 167 694 l 1
 221 694 l 1
756 408 m 1
 756 149 l 1
 808 149 l 1
 808 95 l 1
 756 95 l 1
 756 0 l 1
 691 0 l 1
 691 95 l 1
 500 95 l 1
 500 139 l 1
 679 408 l 1
 756 408 l 1
691 149 m 1
 691 336 l 1
 573 149 l 1
 691 149 l 1
EndSplineSet
Validated: 1
Layer: 3
SplineSet
690.918 335.938 m 1
 573.242 148.926 l 1
 690.918 148.926 l 1
 690.918 335.938 l 1
679.199 408.203 m 1
 755.859 408.203 l 1
 755.859 148.926 l 1
 808.105 148.926 l 1
 808.105 95.2148 l 1
 755.859 95.2148 l 1
 755.859 0 l 1
 690.918 0 l 1
 690.918 95.2148 l 1
 500.488 95.2148 l 1
 500.488 138.672 l 1
 679.199 408.203 l 1
166.504 693.848 m 1
 221.191 693.848 l 1
 221.191 301.758 l 1
 156.25 301.758 l 1
 156.25 630.371 l 1
 87.8906 611.328 l 1
 73.2422 668.457 l 1
 166.504 693.848 l 1
576.172 693.848 m 1
 661.621 693.848 l 1
 261.23 0 l 1
 175.293 0 l 1
 576.172 693.848 l 1
EndSplineSet
EndChar

StartChar: onehalf
Encoding: 189 189 122
Width: 877
VWidth: 0
Flags: MW
LayerCount: 4
Fore
SplineSet
576 694 m 1
 662 694 l 1
 261 0 l 1
 175 0 l 1
 576 694 l 1
753 297 m 0
 753 332 714 355 676 355 c 0
 654 355 621 347 576 329 c 1
 556 377 l 1
 602 399 644 411 683 411 c 0
 753 411 817 372 817 305 c 0
 817 262 789 228 762 203 c 2
 729 172 l 1
 682 130 661 107 639 57 c 1
 824 57 l 1
 824 0 l 1
 564 0 l 1
 564 35 l 1
 584 100 628 162 695 221 c 0
 722 244 738 261 744 271 c 0
 750 281 753 290 753 297 c 0
221 694 m 1
 221 302 l 1
 156 302 l 1
 156 630 l 1
 88 611 l 1
 73 668 l 1
 167 694 l 1
 221 694 l 1
EndSplineSet
Validated: 1
Layer: 3
SplineSet
166.504 693.848 m 1
 221.191 693.848 l 1
 221.191 301.758 l 1
 156.25 301.758 l 1
 156.25 630.371 l 1
 87.8906 611.328 l 1
 73.2422 668.457 l 1
 166.504 693.848 l 1
684.268 411.289 m 0
 758.071 411.424 816.743 368.578 816.743 304.523 c 0
 816.743 205.851 686.807 174.381 639.38 56.25 c 1
 823.706 56.25 l 1
 823.706 -0.146484 l 1
 564.282 -0.146484 l 1
 564.648 35.0137 l 1
 614.199 194.035 753.462 240.828 753.462 297.068 c 0
 753.462 326.604 720.532 355.494 675.752 355.494 c 0
 654.639 355.494 629.81 350.049 575.552 328.58 c 1
 555.698 377.366 l 1
 586.826 392.7 630.308 411.188 684.268 411.289 c 0
576.172 693.848 m 1
 661.621 693.848 l 1
 261.23 0 l 1
 175.293 0 l 1
 576.172 693.848 l 1
EndSplineSet
EndChar

StartChar: threequarters
Encoding: 190 190 123
Width: 903
VWidth: 0
Flags: MW
LayerCount: 4
Fore
SplineSet
621 694 m 1
 706 694 l 1
 306 0 l 1
 220 0 l 1
 621 694 l 1
795 408 m 1
 795 149 l 1
 848 149 l 1
 848 95 l 1
 795 95 l 1
 795 0 l 1
 730 0 l 1
 730 95 l 1
 540 95 l 1
 540 139 l 1
 719 408 l 1
 795 408 l 1
730 149 m 1
 730 336 l 1
 613 149 l 1
 730 149 l 1
186 708 m 0
 255 708 310 671 310 603 c 0
 310 570 295 544 264 524 c 1
 306 507 327 477 327 434 c 0
 327 348 258 293 171 293 c 2
 169 293 l 2
 136 293 101 301 61 317 c 1
 79 369 l 1
 122 358 154 352 176 352 c 0
 219 352 264 379 264 421 c 0
 264 437 259 450 248 460 c 0
 228 479 197 489 156 489 c 2
 143 489 l 1
 143 544 l 1
 151 544 l 1
 186 545 211 551 226 563 c 0
 241 575 248 587 248 601 c 0
 248 635 215 650 177 650 c 0
 154 650 125 642 90 625 c 1
 68 676 l 1
 110 697 150 708 186 708 c 0
EndSplineSet
Validated: 1
Layer: 3
SplineSet
264.16 523.926 m 1
 310.059 504.883 326.66 468.262 326.66 430.664 c 0
 326.66 348.633 259.766 293.945 170.898 293.457 c 1
 169.434 293.457 l 2
 138.672 293.457 103.516 300.293 68.3594 314.453 c 2
 61.0352 317.383 l 1
 79.1016 369.141 l 1
 86.4258 367.188 l 2
 132.812 354.492 154.297 352.051 171.387 352.051 c 0
 221.191 352.051 264.16 379.883 264.16 420.898 c 0
 264.16 448.242 242.676 489.258 156.25 489.258 c 2
 142.578 489.258 l 1
 142.578 544.434 l 1
 150.879 544.434 l 2
 228.516 546.387 248.047 579.102 248.047 602.051 c 0
 248.047 626.465 224.609 650.391 181.152 650.391 c 0
 147.461 650.391 114.258 636.719 97.168 628.906 c 2
 89.8438 625.488 l 1
 68.3594 676.27 l 1
 75.1953 679.688 l 2
 100.586 691.895 142.578 708.008 187.012 708.008 c 0
 256.836 708.008 310.059 666.504 310.059 609.375 c 0
 310.059 573.242 291.992 541.992 264.16 523.926 c 1
730.469 335.938 m 1
 612.793 148.926 l 1
 730.469 148.926 l 1
 730.469 335.938 l 1
718.75 408.203 m 1
 795.41 408.203 l 1
 795.41 148.926 l 1
 847.656 148.926 l 1
 847.656 95.2148 l 1
 795.41 95.2148 l 1
 795.41 0 l 1
 730.469 0 l 1
 730.469 95.2148 l 1
 540.039 95.2148 l 1
 540.039 138.672 l 1
 718.75 408.203 l 1
620.605 693.848 m 1
 706.055 693.848 l 1
 305.664 0 l 1
 219.727 0 l 1
 620.605 693.848 l 1
EndSplineSet
EndChar

StartChar: degree
Encoding: 176 176 124
Width: 287
Flags: HMW
LayerCount: 4
Fore
SplineSet
201 592 m 0
 201 623 175 652 144 652 c 0
 111 652 86 625 86 592 c 0
 86 558 110 532 143 532 c 0
 176 532 201 560 201 592 c 0
32 592 m 0
 32 655 82 706 144 706 c 0
 205 706 256 654 256 592 c 0
 256 530 206 477 144 477 c 0
 82 477 32 529 32 592 c 0
EndSplineSet
Validated: 1
Layer: 3
SplineSet
143.555 712.402 m 0
 201.66 712.402 250.977 664.062 250.977 603.027 c 0
 250.977 541.992 202.637 493.164 144.043 493.164 c 0
 85.9375 493.164 36.6211 541.504 36.6211 603.027 c 0
 36.6211 663.574 84.9609 712.402 143.555 712.402 c 0
144.043 667.969 m 0
 107.422 667.969 80.5664 637.695 80.5664 603.027 c 0
 80.5664 569.336 105.957 537.598 144.043 537.598 c 0
 180.176 537.598 206.055 569.336 206.055 603.027 c 0
 206.055 636.719 180.176 667.969 144.043 667.969 c 0
EndSplineSet
EndChar

StartChar: cedilla
Encoding: 184 184 126
Width: 537
VWidth: 0
Flags: MW
LayerCount: 4
Fore
SplineSet
300 -196 m 0
 330 -195 352 -184 352 -157 c 0
 352 -142 334 -127 325 -123 c 0
 318 -120 310 -117 300 -114 c 2
 239 -95 l 1
 267 11 l 1
 329 11 l 1
 310 -66 l 1
 322 -70 l 2
 366 -84 400 -102 400 -155 c 0
 400 -204 355 -243 301 -243 c 0
 289 -243 275 -241 261 -238 c 0
 252 -236 233 -231 205 -223 c 2
 188 -218 l 1
 201 -173 l 1
 216 -178 l 1
 259 -191 287 -196 300 -196 c 0
EndSplineSet
Validated: 1
Layer: 3
SplineSet
267.09 10.7422 m 1
 329.102 10.7422 l 1
 307.129 -76.1719 l 1
 297.852 -62.5 l 1
 322.266 -69.8242 l 2
 334.875 -73.6074 347.53 -77.6768 358.879 -84.3496 c 0
 370.227 -91.0234 380.162 -100.207 387.207 -111.328 c 0
 393.922 -121.928 397.992 -134.176 399.033 -146.68 c 0
 400.072 -159.184 398.111 -171.903 393.555 -183.594 c 0
 387.546 -199.01 377.027 -212.588 363.8 -222.527 c 0
 350.573 -232.467 334.714 -238.705 318.359 -241.211 c 0
 299.284 -244.134 279.746 -242.086 260.879 -238.027 c 0
 242.012 -233.971 223.579 -228.145 205.078 -222.656 c 0
 199.548 -221.016 194.015 -219.387 188.477 -217.773 c 1
 201.172 -173.34 l 1
 206.048 -174.826 210.932 -176.291 215.82 -177.734 c 0
 230.384 -182.031 244.982 -186.229 259.728 -189.852 c 0
 274.473 -193.475 289.51 -196.713 304.688 -196.289 c 0
 313.725 -196.037 322.858 -194.318 330.843 -190.077 c 0
 338.827 -185.836 345.505 -178.893 348.633 -170.41 c 0
 350.771 -164.613 351.228 -158.213 349.975 -152.163 c 0
 348.722 -146.112 345.791 -140.457 341.797 -135.742 c 0
 336.615 -129.627 329.742 -125.125 322.462 -121.77 c 0
 315.182 -118.414 307.475 -116.102 299.805 -113.77 c 2
 238.77 -95.2148 l 1
 267.09 10.7422 l 1
EndSplineSet
EndChar

StartChar: Ccedilla
Encoding: 199 199 127
Width: 651
VWidth: 0
Flags: HMW
LayerCount: 4
Fore
Refer: 579 807 N 1 0 0 1 351 0 2
Refer: 54 67 N 1 0 0 1 0 0 3
Validated: 5
Layer: 3
SplineSet
377.197 12.3506 m 1
 447.51 9.4209 l 1
 425.537 -77.4932 l 1
 411.865 -60.8916 l 1
 436.279 -68.2158 l 2
 449.303 -72.123 462.375 -76.2979 474.147 -83.1016 c 0
 485.919 -89.9062 496.284 -99.2734 503.662 -110.696 c 0
 510.703 -121.604 514.99 -134.263 516.099 -147.198 c 0
 517.212 -160.134 515.19 -173.297 510.498 -185.403 c 0
 504.482 -200.922 494.092 -214.677 481 -224.95 c 0
 467.905 -235.225 452.158 -241.954 435.791 -244.974 c 0
 415.339 -248.746 394.202 -246.794 373.854 -242.494 c 0
 353.507 -238.193 333.657 -231.851 313.721 -225.931 c 0
 308.191 -224.289 302.658 -222.66 297.119 -221.048 c 1
 311.768 -170.267 l 1
 316.643 -171.756 321.525 -173.22 326.416 -174.661 c 0
 341.562 -179.125 356.747 -183.464 372.045 -187.373 c 0
 387.343 -191.283 402.916 -195.06 418.701 -194.681 c 0
 426.928 -194.483 435.241 -192.983 442.568 -189.238 c 0
 449.896 -185.493 456.111 -179.348 459.229 -171.731 c 0
 461.312 -166.639 461.99 -160.982 461.185 -155.539 c 0
 460.378 -150.096 458.107 -144.904 454.834 -140.481 c 0
 450.111 -134.099 443.412 -129.39 436.246 -125.972 c 0
 429.079 -122.555 421.426 -120.297 413.818 -118.021 c 2
 346.924 -98.001 l 1
 377.197 12.3506 l 1
EndSplineSet
Refer: 54 67 N 1 0 0 1 0 0 3
EndChar

StartChar: dieresis
Encoding: 168 168 128
Width: 585
VWidth: 0
Flags: MW
LayerCount: 4
Fore
SplineSet
357 694 m 1
 448 694 l 1
 448 603 l 1
 357 603 l 1
 357 694 l 1
138 694 m 1
 229 694 l 1
 229 603 l 1
 138 603 l 1
 138 694 l 1
EndSplineSet
Validated: 1
Layer: 3
SplineSet
138.184 693.359 m 5
 228.516 693.359 l 5
 228.516 603.027 l 5
 138.184 603.027 l 5
 138.184 693.359 l 5
357.422 693.359 m 5
 447.754 693.359 l 5
 447.754 603.027 l 5
 357.422 603.027 l 5
 357.422 693.359 l 5
EndSplineSet
EndChar

StartChar: Idieresis
Encoding: 207 207 131
Width: 327
VWidth: 0
Flags: MW
LayerCount: 4
Fore
SplineSet
233 891 m 1
 323 891 l 1
 323 800 l 1
 233 800 l 1
 233 891 l 1
43 891 m 1
 133 891 l 1
 133 800 l 1
 43 800 l 1
 43 891 l 1
142 694 m 1
 225 694 l 1
 225 0 l 1
 142 0 l 1
 142 694 l 1
EndSplineSet
Validated: 1
Layer: 3
SplineSet
141.602 693.848 m 1
 224.609 693.848 l 1
 224.609 0 l 1
 141.602 0 l 1
 141.602 693.848 l 1
42.9688 890.625 m 1
 133.301 890.625 l 1
 133.301 800.293 l 1
 42.9688 800.293 l 1
 42.9688 890.625 l 1
232.91 890.625 m 5
 323.242 890.625 l 5
 323.242 800.293 l 5
 232.91 800.293 l 5
 232.91 890.625 l 5
EndSplineSet
EndChar

StartChar: idieresis
Encoding: 239 239 136
Width: 255
VWidth: 0
Flags: HMW
LayerCount: 4
Fore
SplineSet
173 694 m 1
 263 694 l 1
 263 604 l 1
 173 604 l 1
 173 694 l 1
-7 694 m 1
 83 694 l 1
 83 604 l 1
 -7 604 l 1
 -7 694 l 1
EndSplineSet
Refer: 140 305 N 1 0 0 1 0 0 3
Validated: 1
Layer: 3
SplineSet
-7.32422 693.848 m 5
 83.0078 693.848 l 5
 83.0078 603.516 l 5
 -7.32422 603.516 l 5
 -7.32422 693.848 l 5
172.852 693.848 m 5
 263.184 693.848 l 5
 263.184 603.516 l 5
 172.852 603.516 l 5
 172.852 693.848 l 5
EndSplineSet
Refer: 140 305 N 1 0 0 1 0 0 3
EndChar

StartChar: dotlessi
Encoding: 305 305 140
Width: 255
VWidth: 1023
Flags: MW
AnchorPoint: "below" 128 0 basechar 0
AnchorPoint: "above" 128 482 basechar 0
LayerCount: 4
Fore
SplineSet
88 482 m 1
 168 482 l 1
 168 0 l 1
 88 0 l 1
 88 482 l 1
EndSplineSet
Validated: 1
Layer: 3
SplineSet
87.8906 482.422 m 1
 167.969 482.422 l 1
 167.969 0 l 1
 87.8906 0 l 1
 87.8906 482.422 l 1
EndSplineSet
EndChar

StartChar: uni00B2
Encoding: 178 178 146
Width: 390
VWidth: 0
Flags: HMW
LayerCount: 4
Fore
SplineSet
243 626 m 4
 243 658 207 680 173 680 c 4
 153 680 123 673 82 657 c 5
 63 699 l 5
 105 720 144 730 179 730 c 4
 243 730 301 694 301 633 c 4
 301 587 265 554 236 527 c 6
 201 494 l 5
 173 469 153 440 140 407 c 5
 307 407 l 5
 307 356 l 5
 72 356 l 5
 72 388 l 5
 86 433 107 471 136 503 c 4
 160 530 181 550 198 565 c 4
 228 591 243 612 243 626 c 4
EndSplineSet
Validated: 1
Layer: 3
SplineSet
180.367 744.15 m 4
 247.46 744.272 300.8 705.322 300.8 647.09 c 4
 300.8 557.388 182.674 528.779 139.558 421.387 c 5
 307.129 421.387 l 5
 307.129 370.117 l 5
 71.2891 370.117 l 5
 71.6211 402.082 l 5
 116.67 546.646 243.273 589.185 243.273 640.312 c 4
 243.273 667.163 213.334 693.428 172.627 693.428 c 4
 153.432 693.428 130.859 688.477 81.5352 668.96 c 5
 63.4863 713.311 l 5
 91.7852 727.251 131.311 744.058 180.367 744.15 c 4
EndSplineSet
EndChar

StartChar: uni00B3
Encoding: 179 179 147
Width: 390
VWidth: 1023
Flags: HMW
LayerCount: 4
Fore
SplineSet
175 730 m 0
 236 730 287 695 287 634 c 0
 287 604 274 581 246 563 c 1
 284 547 302 520 302 481 c 0
 302 402 240 353 161 353 c 2
 160 353 l 2
 130 353 97 361 61 375 c 1
 77 422 l 1
 114 412 143 406 164 406 c 0
 202 406 246 433 246 469 c 0
 246 486 238 499 223 512 c 0
 208 525 182 531 147 531 c 2
 135 531 l 1
 135 581 l 1
 185 582 216 594 227 616 c 0
 230 622 231 629 231 638 c 0
 231 647 226 655 215 664 c 0
 204 673 188 677 167 677 c 0
 146 677 120 670 87 655 c 1
 68 701 l 1
 107 720 143 730 175 730 c 0
EndSplineSet
Validated: 1
Layer: 3
SplineSet
245.434 575.596 m 5
 287.303 558.315 302.246 525.029 302.246 490.723 c 4
 302.246 415.944 241.354 366.722 160.668 366.211 c 5
 159.668 366.211 l 6
 131.754 366.211 99.6592 372.263 67.5557 385.305 c 6
 61.1084 387.924 l 5
 77.3672 434.666 l 5
 83.9785 432.842 l 6
 126.147 421.209 145.712 419.434 161.133 419.434 c 4
 206.348 419.434 245.605 444.434 245.605 481.934 c 4
 245.605 506.738 225.977 543.945 147.461 543.945 c 6
 135.254 543.945 l 5
 135.254 594.053 l 5
 142.391 594.238 l 6
 212.962 596.045 230.957 625.586 230.957 646.484 c 4
 230.957 668.76 209.295 690.43 169.922 690.43 c 4
 139.51 690.43 109.624 678.345 93.8896 671.084 c 6
 86.9922 667.9 l 5
 67.7285 713.994 l 5
 73.9316 717.031 l 6
 96.8711 728.242 134.748 742.676 175.293 742.676 c 4
 238.695 742.676 287.109 705.312 287.109 653.32 c 4
 287.109 620.366 270.844 591.86 245.434 575.596 c 5
EndSplineSet
EndChar

StartChar: acute
Encoding: 180 180 148
Width: 463
VWidth: 0
Flags: HMW
LayerCount: 4
Fore
SplineSet
298 730 m 1
 343 677 l 1
 159 523 l 1
 120 572 l 1
 298 730 l 1
EndSplineSet
Validated: 1
Layer: 3
SplineSet
379.883 773.926 m 1
 414.062 713.867 l 1
 164.062 569.824 l 1
 133.789 622.559 l 1
 379.883 773.926 l 1
EndSplineSet
EndChar

StartChar: uni00B9
Encoding: 185 185 149
Width: 265
VWidth: 0
Flags: HMW
LayerCount: 4
Fore
SplineSet
167 730 m 1
 167 363 l 1
 112 363 l 1
 112 677 l 1
 42 657 l 1
 29 704 l 1
 123 730 l 1
 167 730 l 1
EndSplineSet
Validated: 1
Layer: 3
SplineSet
122.559 737.793 m 1
 167.48 737.793 l 1
 167.48 371.094 l 1
 112.305 371.094 l 1
 112.305 685.059 l 1
 41.5039 665.039 l 1
 29.2969 712.402 l 1
 122.559 737.793 l 1
EndSplineSet
EndChar

StartChar: ordmasculine
Encoding: 186 186 150
Width: 372
VWidth: 1023
Flags: HMW
LayerCount: 4
Fore
SplineSet
190 667 m 0
 135 667 110 628 110 564 c 0
 110 502 130 455 182 455 c 0
 242 455 262 497 262 564 c 0
 262 622 241 667 190 667 c 0
304 564 m 0
 304 483 262 417 186 417 c 0
 102 417 68 474 68 565 c 0
 68 641 113 706 183 706 c 0
 267 706 304 651 304 564 c 0
EndSplineSet
Layer: 3
SplineSet
188.5234375 741.69921875 m 4
 245.1640625 741.69921875 341.35546875 716.30859375 341.35546875 559.08203125 c 4
 341.35546875 437.01171875 272.99609375 367.188476562 187.546875 367.188476562 c 4
 109.91015625 367.188476562 34.71484375 411.62109375 34.71484375 559.5703125 c 4
 34.71484375 683.10546875 111.86328125 741.69921875 188.5234375 741.69921875 c 4
187.546875 691.40625 m 4
 143.11328125 690.91796875 90.37890625 664.55078125 90.37890625 561.03515625 c 4
 90.37890625 437.98828125 149.4609375 416.015625 188.5234375 416.015625 c 4
 230.02734375 416.015625 285.69140625 440.91796875 285.69140625 557.6171875 c 4
 285.69140625 670.8984375 228.07421875 691.40625 187.546875 691.40625 c 4
EndSplineSet
EndChar

StartChar: agrave
Encoding: 224 224 166
Width: 500
VWidth: 0
Flags: HMW
LayerCount: 4
Fore
Refer: 571 768 N 1 0 0 1 246 0 2
Refer: 0 97 N 1 0 0 1 0 0 3
Validated: 1
Layer: 3
SplineSet
217.287 756.348 m 29
 395.021 598.145 l 29
 355.959 549.316 l 29
 172.365 703.125 l 29
 217.287 756.348 l 29
EndSplineSet
Refer: 0 97 N 1 0 0 1 0 0 3
EndChar

StartChar: aacute
Encoding: 225 225 167
Width: 500
VWidth: 0
Flags: HMW
LayerCount: 4
Fore
Refer: 572 769 N 1 0 0 1 246 0 2
Refer: 0 97 N 1 0 0 1 0 0 3
Validated: 1
Layer: 3
SplineSet
330.08 756.348 m 29
 152.346 598.145 l 29
 191.408 549.316 l 29
 375.002 703.125 l 29
 330.08 756.348 l 29
EndSplineSet
Refer: 0 97 N 1 0 0 1 0 0 3
EndChar

StartChar: egrave
Encoding: 232 232 171
Width: 511
VWidth: 0
Flags: HMW
LayerCount: 4
Fore
Refer: 571 768 N 1 0 0 1 268 0 2
Refer: 2 101 N 1 0 0 1 0 0 3
Validated: 1
Layer: 3
SplineSet
224.609 756.348 m 29
 402.344 598.145 l 29
 363.281 549.316 l 29
 179.688 703.125 l 29
 224.609 756.348 l 29
EndSplineSet
Refer: 2 101 N 1 0 0 1 0 0 3
EndChar

StartChar: eacute
Encoding: 233 233 172
Width: 511
VWidth: 0
Flags: HMW
LayerCount: 4
Fore
Refer: 572 769 N 1 0 0 1 268 0 2
Refer: 2 101 N 1 0 0 1 0 0 3
Validated: 1
Layer: 3
SplineSet
378.906 756.348 m 29
 201.172 598.145 l 29
 240.234 549.316 l 29
 423.828 703.125 l 29
 378.906 756.348 l 29
EndSplineSet
Refer: 2 101 N 1 0 0 1 0 0 3
EndChar

StartChar: igrave
Encoding: 236 236 174
Width: 255
VWidth: 0
Flags: HMW
LayerCount: 4
Fore
Refer: 571 768 N 1 0 0 1 128 0 2
Refer: 140 305 N 1 0 0 1 0 0 3
Validated: 1
Layer: 3
SplineSet
40.0391 756.348 m 29
 217.773 598.145 l 29
 178.711 549.316 l 29
 -4.88281 703.125 l 29
 40.0391 756.348 l 29
EndSplineSet
Refer: 140 305 N 1 0 0 1 0 0 3
EndChar

StartChar: iacute
Encoding: 237 237 175
Width: 255
VWidth: 0
Flags: HMW
LayerCount: 4
Fore
Refer: 572 769 N 1 0 0 1 128 0 2
Refer: 140 305 N 1 0 0 1 0 0 3
Validated: 1
Layer: 3
SplineSet
232.422 756.348 m 29
 54.6875 598.145 l 29
 93.75 549.316 l 29
 277.344 703.125 l 29
 232.422 756.348 l 29
EndSplineSet
Refer: 140 305 N 1 0 0 1 0 0 3
EndChar

StartChar: ograve
Encoding: 242 242 177
Width: 564
VWidth: 0
Flags: HMW
LayerCount: 4
Fore
Refer: 571 768 N 1 0 0 1 294 0 2
Refer: 6 111 N 1 0 0 1 0 0 3
Validated: 1
Layer: 3
SplineSet
258.301 756.348 m 25
 436.035 598.145 l 25
 396.973 549.316 l 25
 213.379 703.125 l 25
 258.301 756.348 l 25
EndSplineSet
Refer: 6 111 N 1 0 0 1 0 0 3
EndChar

StartChar: oacute
Encoding: 243 243 178
Width: 564
VWidth: 0
Flags: HMW
LayerCount: 4
Fore
Refer: 572 769 N 1 0 0 1 294 0 2
Refer: 6 111 N 1 0 0 1 0 0 3
Validated: 1
Layer: 3
SplineSet
344.727 756.348 m 25
 166.992 598.145 l 25
 206.055 549.316 l 25
 389.648 703.125 l 25
 344.727 756.348 l 25
EndSplineSet
Refer: 6 111 N 1 0 0 1 0 0 3
EndChar

StartChar: ugrave
Encoding: 249 249 181
Width: 543
VWidth: 0
Flags: HMW
LayerCount: 4
Fore
Refer: 571 768 N 1 0 0 1 267 0 2
Refer: 14 117 N 1 0 0 1 0 0 3
Validated: 1
Layer: 3
SplineSet
232.91 756.348 m 29
 410.645 598.145 l 29
 371.582 549.316 l 29
 187.988 703.125 l 29
 232.91 756.348 l 29
EndSplineSet
Refer: 14 117 N 1 0 0 1 0 0 3
EndChar

StartChar: uacute
Encoding: 250 250 182
Width: 543
VWidth: 0
Flags: HMW
LayerCount: 4
Fore
Refer: 572 769 N 1 0 0 1 267 0 2
Refer: 14 117 N 1 0 0 1 0 0 3
Validated: 1
Layer: 3
SplineSet
374.023 756.348 m 29
 196.289 598.145 l 29
 235.352 549.316 l 29
 418.945 703.125 l 29
 374.023 756.348 l 29
EndSplineSet
Refer: 14 117 N 1 0 0 1 0 0 3
EndChar

StartChar: yacute
Encoding: 253 253 184
Width: 517
VWidth: 0
Flags: HMW
LayerCount: 4
Fore
Refer: 572 769 N 1 0 0 1 256 0 2
Refer: 26 121 N 1 0 0 1 0 0 3
Validated: 1
Layer: 3
SplineSet
374.023 756.348 m 25
 196.289 598.145 l 25
 235.352 549.316 l 25
 418.945 703.125 l 25
 374.023 756.348 l 25
EndSplineSet
Refer: 26 121 N 1 0 0 1 0 0 3
EndChar

StartChar: eth
Encoding: 240 240 186
Width: 611
VWidth: 1023
Flags: MW
AnchorPoint: "above" 302 670 basechar 0
AnchorPoint: "below" 302 0 basechar 0
AnchorPoint: "cedilla" 302 0 basechar 0
LayerCount: 4
Fore
SplineSet
290 394 m 0
 201 394 141 327 141 238 c 0
 141 158 178 102 229 73 c 0
 249 62 271 56 293 56 c 0
 350 56 391 82 417 130 c 0
 437 165 446 226 446 311 c 0
 446 319 446 328 446 337 c 1
 386 375 333 394 290 394 c 0
436 604 m 1
 491 543 523 464 523 350 c 0
 523 276 520 220 511 182 c 0
 493 104 468 60 411 21 c 0
 379 -1 339 -10 290 -10 c 0
 156 -10 63 74 63 208 c 0
 63 342 145 460 277 460 c 0
 331 460 380 442 441 407 c 1
 431 477 410 520 365 563 c 1
 278 513 l 1
 251 559 l 1
 321 599 l 1
 291 620 257 637 220 649 c 1
 250 712 l 1
 304 697 353 673 395 641 c 1
 483 694 l 1
 510 646 l 1
 436 604 l 1
EndSplineSet
Validated: 1
Layer: 3
SplineSet
251.337 558.921 m 1
 483.54 692.227 l 1
 510.151 646.138 l 1
 277.948 512.827 l 1
 251.337 558.921 l 1
250.488 712.158 m 1
 305.841 696.826 358.367 670.635 402.832 634.277 c 0
 435.629 607.461 463.76 574.648 483.398 537.109 c 0
 515.488 475.782 523.208 404.664 523.438 335.449 c 0
 523.618 280.926 520.762 226.045 508.789 172.852 c 0
 502.212 143.635 492.363 114.949 477.139 89.1602 c 0
 461.914 63.3711 441.103 40.7695 416.016 24.4141 c 0
 382.316 2.44336 341.944 -7.92676 301.758 -9.76562 c 0
 267.904 -11.3145 233.66 -7.22559 201.551 3.6084 c 0
 169.439 14.4434 139.588 32.627 116.699 57.6172 c 0
 97.3262 78.7695 83.1592 104.488 74.5703 131.855 c 0
 65.9805 159.223 62.7227 188.123 63.4766 216.797 c 0
 64.3379 249.598 70.3174 282.301 81.5234 313.141 c 0
 92.7285 343.98 109.432 373 131.836 396.973 c 0
 151.704 418.232 176.08 435.35 203.077 446.203 c 0
 230.074 457.059 259.519 461.525 288.574 459.961 c 0
 330.52 457.702 370.993 443.333 408.691 424.805 c 0
 444.13 407.387 477.769 386.418 509.766 363.281 c 1
 476.562 317.383 l 1
 448.034 337.369 417.977 355.293 386.23 369.629 c 0
 354.084 384.146 319.443 394.827 284.18 394.043 c 0
 245.742 393.188 207.543 377.043 181.641 348.633 c 0
 165.724 331.176 154.428 309.717 147.943 286.999 c 0
 141.459 264.281 139.598 240.336 141.602 216.797 c 0
 144.336 184.681 154.277 152.98 171.875 125.977 c 0
 186.062 104.206 205.371 85.6582 228.193 73.2344 c 0
 251.016 60.8105 277.281 54.6406 303.223 56.1523 c 0
 326.718 57.5215 349.812 65.2021 369.453 78.168 c 0
 389.094 91.1348 405.123 109.282 416.504 129.883 c 0
 430.555 155.318 437.608 184.081 441.406 212.891 c 0
 447.137 256.364 447.327 300.4 446.289 344.238 c 0
 445.175 391.307 440.668 439.254 421.875 482.422 c 0
 407.909 514.502 386.406 543.013 360.84 566.895 c 0
 320.863 604.243 272.031 631.621 220.215 649.17 c 1
 250.488 712.158 l 1
EndSplineSet
EndChar

StartChar: thorn
Encoding: 254 254 187
Width: 568
VWidth: 1023
Flags: MW
AnchorPoint: "above" 262 670 basechar 0
AnchorPoint: "below" 262 -261 basechar 0
AnchorPoint: "cedilla" 262 -261 basechar 0
LayerCount: 4
Fore
SplineSet
280 -10 m 0
 223 -10 180 7 145 41 c 1
 145 -259 l 1
 65 -259 l 1
 65 694 l 1
 145 694 l 1
 145 432 l 1
 180 470 223 489 285 489 c 0
 358 489 414 457 450 415 c 0
 486 372 505 315 505 245 c 0
 505 136 449 44 366 7 c 0
 339 -5 310 -10 280 -10 c 0
272 58 m 0
 365 58 427 134 427 226 c 0
 427 275 419 313 402 340 c 0
 369 393 326 420 272 421 c 1
 176 421 140 337 140 238 c 0
 140 182 147 142 162 119 c 0
 188 78 225 58 272 58 c 0
EndSplineSet
Validated: 1
Layer: 3
SplineSet
309.57 57.6172 m 0
 347.086 60 383.611 76.9355 409.18 104.492 c 0
 425.035 121.58 436.6 142.435 443.896 164.574 c 0
 451.193 186.713 454.449 210.088 454.59 233.398 c 0
 454.829 273.065 446.129 313.412 425.293 347.168 c 0
 411.997 368.709 393.697 387.228 371.963 400.205 c 0
 350.229 413.184 325.117 420.642 299.805 420.898 c 0
 283.084 421.068 266.293 418.068 250.829 411.705 c 0
 235.364 405.344 221.312 395.58 209.961 383.301 c 0
 191.73 363.578 181.022 337.857 175.475 311.579 c 0
 169.928 285.301 168.584 258.303 168.457 231.445 c 0
 168.361 211.222 169.109 190.922 172.479 170.981 c 0
 175.85 151.041 182.143 131.401 192.871 114.258 c 0
 204.928 94.9922 222.607 79.3037 243.181 69.6426 c 0
 263.753 59.9824 286.889 56.1758 309.57 57.6172 c 0
92.7734 693.848 m 1
 172.852 693.848 l 1
 172.852 399.902 l 1
 135.254 352.539 l 1
 139.215 378.4 149.945 403.182 166.016 423.828 c 0
 176.675 437.521 189.635 449.4 204.102 458.984 c 0
 232.191 477.592 265.676 487.353 299.316 489.258 c 0
 332.725 491.152 366.561 485.557 397.527 472.877 c 0
 428.494 460.197 456.472 440.145 478.027 414.551 c 0
 516.133 369.307 532.603 308.665 532.715 249.512 c 0
 532.842 184.529 514.424 118.057 473.145 67.8711 c 0
 451.785 41.9043 424.442 20.8311 393.71 7.19141 c 0
 362.978 -6.44824 328.977 -12.6963 295.41 -10.7422 c 0
 245.611 -7.84375 196.619 13.8516 163.086 50.7812 c 0
 141.738 74.292 126.845 103.628 120.605 134.766 c 1
 172.852 82.0312 l 1
 172.852 -259.277 l 1
 92.7734 -259.277 l 1
 92.7734 693.848 l 1
EndSplineSet
EndChar

StartChar: Eth
Encoding: 208 208 188
Width: 783
VWidth: 1023
Flags: MW
AnchorPoint: "above" 402 670 basechar 0
AnchorPoint: "below" 402 0 basechar 0
AnchorPoint: "cedilla" 402 0 basechar 0
LayerCount: 4
Fore
SplineSet
728 372 m 0
 728 135 610 6 376 0 c 1
 164 0 l 1
 164 321 l 1
 57 321 l 1
 57 395 l 1
 164 395 l 1
 164 694 l 1
 357 694 l 2
 522 694 616 655 683 553 c 0
 713 506 728 446 728 372 c 0
247 321 m 1
 247 73 l 1
 348 73 l 2
 388 73 421 76 448 80 c 0
 524 91 582 139 612 200 c 0
 633 242 645 297 645 361 c 0
 645 498 555 598 446 617 c 0
 430 620 408 621 381 621 c 2
 247 621 l 1
 247 395 l 1
 372 395 l 1
 372 321 l 1
 247 321 l 1
EndSplineSet
Validated: 1
Layer: 3
SplineSet
57.1289 394.531 m 1
 371.582 394.531 l 1
 371.582 321.289 l 1
 57.1289 321.289 l 1
 57.1289 394.531 l 1
246.582 620.605 m 1
 246.582 73.2422 l 1
 347.656 73.2422 l 2
 378.312 73.2422 409.105 73.4502 439.383 78.252 c 0
 469.66 83.0547 499.36 92.5332 525.879 107.91 c 0
 562.964 129.412 592.964 162.426 612.305 200.684 c 0
 633.735 243.084 643.042 290.893 644.531 338.379 c 0
 646.377 397.117 635.942 457.562 605.469 507.812 c 0
 582.329 545.967 547.935 577.153 507.812 596.68 c 0
 488.33 606.162 467.494 612.856 446.139 616.523 c 0
 424.781 620.19 403.017 620.605 381.348 620.605 c 2
 246.582 620.605 l 1
163.574 693.848 m 1
 357.422 693.848 l 2
 421.89 693.848 487.672 689.883 547.363 665.527 c 0
 600.376 643.896 647.651 607.183 678.711 559.082 c 0
 719.106 496.523 730.776 419.121 727.539 344.727 c 0
 725.581 299.721 718.486 254.77 704.185 212.053 c 0
 689.883 169.336 667.656 128.938 636.719 96.1914 c 0
 598.301 55.5254 546.943 28.2363 492.676 14.6484 c 0
 434.539 0.0927734 373.896 0 313.965 0 c 2
 163.574 0 l 1
 163.574 693.848 l 1
EndSplineSet
EndChar

